{
.appVersion = "1357";
copyright = "Copyright 2021 The Workbench Project Authors (https://github.com/jenskutilek/homecomputer-fonts-wb)";
customParameters = (
{
name = "Disable Last Change";
value = 1;
},
{
name = fsType;
value = (
);
},
{
name = postscriptIsFixedPitch;
value = 1;
},
{
name = "Variable Font Origin";
value = "EF047752-ED93-49D3-A4D1-D66A6AAE90C7";
},
{
name = panose;
value = (
2,
0,
0,
9,
0,
0,
0,
0,
0,
0
);
},
{
name = "Use Typo Metrics";
value = 1;
},
{
name = vendorID;
value = JENS;
},
{
name = license;
value = "This Font Software is licensed under the SIL Open Font License, Version 1.1. This license is available with a FAQ at: https://scripts.sil.org/OFL";
},
{
name = licenseURL;
value = "https://scripts.sil.org/OFL";
},
{
name = Axes;
value = (
{
Name = Scanlines;
Tag = SCAN;
},
{
Name = Bleed;
Tag = BLED;
}
);
},
{
name = "Axis Mappings";
value = {
BLED = {
0 = 0;
100 = 100;
};
SCAN = {
-80 = 20;
0 = 100;
150 = 250;
};
};
}
);
date = "2008-09-07 06:16:00 +0000";
designer = "Jens Kutilek";
designerURL = "https://www.kutilek.de/";
disablesAutomaticAlignment = 1;
familyName = Workbench;
fontMaster = (
{
ascender = 896;
capHeight = 896;
customParameters = (
{
name = "Link Metrics With First Master";
value = 1;
},
{
name = typoAscender;
value = 896;
},
{
name = typoDescender;
value = -128;
},
{
name = typoLineGap;
value = 0;
},
{
name = hheaAscender;
value = 896;
},
{
name = hheaDescender;
value = -128;
},
{
name = hheaLineGap;
value = 0;
},
{
name = winAscent;
value = 896;
},
{
name = winDescent;
value = 128;
},
{
name = underlineThickness;
value = 128;
},
{
name = underlinePosition;
value = -128;
},
{
name = "Axis Location";
value = (
{
Axis = Weight;
Location = "200";
},
{
Axis = Width;
Location = "100";
}
);
}
);
descender = -128;
iconName = Light;
id = "EF047752-ED93-49D3-A4D1-D66A6AAE90C7";
weightValue = 20;
widthValue = 0;
xHeight = 640;
},
{
ascender = 896;
capHeight = 896;
customParameters = (
{
name = "Link Metrics With First Master";

glyphs = (
{
glyphname = Ccedilla;
layers = (
{
components = (
{
name = pixel.2;
transform = "{1, 0, 0, 1, 128, -128}";
},
{
name = pixel.1;
transform = "{1, 0, 0, 1, 256, 0}";
},
{
name = pixel.4;
transform = "{1, 0, 0, 1, 128, 128}";
},
{
name = pixel.2;
transform = "{1, 0, 0, 1, 64, 256}";
},
{
name = pixel.2;
transform = "{1, 0, 0, 1, 320, 256}";
},
{
name = pixel.2;
transform = "{1, 0, 0, 1, 0, 384}";
},
{
name = pixel.2;
transform = "{1, 0, 0, 1, 0, 512}";
},
{
name = pixel.2;
transform = "{1, 0, 0, 1, 64, 640}";
},
{
name = pixel.2;
transform = "{1, 0, 0, 1, 320, 640}";
},
{
name = pixel.4;
transform = "{1, 0, 0, 1, 128, 768}";
}
);
layerId = "EF047752-ED93-49D3-A4D1-D66A6AAE90C7";
width = 512;
},
{
background = {
paths = (
{
closed = 1;
nodes = (
"137 -189 OFFCURVE",
"65 -115 OFFCURVE",
"65 -13 OFFCURVE",
"137 61 OFFCURVE",
"190 61 QCURVE SMOOTH",
"194 61 LINE SMOOTH",
"247 61 OFFCURVE",
"319 -13 OFFCURVE",
"319 -115 OFFCURVE",
"247 -189 OFFCURVE",
"194 -189 QCURVE SMOOTH",
"190 -189 LINE SMOOTH"
);
},
{
closed = 1;
nodes = (
"265 -61 OFFCURVE",
"193 13 OFFCURVE",
"193 115 OFFCURVE",
"265 189 OFFCURVE",
"318 189 QCURVE SMOOTH",
"258 189 LINE SMOOTH",
"311 189 OFFCURVE",
"383 115 OFFCURVE",
"383 13 OFFCURVE",
"311 -61 OFFCURVE",
"258 -61 QCURVE SMOOTH",
"318 -61 LINE SMOOTH"
);
},
{
closed = 1;
nodes = (
"145 67 OFFCURVE",
"65 141 OFFCURVE",
"65 243 OFFCURVE",
"145 317 OFFCURVE",
"215 317 QCURVE SMOOTH",
"297 317 LINE SMOOTH",
"367 317 OFFCURVE",
"447 243 OFFCURVE",
"447 141 OFFCURVE",
"367 67 OFFCURVE",
"297 67 QCURVE SMOOTH",
"215 67 LINE SMOOTH"
);
},
{
closed = 1;
nodes = (
"73 195 OFFCURVE",
"1 269 OFFCURVE",
"1 371 OFFCURVE",
"73 445 OFFCURVE",
"126 445 QCURVE SMOOTH",
"130 445 LINE SMOOTH",
"183 445 OFFCURVE",
"255 371 OFFCURVE",
"255 269 OFFCURVE",
"183 195 OFFCURVE",
"130 195 QCURVE SMOOTH",
"126 195 LINE SMOOTH"
);
},
{
closed = 1;
nodes = (
"329 195 OFFCURVE",
"257 269 OFFCURVE",
"257 371 OFFCURVE",
"329 445 OFFCURVE",
"382 445 QCURVE SMOOTH",
"386 445 LINE SMOOTH",
"439 445 OFFCURVE",
"511 371 OFFCURVE",
"511 269 OFFCURVE",
"439 195 OFFCURVE",
"386 195 QCURVE SMOOTH",
"382 195 LINE SMOOTH"
);
},
{
closed = 1;
nodes = (
"9 323 OFFCURVE",
"-63 397 OFFCURVE",
"-63 499 OFFCURVE",
"9 573 OFFCURVE",
"62 573 QCURVE SMOOTH",
"66 573 LINE SMOOTH",
"119 573 OFFCURVE",
"191 499 OFFCURVE",
"191 397 OFFCURVE",
"119 323 OFFCURVE",
"66 323 QCURVE SMOOTH",
"62 323 LINE SMOOTH"
);
},
{
closed = 1;
nodes = (
"9 451 OFFCURVE",
"-63 525 OFFCURVE",
"-63 627 OFFCURVE",
"9 701 OFFCURVE",
"62 701 QCURVE SMOOTH",
"66 701 LINE SMOOTH",
"119 701 OFFCURVE",
"191 627 OFFCURVE",
"191 525 OFFCURVE",
"119 451 OFFCURVE",
"66 451 QCURVE SMOOTH",
"62 451 LINE SMOOTH"
);
},
{
closed = 1;
nodes = (
"73 579 OFFCURVE",
"1 653 OFFCURVE",
"1 755 OFFCURVE",
"73 829 OFFCURVE",
"126 829 QCURVE SMOOTH",
"130 829 LINE SMOOTH",
"183 829 OFFCURVE",
"255 755 OFFCURVE",
"255 653 OFFCURVE",
"183 579 OFFCURVE",
"130 579 QCURVE SMOOTH",
"126 579 LINE SMOOTH"
);
},
{
closed = 1;
nodes = (
"329 579 OFFCURVE",
"257 653 OFFCURVE",
"257 755 OFFCURVE",
"329 829 OFFCURVE",
"382 829 QCURVE SMOOTH",
"386 829 LINE SMOOTH",
"439 829 OFFCURVE",
"511 755 OFFCURVE",
"511 653 OFFCURVE",
"439 579 OFFCURVE",
"386 579 QCURVE SMOOTH",
"382 579 LINE SMOOTH"
);
},
{
closed = 1;
nodes = (
"145 707 OFFCURVE",
"65 781 OFFCURVE",
"65 883 OFFCURVE",
"145 957 OFFCURVE",
"215 957 QCURVE SMOOTH",
"297 957 LINE SMOOTH",
"367 957 OFFCURVE",
"447 883 OFFCURVE",
"447 781 OFFCURVE",
"367 707 OFFCURVE",
"297 707 QCURVE SMOOTH",
"215 707 LINE SMOOTH"
);
}
);
};
components = (
{
name = pixel.2;
transform = "{1, 0, 0, 1, 128, -128}";
},
{
name = pixel.1;
transform = "{1, 0, 0, 1, 256, 0}";
},
{
name = pixel.4;
transform = "{1, 0, 0, 1, 128, 128}";
},
{
name = pixel.2;
transform = "{1, 0, 0, 1, 64, 256}";
},
{
name = pixel.2;
transform = "{1, 0, 0, 1, 320, 256}";
},
{
name = pixel.2;
transform = "{1, 0, 0, 1, 0, 384}";
},
{
name = pixel.2;
transform = "{1, 0, 0, 1, 0, 512}";
},
{
name = pixel.2;
transform = "{1, 0, 0, 1, 64, 640}";
},
{
name = pixel.2;
transform = "{1, 0, 0, 1, 320, 640}";
},
{
name = pixel.4;
transform = "{1, 0, 0, 1, 128, 768}";
}
);
layerId = "164C8123-3F0E-4C99-877D-0E85C432A9CE";
width = 512;
},
{
components = (
{
name = pixel.2;
transform = "{1, 0, 0, 1, 128, -128}";
},
{
name = pixel.1;
transform = "{1, 0, 0, 1, 256, 0}";
},
{
name = pixel.4;
transform = "{1, 0, 0, 1, 128, 128}";
},
{
name = pixel.2;
transform = "{1, 0, 0, 1, 64, 256}";
},
{
name = pixel.2;
transform = "{1, 0, 0, 1, 320, 256}";
},
{
name = pixel.2;
transform = "{1, 0, 0, 1, 0, 384}";
},
{
name = pixel.2;
transform = "{1, 0, 0, 1, 0, 512}";
},
{
name = pixel.2;
transform = "{1, 0, 0, 1, 64, 640}";
},
{
name = pixel.2;
transform = "{1, 0, 0, 1, 320, 640}";
},
{
name = pixel.4;
transform = "{1, 0, 0, 1, 128, 768}";
}
);
layerId = "EDC3ADDC-530C-4ECE-AAC6-732B149A8D4A";
width = 512;
},
{
components = (
{
name = pixel.2;
transform = "{1, 0, 0, 1, 128, -128}";
},
{
name = pixel.1;
transform = "{1, 0, 0, 1, 256, 0}";
},
{
name = pixel.4;
transform = "{1, 0, 0, 1, 128, 128}";
},
{
name = pixel.2;
transform = "{1, 0, 0, 1, 64, 256}";
},
{
name = pixel.2;
transform = "{1, 0, 0, 1, 320, 256}";
},
{
name = pixel.2;
transform = "{1, 0, 0, 1, 0, 384}";
},
{
name = pixel.2;
transform = "{1, 0, 0, 1, 0, 512}";
},
{
name = pixel.2;
transform = "{1, 0, 0, 1, 64, 640}";
},
{
name = pixel.2;
transform = "{1, 0, 0, 1, 320, 640}";
},
{
name = pixel.4;
transform = "{1, 0, 0, 1, 128, 768}";
}
);
layerId = "38088322-78A3-4F4F-B46E-F8355B0BCD96";
width = 512;
}
);
unicode = 00C7;
},
{
glyphname = L;
layers = (
{
components = (
{
name = pixel.7;
},
{
name = pixel.2;
transform = "{1, 0, 0, 1, 64, 128}";
},
{
name = pixel.2;
transform = "{1, 0, 0, 1, 320, 128}";
},
{
name = pixel.2;
transform = "{1, 0, 0, 1, 64, 256}";
},
{
name = pixel.1;
transform = "{1, 0, 0, 1, 384, 256}";
},
{
name = pixel.2;
transform = "{1, 0, 0, 1, 64, 384}";
},
{
name = pixel.2;
transform = "{1, 0, 0, 1, 64, 512}";
},
{
name = pixel.2;
transform = "{1, 0, 0, 1, 64, 640}";
},
{
name = pixel.4;
transform = "{1, 0, 0, 1, 0, 768}";
}
);
layerId = "EF047752-ED93-49D3-A4D1-D66A6AAE90C7";
width = 512;
},
{
background = {
paths = (
{
closed = 1;
nodes = (
"17 -61 OFFCURVE",
"-63 13 OFFCURVE",
"-63 115 OFFCURVE",
"17 189 OFFCURVE",
"87 189 QCURVE SMOOTH",
"361 189 LINE SMOOTH",
"431 189 OFFCURVE",
"511 115 OFFCURVE",
"511 13 OFFCURVE",
"431 -61 OFFCURVE",
"361 -61 QCURVE SMOOTH",
"87 -61 LINE SMOOTH"
);
},
{
closed = 1;
nodes = (
"73 67 OFFCURVE",
"1 141 OFFCURVE",
"1 243 OFFCURVE",
"73 317 OFFCURVE",
"126 317 QCURVE SMOOTH",
"130 317 LINE SMOOTH",
"183 317 OFFCURVE",
"255 243 OFFCURVE",
"255 141 OFFCURVE",
"183 67 OFFCURVE",
"130 67 QCURVE SMOOTH",
"126 67 LINE SMOOTH"
);
},
{
closed = 1;
nodes = (
"329 67 OFFCURVE",
"257 141 OFFCURVE",
"257 243 OFFCURVE",
"329 317 OFFCURVE",
"382 317 QCURVE SMOOTH",
"386 317 LINE SMOOTH",
"439 317 OFFCURVE",
"511 243 OFFCURVE",
"511 141 OFFCURVE",
"439 67 OFFCURVE",
"386 67 QCURVE SMOOTH",
"382 67 LINE SMOOTH"
);
},
{
closed = 1;
nodes = (
"73 195 OFFCURVE",
"1 269 OFFCURVE",
"1 371 OFFCURVE",
"73 445 OFFCURVE",
"126 445 QCURVE SMOOTH",
"130 445 LINE SMOOTH",
"183 445 OFFCURVE",
"255 371 OFFCURVE",
"255 269 OFFCURVE",
"183 195 OFFCURVE",
"130 195 QCURVE SMOOTH",
"126 195 LINE SMOOTH"
);
},
{
closed = 1;
nodes = (
"393 195 OFFCURVE",
"321 269 OFFCURVE",
"321 371 OFFCURVE",
"393 445 OFFCURVE",
"446 445 QCURVE SMOOTH",
"386 445 LINE SMOOTH",
"439 445 OFFCURVE",
"511 371 OFFCURVE",
"511 269 OFFCURVE",
"439 195 OFFCURVE",
"386 195 QCURVE SMOOTH",
"446 195 LINE SMOOTH"
);
},
{
closed = 1;
nodes = (
"73 323 OFFCURVE",
"1 397 OFFCURVE",
"1 499 OFFCURVE",
"73 573 OFFCURVE",
"126 573 QCURVE SMOOTH",
"130 573 LINE SMOOTH",
"183 573 OFFCURVE",
"255 499 OFFCURVE",
"255 397 OFFCURVE",
"183 323 OFFCURVE",
"130 323 QCURVE SMOOTH",
"126 323 LINE SMOOTH"
);
},
{
closed = 1;
nodes = (
"73 451 OFFCURVE",
"1 525 OFFCURVE",
"1 627 OFFCURVE",
"73 701 OFFCURVE",
"126 701 QCURVE SMOOTH",
"130 701 LINE SMOOTH",
"183 701 OFFCURVE",
"255 627 OFFCURVE",
"255 525 OFFCURVE",
"183 451 OFFCURVE",
"130 451 QCURVE SMOOTH",
"126 451 LINE SMOOTH"
);
},
{
closed = 1;
nodes = (
"73 579 OFFCURVE",
"1 653 OFFCURVE",
"1 755 OFFCURVE",
"73 829 OFFCURVE",
"126 829 QCURVE SMOOTH",
"130 829 LINE SMOOTH",
"183 829 OFFCURVE",
"255 755 OFFCURVE",
"255 653 OFFCURVE",
"183 579 OFFCURVE",
"130 579 QCURVE SMOOTH",
"126 579 LINE SMOOTH"
);
},
{
closed = 1;
nodes = (
"17 707 OFFCURVE",
"-63 781 OFFCURVE",
"-63 883 OFFCURVE",
"17 957 OFFCURVE",
"87 957 QCURVE SMOOTH",
"169 957 LINE SMOOTH",
"239 957 OFFCURVE",
"319 883 OFFCURVE",
"319 781 OFFCURVE",
"239 707 OFFCURVE",
"169 707 QCURVE SMOOTH",
"87 707 LINE SMOOTH"
);
}
);
};
components = (
{
name = pixel.7;
},
{
name = pixel.2;
transform = "{1, 0, 0, 1, 64, 128}";
},
{
name = pixel.2;
transform = "{1, 0, 0, 1, 320, 128}";
},
{
name = pixel.2;
transform = "{1, 0, 0, 1, 64, 256}";
},
{
name = pixel.1;
transform = "{1, 0, 0, 1, 384, 256}";
},
{
name = pixel.2;
transform = "{1, 0, 0, 1, 64, 384}";
},
{
name = pixel.2;
transform = "{1, 0, 0, 1, 64, 512}";
},
{
name = pixel.2;
transform = "{1, 0, 0, 1, 64, 640}";
},
{
name = pixel.4;
transform = "{1, 0, 0, 1, 0, 768}";
}
);
layerId = "164C8123-3F0E-4C99-877D-0E85C432A9CE";
width = 512;
},
{
components = (
{
name = pixel.7;
},
{
name = pixel.2;
transform = "{1, 0, 0, 1, 64, 128}";
},
{
name = pixel.2;
transform = "{1, 0, 0, 1, 320, 128}";
},
{
name = pixel.2;
transform = "{1, 0, 0, 1, 64, 256}";
},
{
name = pixel.1;
transform = "{1, 0, 0, 1, 384, 256}";
},
{
name = pixel.2;
transform = "{1, 0, 0, 1, 64, 384}";
},
{
name = pixel.2;
transform = "{1, 0, 0, 1, 64, 512}";
},
{
name = pixel.2;
transform = "{1, 0, 0, 1, 64, 640}";
},
{
name = pixel.4;
transform = "{1, 0, 0, 1, 0, 768}";
}
);
layerId = "EDC3ADDC-530C-4ECE-AAC6-732B149A8D4A";
width = 512;
},
{
components = (
{
name = pixel.7;
},
{
name = pixel.2;
transform = "{1, 0, 0, 1, 64, 128}";
},
{
name = pixel.2;
transform = "{1, 0, 0, 1, 320, 128}";
},
{
name = pixel.2;
transform = "{1, 0, 0, 1, 64, 256}";
},
{
name = pixel.1;
transform = "{1, 0, 0, 1, 384, 256}";
},
{
name = pixel.2;
transform = "{1, 0, 0, 1, 64, 384}";
},
{
name = pixel.2;
transform = "{1, 0, 0, 1, 64, 512}";
},
{
name = pixel.2;
transform = "{1, 0, 0, 1, 64, 640}";
},
{
name = pixel.4;
transform = "{1, 0, 0, 1, 0, 768}";
}
);
layerId = "38088322-78A3-4F4F-B46E-F8355B0BCD96";
width = 512;
}
);
unicode = 004C;
},
{
glyphname = M;
layers = (
{
components = (
{
name = pixel.2;
},
{
name = pixel.2;
transform = "{1, 0, 0, 1, 320, 0}";
},
{
name = pixel.2;
transform = "{1, 0, 0, 1, 0, 128}";
},
{
name = pixel.2;
transform = "{1, 0, 0, 1, 320, 128}";
},
{
name = pixel.2;
transform = "{1, 0, 0, 1, 0, 256}";
},
{
name = pixel.1;
transform = "{1, 0, 0, 1, 192, 256}";
},
{
name = pixel.2;
transform = "{1, 0, 0, 1, 320, 256}";
},
{
name = pixel.7;
transform = "{1, 0, 0, 1, 0, 384}";
},
{
name = pixel.3;
transform = "{1, 0, 0, 1, 0, 512}";
},
{
name = pixel.3;
transform = "{1, 0, 0, 1, 256, 512}";
},
{
name = pixel.2;
transform = "{1, 0, 0, 1, 0, 640}";
},
{
name = pixel.2;
transform = "{1, 0, 0, 1, 320, 640}";
},
{
name = pixel.1;
transform = "{1, 0, 0, 1, 0, 768}";
},
{
name = pixel.1;
transform = "{1, 0, 0, 1, 384, 768}";
}
);
layerId = "EF047752-ED93-49D3-A4D1-D66A6AAE90C7";
width = 512;
},
{
background = {
paths = (
{
closed = 1;
nodes = (
"9 -61 OFFCURVE",
"-63 13 OFFCURVE",
"-63 115 OFFCURVE",
"9 189 OFFCURVE",
"62 189 QCURVE SMOOTH",
"66 189 LINE SMOOTH",
"119 189 OFFCURVE",
"191 115 OFFCURVE",
"191 13 OFFCURVE",
"119 -61 OFFCURVE",
"66 -61 QCURVE SMOOTH",
"62 -61 LINE SMOOTH"
);
},
{
closed = 1;
nodes = (
"329 -61 OFFCURVE",
"257 13 OFFCURVE",
"257 115 OFFCURVE",
"329 189 OFFCURVE",
"382 189 QCURVE SMOOTH",
"386 189 LINE SMOOTH",
"439 189 OFFCURVE",
"511 115 OFFCURVE",
"511 13 OFFCURVE",
"439 -61 OFFCURVE",
"386 -61 QCURVE SMOOTH",
"382 -61 LINE SMOOTH"
);
},
{
closed = 1;
nodes = (
"9 67 OFFCURVE",
"-63 141 OFFCURVE",
"-63 243 OFFCURVE",
"9 317 OFFCURVE",
"62 317 QCURVE SMOOTH",
"66 317 LINE SMOOTH",
"119 317 OFFCURVE",
"191 243 OFFCURVE",
"191 141 OFFCURVE",
"119 67 OFFCURVE",
"66 67 QCURVE SMOOTH",
"62 67 LINE SMOOTH"
);
},
{
closed = 1;
nodes = (
"329 67 OFFCURVE",
"257 141 OFFCURVE",
"257 243 OFFCURVE",
"329 317 OFFCURVE",
"382 317 QCURVE SMOOTH",
"386 317 LINE SMOOTH",
"439 317 OFFCURVE",
"511 243 OFFCURVE",
"511 141 OFFCURVE",
"439 67 OFFCURVE",
"386 67 QCURVE SMOOTH",
"382 67 LINE SMOOTH"
);
},
{
closed = 1;
nodes = (
"9 195 OFFCURVE",
"-63 269 OFFCURVE",
"-63 371 OFFCURVE",
"9 445 OFFCURVE",
"62 445 QCURVE SMOOTH",
"66 445 LINE SMOOTH",
"119 445 OFFCURVE",
"191 371 OFFCURVE",
"191 269 OFFCURVE",
"119 195 OFFCURVE",
"66 195 QCURVE SMOOTH",
"62 195 LINE SMOOTH"
);
},
{
closed = 1;
nodes = (
"201 195 OFFCURVE",
"129 269 OFFCURVE",
"129 371 OFFCURVE",
"201 445 OFFCURVE",
"254 445 QCURVE SMOOTH",
"194 445 LINE SMOOTH",
"247 445 OFFCURVE",
"319 371 OFFCURVE",
"319 269 OFFCURVE",
"247 195 OFFCURVE",
"194 195 QCURVE SMOOTH",
"254 195 LINE SMOOTH"
);
},
{
closed = 1;
nodes = (
"329 195 OFFCURVE",
"257 269 OFFCURVE",
"257 371 OFFCURVE",
"329 445 OFFCURVE",
"382 445 QCURVE SMOOTH",
"386 445 LINE SMOOTH",
"439 445 OFFCURVE",
"511 371 OFFCURVE",
"511 269 OFFCURVE",
"439 195 OFFCURVE",
"386 195 QCURVE SMOOTH",
"382 195 LINE SMOOTH"
);
},
{
closed = 1;
nodes = (
"17 323 OFFCURVE",
"-63 397 OFFCURVE",
"-63 499 OFFCURVE",
"17 573 OFFCURVE",
"87 573 QCURVE SMOOTH",
"361 573 LINE SMOOTH",
"431 573 OFFCURVE",
"511 499 OFFCURVE",
"511 397 OFFCURVE",
"431 323 OFFCURVE",
"361 323 QCURVE SMOOTH",
"87 323 LINE SMOOTH"
);
},
{
closed = 1;
nodes = (
"9 451 OFFCURVE",
"-63 525 OFFCURVE",
"-63 627 OFFCURVE",
"9 701 OFFCURVE",
"62 701 QCURVE SMOOTH",
"130 701 LINE SMOOTH",
"183 701 OFFCURVE",
"255 627 OFFCURVE",
"255 525 OFFCURVE",
"183 451 OFFCURVE",
"130 451 QCURVE SMOOTH",
"62 451 LINE SMOOTH"
);
},
{
closed = 1;
nodes = (
"265 451 OFFCURVE",
"193 525 OFFCURVE",
"193 627 OFFCURVE",
"265 701 OFFCURVE",
"318 701 QCURVE SMOOTH",
"386 701 LINE SMOOTH",
"439 701 OFFCURVE",
"511 627 OFFCURVE",
"511 525 OFFCURVE",
"439 451 OFFCURVE",
"386 451 QCURVE SMOOTH",
"318 451 LINE SMOOTH"
);
},
{
closed = 1;
nodes = (
"9 579 OFFCURVE",
"-63 653 OFFCURVE",
"-63 755 OFFCURVE",
"9 829 OFFCURVE",
"62 829 QCURVE SMOOTH",
"66 829 LINE SMOOTH",
"119 829 OFFCURVE",
"191 755 OFFCURVE",
"191 653 OFFCURVE",
"119 579 OFFCURVE",
"66 579 QCURVE SMOOTH",
"62 579 LINE SMOOTH"
);
},
{
closed = 1;
nodes = (
"329 579 OFFCURVE",
"257 653 OFFCURVE",
"257 755 OFFCURVE",
"329 829 OFFCURVE",
"382 829 QCURVE SMOOTH",
"386 829 LINE SMOOTH",
"439 829 OFFCURVE",
"511 755 OFFCURVE",
"511 653 OFFCURVE",
"439 579 OFFCURVE",
"386 579 QCURVE SMOOTH",
"382 579 LINE SMOOTH"
);
},
{
closed = 1;
nodes = (
"9 707 OFFCURVE",
"-63 781 OFFCURVE",
"-63 883 OFFCURVE",
"9 957 OFFCURVE",
"62 957 QCURVE SMOOTH",
"2 957 LINE SMOOTH",
"55 957 OFFCURVE",
"127 883 OFFCURVE",
"127 781 OFFCURVE",
"55 707 OFFCURVE",
"2 707 QCURVE SMOOTH",
"62 707 LINE SMOOTH"
);
},
{
closed = 1;
nodes = (
"393 707 OFFCURVE",
"321 781 OFFCURVE",
"321 883 OFFCURVE",
"393 957 OFFCURVE",
"446 957 QCURVE SMOOTH",
"386 957 LINE SMOOTH",
"439 957 OFFCURVE",
"511 883 OFFCURVE",
"511 781 OFFCURVE",
"439 707 OFFCURVE",
"386 707 QCURVE SMOOTH",
"446 707 LINE SMOOTH"
);
}
);
};
components = (
{
name = pixel.2;
},
{
name = pixel.2;
transform = "{1, 0, 0, 1, 320, 0}";
},
{
name = pixel.2;
transform = "{1, 0, 0, 1, 0, 128}";
},
{
name = pixel.2;
transform = "{1, 0, 0, 1, 320, 128}";
},
{
name = pixel.2;
transform = "{1, 0, 0, 1, 0, 256}";
},
{
name = pixel.1;
transform = "{1, 0, 0, 1, 192, 256}";
},
{
name = pixel.2;
transform = "{1, 0, 0, 1, 320, 256}";
},
{
name = pixel.7;
transform = "{1, 0, 0, 1, 0, 384}";
},
{
name = pixel.3;
transform = "{1, 0, 0, 1, 0, 512}";
},
{
name = pixel.3;
transform = "{1, 0, 0, 1, 256, 512}";
},
{
name = pixel.2;
transform = "{1, 0, 0, 1, 0, 640}";
},
{
name = pixel.2;
transform = "{1, 0, 0, 1, 320, 640}";
},
{
name = pixel.1;
transform = "{1, 0, 0, 1, 0, 768}";
},
{
name = pixel.1;
transform = "{1, 0, 0, 1, 384, 768}";
}
);
layerId = "164C8123-3F0E-4C99-877D-0E85C432A9CE";
width = 512;
},
{
components = (
{
name = pixel.2;
},
{
name = pixel.2;
transform = "{1, 0, 0, 1, 320, 0}";
},
{
name = pixel.2;
transform = "{1, 0, 0, 1, 0, 128}";
},
{
name = pixel.2;
transform = "{1, 0, 0, 1, 320, 128}";
},
{
name = pixel.2;
transform = "{1, 0, 0, 1, 0, 256}";
},
{
name = pixel.1;
transform = "{1, 0, 0, 1, 192, 256}";
},
{
name = pixel.2;
transform = "{1, 0, 0, 1, 320, 256}";
},
{
name = pixel.7;
transform = "{1, 0, 0, 1, 0, 384}";
},
{
name = pixel.3;
transform = "{1, 0, 0, 1, 0, 512}";
},
{
name = pixel.3;
transform = "{1, 0, 0, 1, 256, 512}";
},
{
name = pixel.2;
transform = "{1, 0, 0, 1, 0, 640}";
},
{
name = pixel.2;
transform = "{1, 0, 0, 1, 320, 640}";
},
{
name = pixel.1;
transform = "{1, 0, 0, 1, 0, 768}";
},
{
name = pixel.1;
transform = "{1, 0, 0, 1, 384, 768}";
}
);
layerId = "EDC3ADDC-530C-4ECE-AAC6-732B149A8D4A";
width = 512;
},
{
components = (
{
name = pixel.2;
},
{
name = pixel.2;
transform = "{1, 0, 0, 1, 320, 0}";
},
{
name = pixel.2;
transform = "{1, 0, 0, 1, 0, 128}";
},
{
name = pixel.2;
transform = "{1, 0, 0, 1, 320, 128}";
},
{
name = pixel.2;
transform = "{1, 0, 0, 1, 0, 256}";
},
{
name = pixel.1;
transform = "{1, 0, 0, 1, 192, 256}";
},
{
name = pixel.2;
transform = "{1, 0, 0, 1, 320, 256}";
},
{
name = pixel.7;
transform = "{1, 0, 0, 1, 0, 384}";
},
{
name = pixel.3;
transform = "{1, 0, 0, 1, 0, 512}";
},
{
name = pixel.3;
transform = "{1, 0, 0, 1, 256, 512}";
},
{
name = pixel.2;
transform = "{1, 0, 0, 1, 0, 640}";
},
{
name = pixel.2;
transform = "{1, 0, 0, 1, 320, 640}";
},
{
name = pixel.1;
transform = "{1, 0, 0, 1, 0, 768}";
},
{
name = pixel.1;
transform = "{1, 0, 0, 1, 384, 768}";
}
);
layerId = "38088322-78A3-4F4F-B46E-F8355B0BCD96";
width = 512;
}
);
unicode = 004D;
},
{
glyphname = Oslash;
layers = (
{
components = (
{
name = pixel.1;
},
{
name = pixel.4;
transform = "{1, 0, 0, 1, 128, 0}";
},
{
name = pixel.2;
transform = "{1, 0, 0, 1, 64, 128}";
},
{
name = pixel.2;
transform = "{1, 0, 0, 1, 320, 128}";
},
{
name = pixel.4;
transform = "{1, 0, 0, 1, 0, 256}";
},
{
name = pixel.2;
transform = "{1, 0, 0, 1, 384, 256}";
},
{
name = pixel.2;
transform = "{1, 0, 0, 1, 0, 384}";
},
{
name = pixel.2;
transform = "{1, 0, 0, 1, 192, 384}";
},
{
name = pixel.2;
transform = "{1, 0, 0, 1, 384, 384}";
},
{
name = pixel.2;
transform = "{1, 0, 0, 1, 0, 512}";
},
{
name = pixel.4;
transform = "{1, 0, 0, 1, 256, 512}";
},
{
name = pixel.2;
transform = "{1, 0, 0, 1, 64, 640}";
},
{
name = pixel.2;
transform = "{1, 0, 0, 1, 320, 640}";
},
{
name = pixel.4;
transform = "{1, 0, 0, 1, 128, 768}";
},
{
name = pixel.1;
transform = "{1, 0, 0, 1, 448, 768}";
}
);
layerId = "EF047752-ED93-49D3-A4D1-D66A6AAE90C7";
width = 512;
},
{
background = {
paths = (
{
closed = 1;
nodes = (
"9 -61 OFFCURVE",
"-63 13 OFFCURVE",
"-63 115 OFFCURVE",
"9 189 OFFCURVE",
"62 189 QCURVE SMOOTH",
"2 189 LINE SMOOTH",
"55 189 OFFCURVE",
"127 115 OFFCURVE",
"127 13 OFFCURVE",
"55 -61 OFFCURVE",
"2 -61 QCURVE SMOOTH",
"62 -61 LINE SMOOTH"
);
},
{
closed = 1;
nodes = (
"145 -61 OFFCURVE",
"65 13 OFFCURVE",
"65 115 OFFCURVE",
"145 189 OFFCURVE",
"215 189 QCURVE SMOOTH",
"297 189 LINE SMOOTH",
"367 189 OFFCURVE",
"447 115 OFFCURVE",
"447 13 OFFCURVE",
"367 -61 OFFCURVE",
"297 -61 QCURVE SMOOTH",
"215 -61 LINE SMOOTH"
);
},
{
closed = 1;
nodes = (
"73 67 OFFCURVE",
"1 141 OFFCURVE",
"1 243 OFFCURVE",
"73 317 OFFCURVE",
"126 317 QCURVE SMOOTH",
"130 317 LINE SMOOTH",
"183 317 OFFCURVE",
"255 243 OFFCURVE",
"255 141 OFFCURVE",
"183 67 OFFCURVE",
"130 67 QCURVE SMOOTH",
"126 67 LINE SMOOTH"
);
},
{
closed = 1;
nodes = (
"329 67 OFFCURVE",
"257 141 OFFCURVE",
"257 243 OFFCURVE",
"329 317 OFFCURVE",
"382 317 QCURVE SMOOTH",
"386 317 LINE SMOOTH",
"439 317 OFFCURVE",
"511 243 OFFCURVE",
"511 141 OFFCURVE",
"439 67 OFFCURVE",
"386 67 QCURVE SMOOTH",
"382 67 LINE SMOOTH"
);
},
{
closed = 1;
nodes = (
"17 195 OFFCURVE",
"-63 269 OFFCURVE",
"-63 371 OFFCURVE",
"17 445 OFFCURVE",
"87 445 QCURVE SMOOTH",
"169 445 LINE SMOOTH",
"239 445 OFFCURVE",
"319 371 OFFCURVE",
"319 269 OFFCURVE",
"239 195 OFFCURVE",
"169 195 QCURVE SMOOTH",
"87 195 LINE SMOOTH"
);
},
{
closed = 1;
nodes = (
"393 195 OFFCURVE",
"321 269 OFFCURVE",
"321 371 OFFCURVE",
"393 445 OFFCURVE",
"446 445 QCURVE SMOOTH",
"450 445 LINE SMOOTH",
"503 445 OFFCURVE",
"575 371 OFFCURVE",
"575 269 OFFCURVE",
"503 195 OFFCURVE",
"450 195 QCURVE SMOOTH",
"446 195 LINE SMOOTH"
);
},
{
closed = 1;
nodes = (
"9 323 OFFCURVE",
"-63 397 OFFCURVE",
"-63 499 OFFCURVE",
"9 573 OFFCURVE",
"62 573 QCURVE SMOOTH",
"66 573 LINE SMOOTH",
"119 573 OFFCURVE",
"191 499 OFFCURVE",
"191 397 OFFCURVE",
"119 323 OFFCURVE",
"66 323 QCURVE SMOOTH",
"62 323 LINE SMOOTH"
);
},
{
closed = 1;
nodes = (
"201 323 OFFCURVE",
"129 397 OFFCURVE",
"129 499 OFFCURVE",
"201 573 OFFCURVE",
"254 573 QCURVE SMOOTH",
"258 573 LINE SMOOTH",
"311 573 OFFCURVE",
"383 499 OFFCURVE",
"383 397 OFFCURVE",
"311 323 OFFCURVE",
"258 323 QCURVE SMOOTH",
"254 323 LINE SMOOTH"
);
},
{
closed = 1;
nodes = (
"393 323 OFFCURVE",
"321 397 OFFCURVE",
"321 499 OFFCURVE",
"393 573 OFFCURVE",
"446 573 QCURVE SMOOTH",
"450 573 LINE SMOOTH",
"503 573 OFFCURVE",
"575 499 OFFCURVE",
"575 397 OFFCURVE",
"503 323 OFFCURVE",
"450 323 QCURVE SMOOTH",
"446 323 LINE SMOOTH"
);
},
{
closed = 1;
nodes = (
"9 451 OFFCURVE",
"-63 525 OFFCURVE",
"-63 627 OFFCURVE",
"9 701 OFFCURVE",
"62 701 QCURVE SMOOTH",
"66 701 LINE SMOOTH",
"119 701 OFFCURVE",
"191 627 OFFCURVE",
"191 525 OFFCURVE",
"119 451 OFFCURVE",
"66 451 QCURVE SMOOTH",
"62 451 LINE SMOOTH"
);
},
{
closed = 1;
nodes = (
"273 451 OFFCURVE",
"193 525 OFFCURVE",
"193 627 OFFCURVE",
"273 701 OFFCURVE",
"343 701 QCURVE SMOOTH",
"425 701 LINE SMOOTH",
"495 701 OFFCURVE",
"575 627 OFFCURVE",
"575 525 OFFCURVE",
"495 451 OFFCURVE",
"425 451 QCURVE SMOOTH",
"343 451 LINE SMOOTH"
);
},
{
closed = 1;
nodes = (
"73 579 OFFCURVE",
"1 653 OFFCURVE",
"1 755 OFFCURVE",
"73 829 OFFCURVE",
"126 829 QCURVE SMOOTH",
"130 829 LINE SMOOTH",
"183 829 OFFCURVE",
"255 755 OFFCURVE",
"255 653 OFFCURVE",
"183 579 OFFCURVE",
"130 579 QCURVE SMOOTH",
"126 579 LINE SMOOTH"
);
},
{
closed = 1;
nodes = (
"329 579 OFFCURVE",
"257 653 OFFCURVE",
"257 755 OFFCURVE",
"329 829 OFFCURVE",
"382 829 QCURVE SMOOTH",
"386 829 LINE SMOOTH",
"439 829 OFFCURVE",
"511 755 OFFCURVE",
"511 653 OFFCURVE",
"439 579 OFFCURVE",
"386 579 QCURVE SMOOTH",
"382 579 LINE SMOOTH"
);
},
{
closed = 1;
nodes = (
"145 707 OFFCURVE",
"65 781 OFFCURVE",
"65 883 OFFCURVE",
"145 957 OFFCURVE",
"215 957 QCURVE SMOOTH",
"297 957 LINE SMOOTH",
"367 957 OFFCURVE",
"447 883 OFFCURVE",
"447 781 OFFCURVE",
"367 707 OFFCURVE",
"297 707 QCURVE SMOOTH",
"215 707 LINE SMOOTH"
);
},
{
closed = 1;
nodes = (
"457 707 OFFCURVE",
"385 781 OFFCURVE",
"385 883 OFFCURVE",
"457 957 OFFCURVE",
"510 957 QCURVE SMOOTH",
"450 957 LINE SMOOTH",
"503 957 OFFCURVE",
"575 883 OFFCURVE",
"575 781 OFFCURVE",
"503 707 OFFCURVE",
"450 707 QCURVE SMOOTH",
"510 707 LINE SMOOTH"
);
}
);
};
components = (
{
name = pixel.1;
},
{
name = pixel.4;
transform = "{1, 0, 0, 1, 128, 0}";
},
{
name = pixel.2;
transform = "{1, 0, 0, 1, 64, 128}";
},
{
name = pixel.2;
transform = "{1, 0, 0, 1, 320, 128}";
},
{
name = pixel.4;
transform = "{1, 0, 0, 1, 0, 256}";
},
{
name = pixel.2;
transform = "{1, 0, 0, 1, 384, 256}";
},
{
name = pixel.2;
transform = "{1, 0, 0, 1, 0, 384}";
},
{
name = pixel.2;
transform = "{1, 0, 0, 1, 192, 384}";
},
{
name = pixel.2;
transform = "{1, 0, 0, 1, 384, 384}";
},
{
name = pixel.2;
transform = "{1, 0, 0, 1, 0, 512}";
},
{
name = pixel.4;
transform = "{1, 0, 0, 1, 256, 512}";
},
{
name = pixel.2;
transform = "{1, 0, 0, 1, 64, 640}";
},
{
name = pixel.2;
transform = "{1, 0, 0, 1, 320, 640}";
},
{
name = pixel.4;
transform = "{1, 0, 0, 1, 128, 768}";
},
{
name = pixel.1;
transform = "{1, 0, 0, 1, 448, 768}";
}
);
layerId = "164C8123-3F0E-4C99-877D-0E85C432A9CE";
width = 512;
},
{
components = (
{
name = pixel.1;
},
{
name = pixel.4;
transform = "{1, 0, 0, 1, 128, 0}";
},
{
name = pixel.2;
transform = "{1, 0, 0, 1, 64, 128}";
},
{
name = pixel.2;
transform = "{1, 0, 0, 1, 320, 128}";
},
{
name = pixel.4;
transform = "{1, 0, 0, 1, 0, 256}";
},
{
name = pixel.2;
transform = "{1, 0, 0, 1, 384, 256}";
},
{
name = pixel.2;
transform = "{1, 0, 0, 1, 0, 384}";
},
{
name = pixel.2;
transform = "{1, 0, 0, 1, 192, 384}";
},
{
name = pixel.2;
transform = "{1, 0, 0, 1, 384, 384}";
},
{
name = pixel.2;
transform = "{1, 0, 0, 1, 0, 512}";
},
{
name = pixel.4;
transform = "{1, 0, 0, 1, 256, 512}";
},
{
name = pixel.2;
transform = "{1, 0, 0, 1, 64, 640}";
},
{
name = pixel.2;
transform = "{1, 0, 0, 1, 320, 640}";
},
{
name = pixel.4;
transform = "{1, 0, 0, 1, 128, 768}";
},
{
name = pixel.1;
transform = "{1, 0, 0, 1, 448, 768}";
}
);
layerId = "EDC3ADDC-530C-4ECE-AAC6-732B149A8D4A";
width = 512;
},
{
components = (
{
name = pixel.1;
},
{
name = pixel.4;
transform = "{1, 0, 0, 1, 128, 0}";
},
{
name = pixel.2;
transform = "{1, 0, 0, 1, 64, 128}";
},
{
name = pixel.2;
transform = "{1, 0, 0, 1, 320, 128}";
},
{
name = pixel.4;
transform = "{1, 0, 0, 1, 0, 256}";
},
{
name = pixel.2;
transform = "{1, 0, 0, 1, 384, 256}";
},
{
name = pixel.2;
transform = "{1, 0, 0, 1, 0, 384}";
},
{
name = pixel.2;
transform = "{1, 0, 0, 1, 192, 384}";
},
{
name = pixel.2;
transform = "{1, 0, 0, 1, 384, 384}";
},
{
name = pixel.2;
transform = "{1, 0, 0, 1, 0, 512}";
},
{
name = pixel.4;
transform = "{1, 0, 0, 1, 256, 512}";
},
{
name = pixel.2;
transform = "{1, 0, 0, 1, 64, 640}";
},
{
name = pixel.2;
transform = "{1, 0, 0, 1, 320, 640}";
},
{
name = pixel.4;
transform = "{1, 0, 0, 1, 128, 768}";
},
{
name = pixel.1;
transform = "{1, 0, 0, 1, 448, 768}";
}
);
layerId = "38088322-78A3-4F4F-B46E-F8355B0BCD96";
width = 512;
}
);
unicode = 00D8;
},
{
glyphname = T;
layers = (
{
components = (
{
name = pixel.4;
transform = "{1, 0, 0, 1, 128, 0}";
},
{
name = pixel.2;
transform = "{1, 0, 0, 1, 192, 128}";
},
{
name = pixel.2;
transform = "{1, 0, 0, 1, 192, 256}";
},
{
name = pixel.2;
transform = "{1, 0, 0, 1, 192, 384}";
},
{
name = pixel.2;
transform = "{1, 0, 0, 1, 192, 512}";
},
{
name = pixel.1;
transform = "{1, 0, 0, 1, 64, 640}";
},
{
name = pixel.2;
transform = "{1, 0, 0, 1, 192, 640}";
},
{
name = pixel.1;
transform = "{1, 0, 0, 1, 384, 640}";
},
{
name = pixel.6;
transform = "{1, 0, 0, 1, 64, 768}";
}
);
layerId = "EF047752-ED93-49D3-A4D1-D66A6AAE90C7";
width = 512;
},
{
background = {
paths = (
{
closed = 1;
nodes = (
"145 -61 OFFCURVE",
"65 13 OFFCURVE",
"65 115 OFFCURVE",
"145 189 OFFCURVE",
"215 189 QCURVE SMOOTH",
"297 189 LINE SMOOTH",
"367 189 OFFCURVE",
"447 115 OFFCURVE",
"447 13 OFFCURVE",
"367 -61 OFFCURVE",
"297 -61 QCURVE SMOOTH",
"215 -61 LINE SMOOTH"
);
},
{
closed = 1;
nodes = (
"201 67 OFFCURVE",
"129 141 OFFCURVE",
"129 243 OFFCURVE",
"201 317 OFFCURVE",
"254 317 QCURVE SMOOTH",
"258 317 LINE SMOOTH",
"311 317 OFFCURVE",
"383 243 OFFCURVE",
"383 141 OFFCURVE",
"311 67 OFFCURVE",
"258 67 QCURVE SMOOTH",
"254 67 LINE SMOOTH"
);
},
{
closed = 1;
nodes = (
"201 195 OFFCURVE",
"129 269 OFFCURVE",
"129 371 OFFCURVE",
"201 445 OFFCURVE",
"254 445 QCURVE SMOOTH",
"258 445 LINE SMOOTH",
"311 445 OFFCURVE",
"383 371 OFFCURVE",
"383 269 OFFCURVE",
"311 195 OFFCURVE",
"258 195 QCURVE SMOOTH",
"254 195 LINE SMOOTH"
);
},
{
closed = 1;
nodes = (
"201 323 OFFCURVE",
"129 397 OFFCURVE",
"129 499 OFFCURVE",
"201 573 OFFCURVE",
"254 573 QCURVE SMOOTH",
"258 573 LINE SMOOTH",
"311 573 OFFCURVE",
"383 499 OFFCURVE",
"383 397 OFFCURVE",
"311 323 OFFCURVE",
"258 323 QCURVE SMOOTH",
"254 323 LINE SMOOTH"
);
},
{
closed = 1;
nodes = (
"201 451 OFFCURVE",
"129 525 OFFCURVE",
"129 627 OFFCURVE",
"201 701 OFFCURVE",
"254 701 QCURVE SMOOTH",
"258 701 LINE SMOOTH",
"311 701 OFFCURVE",
"383 627 OFFCURVE",
"383 525 OFFCURVE",
"311 451 OFFCURVE",
"258 451 QCURVE SMOOTH",
"254 451 LINE SMOOTH"
);
},
{
closed = 1;
nodes = (
"73 579 OFFCURVE",
"1 653 OFFCURVE",
"1 755 OFFCURVE",
"73 829 OFFCURVE",
"126 829 QCURVE SMOOTH",
"66 829 LINE SMOOTH",
"119 829 OFFCURVE",
"191 755 OFFCURVE",
"191 653 OFFCURVE",
"119 579 OFFCURVE",
"66 579 QCURVE SMOOTH",
"126 579 LINE SMOOTH"
);
},
{
closed = 1;
nodes = (
"201 579 OFFCURVE",
"129 653 OFFCURVE",
"129 755 OFFCURVE",
"201 829 OFFCURVE",
"254 829 QCURVE SMOOTH",
"258 829 LINE SMOOTH",
"311 829 OFFCURVE",
"383 755 OFFCURVE",
"383 653 OFFCURVE",
"311 579 OFFCURVE",
"258 579 QCURVE SMOOTH",
"254 579 LINE SMOOTH"
);
},
{
closed = 1;
nodes = (
"393 579 OFFCURVE",
"321 653 OFFCURVE",
"321 755 OFFCURVE",
"393 829 OFFCURVE",
"446 829 QCURVE SMOOTH",
"386 829 LINE SMOOTH",
"439 829 OFFCURVE",
"511 755 OFFCURVE",
"511 653 OFFCURVE",
"439 579 OFFCURVE",
"386 579 QCURVE SMOOTH",
"446 579 LINE SMOOTH"
);
},
{
closed = 1;
nodes = (
"81 707 OFFCURVE",
"1 781 OFFCURVE",
"1 883 OFFCURVE",
"81 957 OFFCURVE",
"151 957 QCURVE SMOOTH",
"361 957 LINE SMOOTH",
"431 957 OFFCURVE",
"511 883 OFFCURVE",
"511 781 OFFCURVE",
"431 707 OFFCURVE",
"361 707 QCURVE SMOOTH",
"151 707 LINE SMOOTH"
);
}
);
};
components = (
{
name = pixel.4;
transform = "{1, 0, 0, 1, 128, 0}";
},
{
name = pixel.2;
transform = "{1, 0, 0, 1, 192, 128}";
},
{
name = pixel.2;
transform = "{1, 0, 0, 1, 192, 256}";
},
{
name = pixel.2;
transform = "{1, 0, 0, 1, 192, 384}";
},
{
name = pixel.2;
transform = "{1, 0, 0, 1, 192, 512}";
},
{
name = pixel.1;
transform = "{1, 0, 0, 1, 64, 640}";
},
{
name = pixel.2;
transform = "{1, 0, 0, 1, 192, 640}";
},
{
name = pixel.1;
transform = "{1, 0, 0, 1, 384, 640}";
},
{
name = pixel.6;
transform = "{1, 0, 0, 1, 64, 768}";
}
);
layerId = "164C8123-3F0E-4C99-877D-0E85C432A9CE";
width = 512;
},
{
components = (
{
name = pixel.4;
transform = "{1, 0, 0, 1, 128, 0}";
},
{
name = pixel.2;
transform = "{1, 0, 0, 1, 192, 128}";
},
{
name = pixel.2;
transform = "{1, 0, 0, 1, 192, 256}";
},
{
name = pixel.2;
transform = "{1, 0, 0, 1, 192, 384}";
},
{
name = pixel.2;
transform = "{1, 0, 0, 1, 192, 512}";
},
{
name = pixel.1;
transform = "{1, 0, 0, 1, 64, 640}";
},
{
name = pixel.2;
transform = "{1, 0, 0, 1, 192, 640}";
},
{
name = pixel.1;
transform = "{1, 0, 0, 1, 384, 640}";
},
{
name = pixel.6;
transform = "{1, 0, 0, 1, 64, 768}";
}
);
layerId = "EDC3ADDC-530C-4ECE-AAC6-732B149A8D4A";
width = 512;
},
{
components = (
{
name = pixel.4;
transform = "{1, 0, 0, 1, 128, 0}";
},
{
name = pixel.2;
transform = "{1, 0, 0, 1, 192, 128}";
},
{
name = pixel.2;
transform = "{1, 0, 0, 1, 192, 256}";
},
{
name = pixel.2;
transform = "{1, 0, 0, 1, 192, 384}";
},
{
name = pixel.2;
transform = "{1, 0, 0, 1, 192, 512}";
},
{
name = pixel.1;
transform = "{1, 0, 0, 1, 64, 640}";
},
{
name = pixel.2;
transform = "{1, 0, 0, 1, 192, 640}";
},
{
name = pixel.1;
transform = "{1, 0, 0, 1, 384, 640}";
},
{
name = pixel.6;
transform = "{1, 0, 0, 1, 64, 768}";
}
);
layerId = "38088322-78A3-4F4F-B46E-F8355B0BCD96";
width = 512;
}
);
unicode = 0054;
},
{
glyphname = W;
layers = (
{
components = (
{
name = pixel.2;
},
{
name = pixel.2;
transform = "{1, 0, 0, 1, 320, 0}";
},
{
name = pixel.3;
transform = "{1, 0, 0, 1, 0, 128}";
},
{
name = pixel.3;
transform = "{1, 0, 0, 1, 256, 128}";
},
{
name = pixel.7;
transform = "{1, 0, 0, 1, 0, 256}";
},
{
name = pixel.2;
transform = "{1, 0, 0, 1, 0, 384}";
},
{
name = pixel.1;
transform = "{1, 0, 0, 1, 192, 384}";
},
{
name = pixel.2;
transform = "{1, 0, 0, 1, 320, 384}";
},
{
name = pixel.2;
transform = "{1, 0, 0, 1, 0, 512}";
},
{
name = pixel.2;
transform = "{1, 0, 0, 1, 320, 512}";
},
{
name = pixel.2;
transform = "{1, 0, 0, 1, 0, 640}";
},
{
name = pixel.2;
transform = "{1, 0, 0, 1, 320, 640}";
},
{
name = pixel.2;
transform = "{1, 0, 0, 1, 0, 768}";
},
{
name = pixel.2;
transform = "{1, 0, 0, 1, 320, 768}";
}
);
layerId = "EF047752-ED93-49D3-A4D1-D66A6AAE90C7";
width = 512;
},
{
background = {
paths = (
{
closed = 1;
nodes = (
"9 -61 OFFCURVE",
"-63 13 OFFCURVE",
"-63 115 OFFCURVE",
"9 189 OFFCURVE",
"62 189 QCURVE SMOOTH",
"66 189 LINE SMOOTH",
"119 189 OFFCURVE",
"191 115 OFFCURVE",
"191 13 OFFCURVE",
"119 -61 OFFCURVE",
"66 -61 QCURVE SMOOTH",
"62 -61 LINE SMOOTH"
);
},
{
closed = 1;
nodes = (
"329 -61 OFFCURVE",
"257 13 OFFCURVE",
"257 115 OFFCURVE",
"329 189 OFFCURVE",
"382 189 QCURVE SMOOTH",
"386 189 LINE SMOOTH",
"439 189 OFFCURVE",
"511 115 OFFCURVE",
"511 13 OFFCURVE",
"439 -61 OFFCURVE",
"386 -61 QCURVE SMOOTH",
"382 -61 LINE SMOOTH"
);
},
{
closed = 1;
nodes = (
"9 67 OFFCURVE",
"-63 141 OFFCURVE",
"-63 243 OFFCURVE",
"9 317 OFFCURVE",
"62 317 QCURVE SMOOTH",
"130 317 LINE SMOOTH",
"183 317 OFFCURVE",
"255 243 OFFCURVE",
"255 141 OFFCURVE",
"183 67 OFFCURVE",
"130 67 QCURVE SMOOTH",
"62 67 LINE SMOOTH"
);
},
{
closed = 1;
nodes = (
"265 67 OFFCURVE",
"193 141 OFFCURVE",
"193 243 OFFCURVE",
"265 317 OFFCURVE",
"318 317 QCURVE SMOOTH",
"386 317 LINE SMOOTH",
"439 317 OFFCURVE",
"511 243 OFFCURVE",
"511 141 OFFCURVE",
"439 67 OFFCURVE",
"386 67 QCURVE SMOOTH",
"318 67 LINE SMOOTH"
);
},
{
closed = 1;
nodes = (
"17 195 OFFCURVE",
"-63 269 OFFCURVE",
"-63 371 OFFCURVE",
"17 445 OFFCURVE",
"87 445 QCURVE SMOOTH",
"361 445 LINE SMOOTH",
"431 445 OFFCURVE",
"511 371 OFFCURVE",
"511 269 OFFCURVE",
"431 195 OFFCURVE",
"361 195 QCURVE SMOOTH",
"87 195 LINE SMOOTH"
);
},
{
closed = 1;
nodes = (
"9 323 OFFCURVE",
"-63 397 OFFCURVE",
"-63 499 OFFCURVE",
"9 573 OFFCURVE",
"62 573 QCURVE SMOOTH",
"66 573 LINE SMOOTH",
"119 573 OFFCURVE",
"191 499 OFFCURVE",
"191 397 OFFCURVE",
"119 323 OFFCURVE",
"66 323 QCURVE SMOOTH",
"62 323 LINE SMOOTH"
);
},
{
closed = 1;
nodes = (
"201 323 OFFCURVE",
"129 397 OFFCURVE",
"129 499 OFFCURVE",
"201 573 OFFCURVE",
"254 573 QCURVE SMOOTH",
"194 573 LINE SMOOTH",
"247 573 OFFCURVE",
"319 499 OFFCURVE",
"319 397 OFFCURVE",
"247 323 OFFCURVE",
"194 323 QCURVE SMOOTH",
"254 323 LINE SMOOTH"
);
},
{
closed = 1;
nodes = (
"329 323 OFFCURVE",
"257 397 OFFCURVE",
"257 499 OFFCURVE",
"329 573 OFFCURVE",
"382 573 QCURVE SMOOTH",
"386 573 LINE SMOOTH",
"439 573 OFFCURVE",
"511 499 OFFCURVE",
"511 397 OFFCURVE",
"439 323 OFFCURVE",
"386 323 QCURVE SMOOTH",
"382 323 LINE SMOOTH"
);
},
{
closed = 1;
nodes = (
"9 451 OFFCURVE",
"-63 525 OFFCURVE",
"-63 627 OFFCURVE",
"9 701 OFFCURVE",
"62 701 QCURVE SMOOTH",
"66 701 LINE SMOOTH",
"119 701 OFFCURVE",
"191 627 OFFCURVE",
"191 525 OFFCURVE",
"119 451 OFFCURVE",
"66 451 QCURVE SMOOTH",
"62 451 LINE SMOOTH"
);
},
{
closed = 1;
nodes = (
"329 451 OFFCURVE",
"257 525 OFFCURVE",
"257 627 OFFCURVE",
"329 701 OFFCURVE",
"382 701 QCURVE SMOOTH",
"386 701 LINE SMOOTH",
"439 701 OFFCURVE",
"511 627 OFFCURVE",
"511 525 OFFCURVE",
"439 451 OFFCURVE",
"386 451 QCURVE SMOOTH",
"382 451 LINE SMOOTH"
);
},
{
closed = 1;
nodes = (
"9 579 OFFCURVE",
"-63 653 OFFCURVE",
"-63 755 OFFCURVE",
"9 829 OFFCURVE",
"62 829 QCURVE SMOOTH",
"66 829 LINE SMOOTH",
"119 829 OFFCURVE",
"191 755 OFFCURVE",
"191 653 OFFCURVE",
"119 579 OFFCURVE",
"66 579 QCURVE SMOOTH",
"62 579 LINE SMOOTH"
);
},
{
closed = 1;
nodes = (
"329 579 OFFCURVE",
"257 653 OFFCURVE",
"257 755 OFFCURVE",
"329 829 OFFCURVE",
"382 829 QCURVE SMOOTH",
"386 829 LINE SMOOTH",
"439 829 OFFCURVE",
"511 755 OFFCURVE",
"511 653 OFFCURVE",
"439 579 OFFCURVE",
"386 579 QCURVE SMOOTH",
"382 579 LINE SMOOTH"
);
},
{
closed = 1;
nodes = (
"9 707 OFFCURVE",
"-63 781 OFFCURVE",
"-63 883 OFFCURVE",
"9 957 OFFCURVE",
"62 957 QCURVE SMOOTH",
"66 957 LINE SMOOTH",
"119 957 OFFCURVE",
"191 883 OFFCURVE",
"191 781 OFFCURVE",
"119 707 OFFCURVE",
"66 707 QCURVE SMOOTH",
"62 707 LINE SMOOTH"
);
},
{
closed = 1;
nodes = (
"329 707 OFFCURVE",
"257 781 OFFCURVE",
"257 883 OFFCURVE",
"329 957 OFFCURVE",
"382 957 QCURVE SMOOTH",
"386 957 LINE SMOOTH",
"439 957 OFFCURVE",
"511 883 OFFCURVE",
"511 781 OFFCURVE",
"439 707 OFFCURVE",
"386 707 QCURVE SMOOTH",
"382 707 LINE SMOOTH"
);
}
);
};
components = (
{
name = pixel.2;
},
{
name = pixel.2;
transform = "{1, 0, 0, 1, 320, 0}";
},
{
name = pixel.3;
transform = "{1, 0, 0, 1, 0, 128}";
},
{
name = pixel.3;
transform = "{1, 0, 0, 1, 256, 128}";
},
{
name = pixel.7;
transform = "{1, 0, 0, 1, 0, 256}";
},
{
name = pixel.2;
transform = "{1, 0, 0, 1, 0, 384}";
},
{
name = pixel.1;
transform = "{1, 0, 0, 1, 192, 384}";
},
{
name = pixel.2;
transform = "{1, 0, 0, 1, 320, 384}";
},
{
name = pixel.2;
transform = "{1, 0, 0, 1, 0, 512}";
},
{
name = pixel.2;
transform = "{1, 0, 0, 1, 320, 512}";
},
{
name = pixel.2;
transform = "{1, 0, 0, 1, 0, 640}";
},
{
name = pixel.2;
transform = "{1, 0, 0, 1, 320, 640}";
},
{
name = pixel.2;
transform = "{1, 0, 0, 1, 0, 768}";
},
{
name = pixel.2;
transform = "{1, 0, 0, 1, 320, 768}";
}
);
layerId = "164C8123-3F0E-4C99-877D-0E85C432A9CE";
width = 512;
},
{
components = (
{
name = pixel.2;
},
{
name = pixel.2;
transform = "{1, 0, 0, 1, 320, 0}";
},
{
name = pixel.3;
transform = "{1, 0, 0, 1, 0, 128}";
},
{
name = pixel.3;
transform = "{1, 0, 0, 1, 256, 128}";
},
{
name = pixel.7;
transform = "{1, 0, 0, 1, 0, 256}";
},
{
name = pixel.2;
transform = "{1, 0, 0, 1, 0, 384}";
},
{
name = pixel.1;
transform = "{1, 0, 0, 1, 192, 384}";
},
{
name = pixel.2;
transform = "{1, 0, 0, 1, 320, 384}";
},
{
name = pixel.2;
transform = "{1, 0, 0, 1, 0, 512}";
},
{
name = pixel.2;
transform = "{1, 0, 0, 1, 320, 512}";
},
{
name = pixel.2;
transform = "{1, 0, 0, 1, 0, 640}";
},
{
name = pixel.2;
transform = "{1, 0, 0, 1, 320, 640}";
},
{
name = pixel.2;
transform = "{1, 0, 0, 1, 0, 768}";
},
{
name = pixel.2;
transform = "{1, 0, 0, 1, 320, 768}";
}
);
layerId = "EDC3ADDC-530C-4ECE-AAC6-732B149A8D4A";
width = 512;
},
{
components = (
{
name = pixel.2;
},
{
name = pixel.2;
transform = "{1, 0, 0, 1, 320, 0}";
},
{
name = pixel.3;
transform = "{1, 0, 0, 1, 0, 128}";
},
{
name = pixel.3;
transform = "{1, 0, 0, 1, 256, 128}";
},
{
name = pixel.7;
transform = "{1, 0, 0, 1, 0, 256}";
},
{
name = pixel.2;
transform = "{1, 0, 0, 1, 0, 384}";
},
{
name = pixel.1;
transform = "{1, 0, 0, 1, 192, 384}";
},
{
name = pixel.2;
transform = "{1, 0, 0, 1, 320, 384}";
},
{
name = pixel.2;
transform = "{1, 0, 0, 1, 0, 512}";
},
{
name = pixel.2;
transform = "{1, 0, 0, 1, 320, 512}";
},
{
name = pixel.2;
transform = "{1, 0, 0, 1, 0, 640}";
},
{
name = pixel.2;
transform = "{1, 0, 0, 1, 320, 640}";
},
{
name = pixel.2;
transform = "{1, 0, 0, 1, 0, 768}";
},
{
name = pixel.2;
transform = "{1, 0, 0, 1, 320, 768}";
}
);
layerId = "38088322-78A3-4F4F-B46E-F8355B0BCD96";
width = 512;
}
);
unicode = 0057;
},
{
glyphname = Z;
layers = (
{
components = (
{
name = pixel.7;
},
{
name = pixel.2;
transform = "{1, 0, 0, 1, 64, 128}";
},
{
name = pixel.2;
transform = "{1, 0, 0, 1, 320, 128}";
},
{
name = pixel.2;
transform = "{1, 0, 0, 1, 128, 256}";
},
{
name = pixel.1;
transform = "{1, 0, 0, 1, 384, 256}";
},
{
name = pixel.2;
transform = "{1, 0, 0, 1, 192, 384}";
},
{
name = pixel.1;
transform = "{1, 0, 0, 1, 0, 512}";
},
{
name = pixel.2;
transform = "{1, 0, 0, 1, 256, 512}";
},
{
name = pixel.2;
transform = "{1, 0, 0, 1, 0, 640}";
},
{
name = pixel.2;
transform = "{1, 0, 0, 1, 320, 640}";
},
{
name = pixel.7;
transform = "{1, 0, 0, 1, 0, 768}";
}
);
layerId = "EF047752-ED93-49D3-A4D1-D66A6AAE90C7";
width = 512;
},
{
background = {
paths = (
{
closed = 1;
nodes = (
"17 -61 OFFCURVE",
"-63 13 OFFCURVE",
"-63 115 OFFCURVE",
"17 189 OFFCURVE",
"87 189 QCURVE SMOOTH",
"361 189 LINE SMOOTH",
"431 189 OFFCURVE",
"511 115 OFFCURVE",
"511 13 OFFCURVE",
"431 -61 OFFCURVE",
"361 -61 QCURVE SMOOTH",
"87 -61 LINE SMOOTH"
);
},
{
closed = 1;
nodes = (
"73 67 OFFCURVE",
"1 141 OFFCURVE",
"1 243 OFFCURVE",
"73 317 OFFCURVE",
"126 317 QCURVE SMOOTH",
"130 317 LINE SMOOTH",
"183 317 OFFCURVE",
"255 243 OFFCURVE",
"255 141 OFFCURVE",
"183 67 OFFCURVE",
"130 67 QCURVE SMOOTH",
"126 67 LINE SMOOTH"
);
},
{
closed = 1;
nodes = (
"329 67 OFFCURVE",
"257 141 OFFCURVE",
"257 243 OFFCURVE",
"329 317 OFFCURVE",
"382 317 QCURVE SMOOTH",
"386 317 LINE SMOOTH",
"439 317 OFFCURVE",
"511 243 OFFCURVE",
"511 141 OFFCURVE",
"439 67 OFFCURVE",
"386 67 QCURVE SMOOTH",
"382 67 LINE SMOOTH"
);
},
{
closed = 1;
nodes = (
"137 195 OFFCURVE",
"65 269 OFFCURVE",
"65 371 OFFCURVE",
"137 445 OFFCURVE",
"190 445 QCURVE SMOOTH",
"194 445 LINE SMOOTH",
"247 445 OFFCURVE",
"319 371 OFFCURVE",
"319 269 OFFCURVE",
"247 195 OFFCURVE",
"194 195 QCURVE SMOOTH",
"190 195 LINE SMOOTH"
);
},
{
closed = 1;
nodes = (
"393 195 OFFCURVE",
"321 269 OFFCURVE",
"321 371 OFFCURVE",
"393 445 OFFCURVE",
"446 445 QCURVE SMOOTH",
"386 445 LINE SMOOTH",
"439 445 OFFCURVE",
"511 371 OFFCURVE",
"511 269 OFFCURVE",
"439 195 OFFCURVE",
"386 195 QCURVE SMOOTH",
"446 195 LINE SMOOTH"
);
},
{
closed = 1;
nodes = (
"201 323 OFFCURVE",
"129 397 OFFCURVE",
"129 499 OFFCURVE",
"201 573 OFFCURVE",
"254 573 QCURVE SMOOTH",
"258 573 LINE SMOOTH",
"311 573 OFFCURVE",
"383 499 OFFCURVE",
"383 397 OFFCURVE",
"311 323 OFFCURVE",
"258 323 QCURVE SMOOTH",
"254 323 LINE SMOOTH"
);
},
{
closed = 1;
nodes = (
"9 451 OFFCURVE",
"-63 525 OFFCURVE",
"-63 627 OFFCURVE",
"9 701 OFFCURVE",
"62 701 QCURVE SMOOTH",
"2 701 LINE SMOOTH",
"55 701 OFFCURVE",
"127 627 OFFCURVE",
"127 525 OFFCURVE",
"55 451 OFFCURVE",
"2 451 QCURVE SMOOTH",
"62 451 LINE SMOOTH"
);
},
{
closed = 1;
nodes = (
"265 451 OFFCURVE",
"193 525 OFFCURVE",
"193 627 OFFCURVE",
"265 701 OFFCURVE",
"318 701 QCURVE SMOOTH",
"322 701 LINE SMOOTH",
"375 701 OFFCURVE",
"447 627 OFFCURVE",
"447 525 OFFCURVE",
"375 451 OFFCURVE",
"322 451 QCURVE SMOOTH",
"318 451 LINE SMOOTH"
);
},
{
closed = 1;
nodes = (
"9 579 OFFCURVE",
"-63 653 OFFCURVE",
"-63 755 OFFCURVE",
"9 829 OFFCURVE",
"62 829 QCURVE SMOOTH",
"66 829 LINE SMOOTH",
"119 829 OFFCURVE",
"191 755 OFFCURVE",
"191 653 OFFCURVE",
"119 579 OFFCURVE",
"66 579 QCURVE SMOOTH",
"62 579 LINE SMOOTH"
);
},
{
closed = 1;
nodes = (
"329 579 OFFCURVE",
"257 653 OFFCURVE",
"257 755 OFFCURVE",
"329 829 OFFCURVE",
"382 829 QCURVE SMOOTH",
"386 829 LINE SMOOTH",
"439 829 OFFCURVE",
"511 755 OFFCURVE",
"511 653 OFFCURVE",
"439 579 OFFCURVE",
"386 579 QCURVE SMOOTH",
"382 579 LINE SMOOTH"
);
},
{
closed = 1;
nodes = (
"17 707 OFFCURVE",
"-63 781 OFFCURVE",
"-63 883 OFFCURVE",
"17 957 OFFCURVE",
"87 957 QCURVE SMOOTH",
"361 957 LINE SMOOTH",
"431 957 OFFCURVE",
"511 883 OFFCURVE",
"511 781 OFFCURVE",
"431 707 OFFCURVE",
"361 707 QCURVE SMOOTH",
"87 707 LINE SMOOTH"
);
}
);
};
components = (
{
name = pixel.7;
},
{
name = pixel.2;
transform = "{1, 0, 0, 1, 64, 128}";
},
{
name = pixel.2;
transform = "{1, 0, 0, 1, 320, 128}";
},
{
name = pixel.2;
transform = "{1, 0, 0, 1, 128, 256}";
},
{
name = pixel.1;
transform = "{1, 0, 0, 1, 384, 256}";
},
{
name = pixel.2;
transform = "{1, 0, 0, 1, 192, 384}";
},
{
name = pixel.1;
transform = "{1, 0, 0, 1, 0, 512}";
},
{
name = pixel.2;
transform = "{1, 0, 0, 1, 256, 512}";
},
{
name = pixel.2;
transform = "{1, 0, 0, 1, 0, 640}";
},
{
name = pixel.2;
transform = "{1, 0, 0, 1, 320, 640}";
},
{
name = pixel.7;
transform = "{1, 0, 0, 1, 0, 768}";
}
);
layerId = "164C8123-3F0E-4C99-877D-0E85C432A9CE";
width = 512;
},
{
components = (
{
name = pixel.7;
},
{
name = pixel.2;
transform = "{1, 0, 0, 1, 64, 128}";
},
{
name = pixel.2;
transform = "{1, 0, 0, 1, 320, 128}";
},
{
name = pixel.2;
transform = "{1, 0, 0, 1, 128, 256}";
},
{
name = pixel.1;
transform = "{1, 0, 0, 1, 384, 256}";
},
{
name = pixel.2;
transform = "{1, 0, 0, 1, 192, 384}";
},
{
name = pixel.1;
transform = "{1, 0, 0, 1, 0, 512}";
},
{
name = pixel.2;
transform = "{1, 0, 0, 1, 256, 512}";
},
{
name = pixel.2;
transform = "{1, 0, 0, 1, 0, 640}";
},
{
name = pixel.2;
transform = "{1, 0, 0, 1, 320, 640}";
},
{
name = pixel.7;
transform = "{1, 0, 0, 1, 0, 768}";
}
);
layerId = "EDC3ADDC-530C-4ECE-AAC6-732B149A8D4A";
width = 512;
},
{
components = (
{
name = pixel.7;
},
{
name = pixel.2;
transform = "{1, 0, 0, 1, 64, 128}";
},
{
name = pixel.2;
transform = "{1, 0, 0, 1, 320, 128}";
},
{
name = pixel.2;
transform = "{1, 0, 0, 1, 128, 256}";
},
{
name = pixel.1;
transform = "{1, 0, 0, 1, 384, 256}";
},
{
name = pixel.2;
transform = "{1, 0, 0, 1, 192, 384}";
},
{
name = pixel.1;
transform = "{1, 0, 0, 1, 0, 512}";
},
{
name = pixel.2;
transform = "{1, 0, 0, 1, 256, 512}";
},
{
name = pixel.2;
transform = "{1, 0, 0, 1, 0, 640}";
},
{
name = pixel.2;
transform = "{1, 0, 0, 1, 320, 640}";
},
{
name = pixel.7;
transform = "{1, 0, 0, 1, 0, 768}";
}
);
layerId = "38088322-78A3-4F4F-B46E-F8355B0BCD96";
width = 512;
}
);
unicode = 005A;
},
{
glyphname = ccedilla;
layers = (
{
components = (
{
name = pixel.1;
transform = "{1, 0, 0, 1, 192, -128}";
},
{
name = pixel.4;
transform = "{1, 0, 0, 1, 128, 0}";
},
{
name = pixel.2;
transform = "{1, 0, 0, 1, 64, 128}";
},
{
name = pixel.2;
transform = "{1, 0, 0, 1, 320, 128}";
},
{
name = pixel.2;
transform = "{1, 0, 0, 1, 64, 256}";
},
{
name = pixel.2;
transform = "{1, 0, 0, 1, 64, 384}";
},
{
name = pixel.2;
transform = "{1, 0, 0, 1, 320, 384}";
},
{
name = pixel.4;
transform = "{1, 0, 0, 1, 128, 512}";
}
);
layerId = "EF047752-ED93-49D3-A4D1-D66A6AAE90C7";
width = 512;
},
{
background = {
paths = (
{
closed = 1;
nodes = (
"201 -189 OFFCURVE",
"129 -115 OFFCURVE",
"129 -13 OFFCURVE",
"201 61 OFFCURVE",
"254 61 QCURVE SMOOTH",
"194 61 LINE SMOOTH",
"247 61 OFFCURVE",
"319 -13 OFFCURVE",
"319 -115 OFFCURVE",
"247 -189 OFFCURVE",
"194 -189 QCURVE SMOOTH",
"254 -189 LINE SMOOTH"
);
},
{
closed = 1;
nodes = (
"145 -61 OFFCURVE",
"65 13 OFFCURVE",
"65 115 OFFCURVE",
"145 189 OFFCURVE",
"215 189 QCURVE SMOOTH",
"297 189 LINE SMOOTH",
"367 189 OFFCURVE",
"447 115 OFFCURVE",
"447 13 OFFCURVE",
"367 -61 OFFCURVE",
"297 -61 QCURVE SMOOTH",
"215 -61 LINE SMOOTH"
);
},
{
closed = 1;
nodes = (
"73 67 OFFCURVE",
"1 141 OFFCURVE",
"1 243 OFFCURVE",
"73 317 OFFCURVE",
"126 317 QCURVE SMOOTH",
"130 317 LINE SMOOTH",
"183 317 OFFCURVE",
"255 243 OFFCURVE",
"255 141 OFFCURVE",
"183 67 OFFCURVE",
"130 67 QCURVE SMOOTH",
"126 67 LINE SMOOTH"
);
},
{
closed = 1;
nodes = (
"329 67 OFFCURVE",
"257 141 OFFCURVE",
"257 243 OFFCURVE",
"329 317 OFFCURVE",
"382 317 QCURVE SMOOTH",
"386 317 LINE SMOOTH",
"439 317 OFFCURVE",
"511 243 OFFCURVE",
"511 141 OFFCURVE",
"439 67 OFFCURVE",
"386 67 QCURVE SMOOTH",
"382 67 LINE SMOOTH"
);
},
{
closed = 1;
nodes = (
"73 195 OFFCURVE",
"1 269 OFFCURVE",
"1 371 OFFCURVE",
"73 445 OFFCURVE",
"126 445 QCURVE SMOOTH",
"130 445 LINE SMOOTH",
"183 445 OFFCURVE",
"255 371 OFFCURVE",
"255 269 OFFCURVE",
"183 195 OFFCURVE",
"130 195 QCURVE SMOOTH",
"126 195 LINE SMOOTH"
);
},
{
closed = 1;
nodes = (
"73 323 OFFCURVE",
"1 397 OFFCURVE",
"1 499 OFFCURVE",
"73 573 OFFCURVE",
"126 573 QCURVE SMOOTH",
"130 573 LINE SMOOTH",
"183 573 OFFCURVE",
"255 499 OFFCURVE",
"255 397 OFFCURVE",
"183 323 OFFCURVE",
"130 323 QCURVE SMOOTH",
"126 323 LINE SMOOTH"
);
},
{
closed = 1;
nodes = (
"329 323 OFFCURVE",
"257 397 OFFCURVE",
"257 499 OFFCURVE",
"329 573 OFFCURVE",
"382 573 QCURVE SMOOTH",
"386 573 LINE SMOOTH",
"439 573 OFFCURVE",
"511 499 OFFCURVE",
"511 397 OFFCURVE",
"439 323 OFFCURVE",
"386 323 QCURVE SMOOTH",
"382 323 LINE SMOOTH"
);
},
{
closed = 1;
nodes = (
"145 451 OFFCURVE",
"65 525 OFFCURVE",
"65 627 OFFCURVE",
"145 701 OFFCURVE",
"215 701 QCURVE SMOOTH",
"297 701 LINE SMOOTH",
"367 701 OFFCURVE",
"447 627 OFFCURVE",
"447 525 OFFCURVE",
"367 451 OFFCURVE",
"297 451 QCURVE SMOOTH",
"215 451 LINE SMOOTH"
);
}
);
};
components = (
{
name = pixel.1;
transform = "{1, 0, 0, 1, 192, -128}";
},
{
name = pixel.4;
transform = "{1, 0, 0, 1, 128, 0}";
},
{
name = pixel.2;
transform = "{1, 0, 0, 1, 64, 128}";
},
{
name = pixel.2;
transform = "{1, 0, 0, 1, 320, 128}";
},
{
name = pixel.2;
transform = "{1, 0, 0, 1, 64, 256}";
},
{
name = pixel.2;
transform = "{1, 0, 0, 1, 64, 384}";
},
{
name = pixel.2;
transform = "{1, 0, 0, 1, 320, 384}";
},
{
name = pixel.4;
transform = "{1, 0, 0, 1, 128, 512}";
}
);
layerId = "164C8123-3F0E-4C99-877D-0E85C432A9CE";
width = 512;
},
{
components = (
{
name = pixel.1;
transform = "{1, 0, 0, 1, 192, -128}";
},
{
name = pixel.4;
transform = "{1, 0, 0, 1, 128, 0}";
},
{
name = pixel.2;
transform = "{1, 0, 0, 1, 64, 128}";
},
{
name = pixel.2;
transform = "{1, 0, 0, 1, 320, 128}";
},
{
name = pixel.2;
transform = "{1, 0, 0, 1, 64, 256}";
},
{
name = pixel.2;
transform = "{1, 0, 0, 1, 64, 384}";
},
{
name = pixel.2;
transform = "{1, 0, 0, 1, 320, 384}";
},
{
name = pixel.4;
transform = "{1, 0, 0, 1, 128, 512}";
}
);
layerId = "EDC3ADDC-530C-4ECE-AAC6-732B149A8D4A";
width = 512;
},
{
components = (
{
name = pixel.1;
transform = "{1, 0, 0, 1, 192, -128}";
},
{
name = pixel.4;
transform = "{1, 0, 0, 1, 128, 0}";
},
{
name = pixel.2;
transform = "{1, 0, 0, 1, 64, 128}";
},
{
name = pixel.2;
transform = "{1, 0, 0, 1, 320, 128}";
},
{
name = pixel.2;
transform = "{1, 0, 0, 1, 64, 256}";
},
{
name = pixel.2;
transform = "{1, 0, 0, 1, 64, 384}";
},
{
name = pixel.2;
transform = "{1, 0, 0, 1, 320, 384}";
},
{
name = pixel.4;
transform = "{1, 0, 0, 1, 128, 512}";
}
);
layerId = "38088322-78A3-4F4F-B46E-F8355B0BCD96";
width = 512;
}
);
unicode = 00E7;
},
{
glyphname = m;
layers = (
{
components = (
{
name = pixel.2;
transform = "{1, 0, 0, 1, 64, 0}";
},
{
name = pixel.2;
transform = "{1, 0, 0, 1, 384, 0}";
},
{
name = pixel.2;
transform = "{1, 0, 0, 1, 64, 128}";
},
{
name = pixel.2;
transform = "{1, 0, 0, 1, 384, 128}";
},
{
name = pixel.2;
transform = "{1, 0, 0, 1, 64, 256}";
},
{
name = pixel.1;
transform = "{1, 0, 0, 1, 256, 256}";
},
{
name = pixel.2;
transform = "{1, 0, 0, 1, 384, 256}";
},
{
name = pixel.3;
transform = "{1, 0, 0, 1, 64, 384}";
},
{
name = pixel.3;
transform = "{1, 0, 0, 1, 320, 384}";
},
{
name = pixel.2;
transform = "{1, 0, 0, 1, 64, 512}";
},
{
name = pixel.2;
transform = "{1, 0, 0, 1, 320, 512}";
}
);
layerId = "EF047752-ED93-49D3-A4D1-D66A6AAE90C7";
width = 512;
},
{
background = {
paths = (
{
closed = 1;
nodes = (
"73 -61 OFFCURVE",
"1 13 OFFCURVE",
"1 115 OFFCURVE",
"73 189 OFFCURVE",
"126 189 QCURVE SMOOTH",
"130 189 LINE SMOOTH",
"183 189 OFFCURVE",
"255 115 OFFCURVE",
"255 13 OFFCURVE",
"183 -61 OFFCURVE",
"130 -61 QCURVE SMOOTH",
"126 -61 LINE SMOOTH"
);
},
{
closed = 1;
nodes = (
"393 -61 OFFCURVE",
"321 13 OFFCURVE",
"321 115 OFFCURVE",
"393 189 OFFCURVE",
"446 189 QCURVE SMOOTH",
"450 189 LINE SMOOTH",
"503 189 OFFCURVE",
"575 115 OFFCURVE",
"575 13 OFFCURVE",
"503 -61 OFFCURVE",
"450 -61 QCURVE SMOOTH",
"446 -61 LINE SMOOTH"
);
},
{
closed = 1;
nodes = (
"73 67 OFFCURVE",
"1 141 OFFCURVE",
"1 243 OFFCURVE",
"73 317 OFFCURVE",
"126 317 QCURVE SMOOTH",
"130 317 LINE SMOOTH",
"183 317 OFFCURVE",
"255 243 OFFCURVE",
"255 141 OFFCURVE",
"183 67 OFFCURVE",
"130 67 QCURVE SMOOTH",
"126 67 LINE SMOOTH"
);
},
{
closed = 1;
nodes = (
"393 67 OFFCURVE",
"321 141 OFFCURVE",
"321 243 OFFCURVE",
"393 317 OFFCURVE",
"446 317 QCURVE SMOOTH",
"450 317 LINE SMOOTH",
"503 317 OFFCURVE",
"575 243 OFFCURVE",
"575 141 OFFCURVE",
"503 67 OFFCURVE",
"450 67 QCURVE SMOOTH",
"446 67 LINE SMOOTH"
);
},
{
closed = 1;
nodes = (
"73 195 OFFCURVE",
"1 269 OFFCURVE",
"1 371 OFFCURVE",
"73 445 OFFCURVE",
"126 445 QCURVE SMOOTH",
"130 445 LINE SMOOTH",
"183 445 OFFCURVE",
"255 371 OFFCURVE",
"255 269 OFFCURVE",
"183 195 OFFCURVE",
"130 195 QCURVE SMOOTH",
"126 195 LINE SMOOTH"
);
},
{
closed = 1;
nodes = (
"265 195 OFFCURVE",
"193 269 OFFCURVE",
"193 371 OFFCURVE",
"265 445 OFFCURVE",
"318 445 QCURVE SMOOTH",
"258 445 LINE SMOOTH",
"311 445 OFFCURVE",
"383 371 OFFCURVE",
"383 269 OFFCURVE",
"311 195 OFFCURVE",
"258 195 QCURVE SMOOTH",
"318 195 LINE SMOOTH"
);
},
{
closed = 1;
nodes = (
"393 195 OFFCURVE",
"321 269 OFFCURVE",
"321 371 OFFCURVE",
"393 445 OFFCURVE",
"446 445 QCURVE SMOOTH",
"450 445 LINE SMOOTH",
"503 445 OFFCURVE",
"575 371 OFFCURVE",
"575 269 OFFCURVE",
"503 195 OFFCURVE",
"450 195 QCURVE SMOOTH",
"446 195 LINE SMOOTH"
);
},
{
closed = 1;
nodes = (
"73 323 OFFCURVE",
"1 397 OFFCURVE",
"1 499 OFFCURVE",
"73 573 OFFCURVE",
"126 573 QCURVE SMOOTH",
"194 573 LINE SMOOTH",
"247 573 OFFCURVE",
"319 499 OFFCURVE",
"319 397 OFFCURVE",
"247 323 OFFCURVE",
"194 323 QCURVE SMOOTH",
"126 323 LINE SMOOTH"
);
},
{
closed = 1;
nodes = (
"329 323 OFFCURVE",
"257 397 OFFCURVE",
"257 499 OFFCURVE",
"329 573 OFFCURVE",
"382 573 QCURVE SMOOTH",
"450 573 LINE SMOOTH",
"503 573 OFFCURVE",
"575 499 OFFCURVE",
"575 397 OFFCURVE",
"503 323 OFFCURVE",
"450 323 QCURVE SMOOTH",
"382 323 LINE SMOOTH"
);
},
{
closed = 1;
nodes = (
"73 451 OFFCURVE",
"1 525 OFFCURVE",
"1 627 OFFCURVE",
"73 701 OFFCURVE",
"126 701 QCURVE SMOOTH",
"130 701 LINE SMOOTH",
"183 701 OFFCURVE",
"255 627 OFFCURVE",
"255 525 OFFCURVE",
"183 451 OFFCURVE",
"130 451 QCURVE SMOOTH",
"126 451 LINE SMOOTH"
);
},
{
closed = 1;
nodes = (
"329 451 OFFCURVE",
"257 525 OFFCURVE",
"257 627 OFFCURVE",
"329 701 OFFCURVE",
"382 701 QCURVE SMOOTH",
"386 701 LINE SMOOTH",
"439 701 OFFCURVE",
"511 627 OFFCURVE",
"511 525 OFFCURVE",
"439 451 OFFCURVE",
"386 451 QCURVE SMOOTH",
"382 451 LINE SMOOTH"
);
}
);
};
components = (
{
name = pixel.2;
transform = "{1, 0, 0, 1, 64, 0}";
},
{
name = pixel.2;
transform = "{1, 0, 0, 1, 384, 0}";
},
{
name = pixel.2;
transform = "{1, 0, 0, 1, 64, 128}";
},
{
name = pixel.2;
transform = "{1, 0, 0, 1, 384, 128}";
},
{
name = pixel.2;
transform = "{1, 0, 0, 1, 64, 256}";
},
{
name = pixel.1;
transform = "{1, 0, 0, 1, 256, 256}";
},
{
name = pixel.2;
transform = "{1, 0, 0, 1, 384, 256}";
},
{
name = pixel.3;
transform = "{1, 0, 0, 1, 64, 384}";
},
{
name = pixel.3;
transform = "{1, 0, 0, 1, 320, 384}";
},
{
name = pixel.2;
transform = "{1, 0, 0, 1, 64, 512}";
},
{
name = pixel.2;
transform = "{1, 0, 0, 1, 320, 512}";
}
);
layerId = "164C8123-3F0E-4C99-877D-0E85C432A9CE";
width = 512;
},
{
components = (
{
name = pixel.2;
transform = "{1, 0, 0, 1, 64, 0}";
},
{
name = pixel.2;
transform = "{1, 0, 0, 1, 384, 0}";
},
{
name = pixel.2;
transform = "{1, 0, 0, 1, 64, 128}";
},
{
name = pixel.2;
transform = "{1, 0, 0, 1, 384, 128}";
},
{
name = pixel.2;
transform = "{1, 0, 0, 1, 64, 256}";
},
{
name = pixel.1;
transform = "{1, 0, 0, 1, 256, 256}";
},
{
name = pixel.2;
transform = "{1, 0, 0, 1, 384, 256}";
},
{
name = pixel.3;
transform = "{1, 0, 0, 1, 64, 384}";
},
{
name = pixel.3;
transform = "{1, 0, 0, 1, 320, 384}";
},
{
name = pixel.2;
transform = "{1, 0, 0, 1, 64, 512}";
},
{
name = pixel.2;
transform = "{1, 0, 0, 1, 320, 512}";
}
);
layerId = "EDC3ADDC-530C-4ECE-AAC6-732B149A8D4A";
width = 512;
},
{
components = (
{
name = pixel.2;
transform = "{1, 0, 0, 1, 64, 0}";
},
{
name = pixel.2;
transform = "{1, 0, 0, 1, 384, 0}";
},
{
name = pixel.2;
transform = "{1, 0, 0, 1, 64, 128}";
},
{
name = pixel.2;
transform = "{1, 0, 0, 1, 384, 128}";
},
{
name = pixel.2;
transform = "{1, 0, 0, 1, 64, 256}";
},
{
name = pixel.1;
transform = "{1, 0, 0, 1, 256, 256}";
},
{
name = pixel.2;
transform = "{1, 0, 0, 1, 384, 256}";
},
{
name = pixel.3;
transform = "{1, 0, 0, 1, 64, 384}";
},
{
name = pixel.3;
transform = "{1, 0, 0, 1, 320, 384}";
},
{
name = pixel.2;
transform = "{1, 0, 0, 1, 64, 512}";
},
{
name = pixel.2;
transform = "{1, 0, 0, 1, 320, 512}";
}
);
layerId = "38088322-78A3-4F4F-B46E-F8355B0BCD96";
width = 512;
}
);
unicode = 006D;
},
{
glyphname = oslash;
layers = (
{
components = (
{
name = pixel.1;
transform = "{1, 0, 0, 1, 64, -128}";
},
{
name = pixel.5;
transform = "{1, 0, 0, 1, 128, 0}";
},
{
name = pixel.3;
transform = "{1, 0, 0, 1, 64, 128}";
},
{
name = pixel.2;
transform = "{1, 0, 0, 1, 384, 128}";
},
{
name = pixel.2;
transform = "{1, 0, 0, 1, 64, 256}";
},
{
name = pixel.1;
transform = "{1, 0, 0, 1, 256, 256}";
},
{
name = pixel.2;
transform = "{1, 0, 0, 1, 384, 256}";
},
{
name = pixel.2;
transform = "{1, 0, 0, 1, 64, 384}";
},
{
name = pixel.3;
transform = "{1, 0, 0, 1, 320, 384}";
},
{
name = pixel.5;
transform = "{1, 0, 0, 1, 128, 512}";
},
{
name = pixel.1;
transform = "{1, 0, 0, 1, 448, 640}";
}
);
layerId = "EF047752-ED93-49D3-A4D1-D66A6AAE90C7";
width = 512;
},
{
background = {
paths = (
{
closed = 1;
nodes = (
"73 -189 OFFCURVE",
"1 -115 OFFCURVE",
"1 -13 OFFCURVE",
"73 61 OFFCURVE",
"126 61 QCURVE SMOOTH",
"66 61 LINE SMOOTH",
"119 61 OFFCURVE",
"191 -13 OFFCURVE",
"191 -115 OFFCURVE",
"119 -189 OFFCURVE",
"66 -189 QCURVE SMOOTH",
"126 -189 LINE SMOOTH"
);
},
{
closed = 1;
nodes = (
"145 -61 OFFCURVE",
"65 13 OFFCURVE",
"65 115 OFFCURVE",
"145 189 OFFCURVE",
"215 189 QCURVE SMOOTH",
"361 189 LINE SMOOTH",
"431 189 OFFCURVE",
"511 115 OFFCURVE",
"511 13 OFFCURVE",
"431 -61 OFFCURVE",
"361 -61 QCURVE SMOOTH",
"215 -61 LINE SMOOTH"
);
},
{
closed = 1;
nodes = (
"73 67 OFFCURVE",
"1 141 OFFCURVE",
"1 243 OFFCURVE",
"73 317 OFFCURVE",
"126 317 QCURVE SMOOTH",
"194 317 LINE SMOOTH",
"247 317 OFFCURVE",
"319 243 OFFCURVE",
"319 141 OFFCURVE",
"247 67 OFFCURVE",
"194 67 QCURVE SMOOTH",
"126 67 LINE SMOOTH"
);
},
{
closed = 1;
nodes = (
"393 67 OFFCURVE",
"321 141 OFFCURVE",
"321 243 OFFCURVE",
"393 317 OFFCURVE",
"446 317 QCURVE SMOOTH",
"450 317 LINE SMOOTH",
"503 317 OFFCURVE",
"575 243 OFFCURVE",
"575 141 OFFCURVE",
"503 67 OFFCURVE",
"450 67 QCURVE SMOOTH",
"446 67 LINE SMOOTH"
);
},
{
closed = 1;
nodes = (
"73 195 OFFCURVE",
"1 269 OFFCURVE",
"1 371 OFFCURVE",
"73 445 OFFCURVE",
"126 445 QCURVE SMOOTH",
"130 445 LINE SMOOTH",
"183 445 OFFCURVE",
"255 371 OFFCURVE",
"255 269 OFFCURVE",
"183 195 OFFCURVE",
"130 195 QCURVE SMOOTH",
"126 195 LINE SMOOTH"
);
},
{
closed = 1;
nodes = (
"265 195 OFFCURVE",
"193 269 OFFCURVE",
"193 371 OFFCURVE",
"265 445 OFFCURVE",
"318 445 QCURVE SMOOTH",
"258 445 LINE SMOOTH",
"311 445 OFFCURVE",
"383 371 OFFCURVE",
"383 269 OFFCURVE",
"311 195 OFFCURVE",
"258 195 QCURVE SMOOTH",
"318 195 LINE SMOOTH"
);
},
{
closed = 1;
nodes = (
"393 195 OFFCURVE",
"321 269 OFFCURVE",
"321 371 OFFCURVE",
"393 445 OFFCURVE",
"446 445 QCURVE SMOOTH",
"450 445 LINE SMOOTH",
"503 445 OFFCURVE",
"575 371 OFFCURVE",
"575 269 OFFCURVE",
"503 195 OFFCURVE",
"450 195 QCURVE SMOOTH",
"446 195 LINE SMOOTH"
);
},
{
closed = 1;
nodes = (
"73 323 OFFCURVE",
"1 397 OFFCURVE",
"1 499 OFFCURVE",
"73 573 OFFCURVE",
"126 573 QCURVE SMOOTH",
"130 573 LINE SMOOTH",
"183 573 OFFCURVE",
"255 499 OFFCURVE",
"255 397 OFFCURVE",
"183 323 OFFCURVE",
"130 323 QCURVE SMOOTH",
"126 323 LINE SMOOTH"
);
},
{
closed = 1;
nodes = (
"329 323 OFFCURVE",
"257 397 OFFCURVE",
"257 499 OFFCURVE",
"329 573 OFFCURVE",
"382 573 QCURVE SMOOTH",
"450 573 LINE SMOOTH",
"503 573 OFFCURVE",
"575 499 OFFCURVE",
"575 397 OFFCURVE",
"503 323 OFFCURVE",
"450 323 QCURVE SMOOTH",
"382 323 LINE SMOOTH"
);
},
{
closed = 1;
nodes = (
"145 451 OFFCURVE",
"65 525 OFFCURVE",
"65 627 OFFCURVE",
"145 701 OFFCURVE",
"215 701 QCURVE SMOOTH",
"361 701 LINE SMOOTH",
"431 701 OFFCURVE",
"511 627 OFFCURVE",
"511 525 OFFCURVE",
"431 451 OFFCURVE",
"361 451 QCURVE SMOOTH",
"215 451 LINE SMOOTH"
);
},
{
closed = 1;
nodes = (
"457 579 OFFCURVE",
"385 653 OFFCURVE",
"385 755 OFFCURVE",
"457 829 OFFCURVE",
"510 829 QCURVE SMOOTH",
"450 829 LINE SMOOTH",
"503 829 OFFCURVE",
"575 755 OFFCURVE",
"575 653 OFFCURVE",
"503 579 OFFCURVE",
"450 579 QCURVE SMOOTH",
"510 579 LINE SMOOTH"
);
}
);
};
components = (
{
name = pixel.1;
transform = "{1, 0, 0, 1, 64, -128}";
},
{
name = pixel.5;
transform = "{1, 0, 0, 1, 128, 0}";
},
{
name = pixel.3;
transform = "{1, 0, 0, 1, 64, 128}";
},
{
name = pixel.2;
transform = "{1, 0, 0, 1, 384, 128}";
},
{
name = pixel.2;
transform = "{1, 0, 0, 1, 64, 256}";
},
{
name = pixel.1;
transform = "{1, 0, 0, 1, 256, 256}";
},
{
name = pixel.2;
transform = "{1, 0, 0, 1, 384, 256}";
},
{
name = pixel.2;
transform = "{1, 0, 0, 1, 64, 384}";
},
{
name = pixel.3;
transform = "{1, 0, 0, 1, 320, 384}";
},
{
name = pixel.5;
transform = "{1, 0, 0, 1, 128, 512}";
},
{
name = pixel.1;
transform = "{1, 0, 0, 1, 448, 640}";
}
);
layerId = "164C8123-3F0E-4C99-877D-0E85C432A9CE";
width = 512;
},
{
components = (
{
name = pixel.1;
transform = "{1, 0, 0, 1, 64, -128}";
},
{
name = pixel.5;
transform = "{1, 0, 0, 1, 128, 0}";
},
{
name = pixel.3;
transform = "{1, 0, 0, 1, 64, 128}";
},
{
name = pixel.2;
transform = "{1, 0, 0, 1, 384, 128}";
},
{
name = pixel.2;
transform = "{1, 0, 0, 1, 64, 256}";
},
{
name = pixel.1;
transform = "{1, 0, 0, 1, 256, 256}";
},
{
name = pixel.2;
transform = "{1, 0, 0, 1, 384, 256}";
},
{
name = pixel.2;
transform = "{1, 0, 0, 1, 64, 384}";
},
{
name = pixel.3;
transform = "{1, 0, 0, 1, 320, 384}";
},
{
name = pixel.5;
transform = "{1, 0, 0, 1, 128, 512}";
},
{
name = pixel.1;
transform = "{1, 0, 0, 1, 448, 640}";
}
);
layerId = "EDC3ADDC-530C-4ECE-AAC6-732B149A8D4A";
width = 512;
},
{
components = (
{
name = pixel.1;
transform = "{1, 0, 0, 1, 64, -128}";
},
{
name = pixel.5;
transform = "{1, 0, 0, 1, 128, 0}";
},
{
name = pixel.3;
transform = "{1, 0, 0, 1, 64, 128}";
},
{
name = pixel.2;
transform = "{1, 0, 0, 1, 384, 128}";
},
{
name = pixel.2;
transform = "{1, 0, 0, 1, 64, 256}";
},
{
name = pixel.1;
transform = "{1, 0, 0, 1, 256, 256}";
},
{
name = pixel.2;
transform = "{1, 0, 0, 1, 384, 256}";
},
{
name = pixel.2;
transform = "{1, 0, 0, 1, 64, 384}";
},
{
name = pixel.3;
transform = "{1, 0, 0, 1, 320, 384}";
},
{
name = pixel.5;
transform = "{1, 0, 0, 1, 128, 512}";
},
{
name = pixel.1;
transform = "{1, 0, 0, 1, 448, 640}";
}
);
layerId = "38088322-78A3-4F4F-B46E-F8355B0BCD96";
width = 512;
}
);
unicode = 00F8;
},
{
glyphname = q;
layers = (
{
components = (
{
name = pixel.4;
transform = "{1, 0, 0, 1, 256, -128}";
},
{
name = pixel.2;
transform = "{1, 0, 0, 1, 320, 0}";
},
{
name = pixel.5;
transform = "{1, 0, 0, 1, 128, 128}";
},
{
name = pixel.2;
transform = "{1, 0, 0, 1, 64, 256}";
},
{
name = pixel.2;
transform = "{1, 0, 0, 1, 320, 256}";
},
{
name = pixel.2;
transform = "{1, 0, 0, 1, 64, 384}";
},
{
name = pixel.2;
transform = "{1, 0, 0, 1, 320, 384}";
},
{
name = pixel.4;
transform = "{1, 0, 0, 1, 128, 512}";
},
{
name = pixel.1;
transform = "{1, 0, 0, 1, 448, 512}";
}
);
layerId = "EF047752-ED93-49D3-A4D1-D66A6AAE90C7";
width = 512;
},
{
background = {
paths = (
{
closed = 1;
nodes = (
"273 -189 OFFCURVE",
"193 -115 OFFCURVE",
"193 -13 OFFCURVE",
"273 61 OFFCURVE",
"343 61 QCURVE SMOOTH",
"425 61 LINE SMOOTH",
"495 61 OFFCURVE",
"575 -13 OFFCURVE",
"575 -115 OFFCURVE",
"495 -189 OFFCURVE",
"425 -189 QCURVE SMOOTH",
"343 -189 LINE SMOOTH"
);
},
{
closed = 1;
nodes = (
"329 -61 OFFCURVE",
"257 13 OFFCURVE",
"257 115 OFFCURVE",
"329 189 OFFCURVE",
"382 189 QCURVE SMOOTH",
"386 189 LINE SMOOTH",
"439 189 OFFCURVE",
"511 115 OFFCURVE",
"511 13 OFFCURVE",
"439 -61 OFFCURVE",
"386 -61 QCURVE SMOOTH",
"382 -61 LINE SMOOTH"
);
},
{
closed = 1;
nodes = (
"145 67 OFFCURVE",
"65 141 OFFCURVE",
"65 243 OFFCURVE",
"145 317 OFFCURVE",
"215 317 QCURVE SMOOTH",
"361 317 LINE SMOOTH",
"431 317 OFFCURVE",
"511 243 OFFCURVE",
"511 141 OFFCURVE",
"431 67 OFFCURVE",
"361 67 QCURVE SMOOTH",
"215 67 LINE SMOOTH"
);
},
{
closed = 1;
nodes = (
"73 195 OFFCURVE",
"1 269 OFFCURVE",
"1 371 OFFCURVE",
"73 445 OFFCURVE",
"126 445 QCURVE SMOOTH",
"130 445 LINE SMOOTH",
"183 445 OFFCURVE",
"255 371 OFFCURVE",
"255 269 OFFCURVE",
"183 195 OFFCURVE",
"130 195 QCURVE SMOOTH",
"126 195 LINE SMOOTH"
);
},
{
closed = 1;
nodes = (
"329 195 OFFCURVE",
"257 269 OFFCURVE",
"257 371 OFFCURVE",
"329 445 OFFCURVE",
"382 445 QCURVE SMOOTH",
"386 445 LINE SMOOTH",
"439 445 OFFCURVE",
"511 371 OFFCURVE",
"511 269 OFFCURVE",
"439 195 OFFCURVE",
"386 195 QCURVE SMOOTH",
"382 195 LINE SMOOTH"
);
},
{
closed = 1;
nodes = (
"73 323 OFFCURVE",
"1 397 OFFCURVE",
"1 499 OFFCURVE",
"73 573 OFFCURVE",
"126 573 QCURVE SMOOTH",
"130 573 LINE SMOOTH",
"183 573 OFFCURVE",
"255 499 OFFCURVE",
"255 397 OFFCURVE",
"183 323 OFFCURVE",
"130 323 QCURVE SMOOTH",
"126 323 LINE SMOOTH"
);
},
{
closed = 1;
nodes = (
"329 323 OFFCURVE",
"257 397 OFFCURVE",
"257 499 OFFCURVE",
"329 573 OFFCURVE",
"382 573 QCURVE SMOOTH",
"386 573 LINE SMOOTH",
"439 573 OFFCURVE",
"511 499 OFFCURVE",
"511 397 OFFCURVE",
"439 323 OFFCURVE",
"386 323 QCURVE SMOOTH",
"382 323 LINE SMOOTH"
);
},
{
closed = 1;
nodes = (
"145 451 OFFCURVE",
"65 525 OFFCURVE",
"65 627 OFFCURVE",
"145 701 OFFCURVE",
"215 701 QCURVE SMOOTH",
"297 701 LINE SMOOTH",
"367 701 OFFCURVE",
"447 627 OFFCURVE",
"447 525 OFFCURVE",
"367 451 OFFCURVE",
"297 451 QCURVE SMOOTH",
"215 451 LINE SMOOTH"
);
},
{
closed = 1;
nodes = (
"457 451 OFFCURVE",
"385 525 OFFCURVE",
"385 627 OFFCURVE",
"457 701 OFFCURVE",
"510 701 QCURVE SMOOTH",
"450 701 LINE SMOOTH",
"503 701 OFFCURVE",
"575 627 OFFCURVE",
"575 525 OFFCURVE",
"503 451 OFFCURVE",
"450 451 QCURVE SMOOTH",
"510 451 LINE SMOOTH"
);
}
);
};
components = (
{
name = pixel.4;
transform = "{1, 0, 0, 1, 256, -128}";
},
{
name = pixel.2;
transform = "{1, 0, 0, 1, 320, 0}";
},
{
name = pixel.5;
transform = "{1, 0, 0, 1, 128, 128}";
},
{
name = pixel.2;
transform = "{1, 0, 0, 1, 64, 256}";
},
{
name = pixel.2;
transform = "{1, 0, 0, 1, 320, 256}";
},
{
name = pixel.2;
transform = "{1, 0, 0, 1, 64, 384}";
},
{
name = pixel.2;
transform = "{1, 0, 0, 1, 320, 384}";
},
{
name = pixel.4;
transform = "{1, 0, 0, 1, 128, 512}";
},
{
name = pixel.1;
transform = "{1, 0, 0, 1, 448, 512}";
}
);
layerId = "164C8123-3F0E-4C99-877D-0E85C432A9CE";
width = 512;
},
{
components = (
{
name = pixel.4;
transform = "{1, 0, 0, 1, 256, -128}";
},
{
name = pixel.2;
transform = "{1, 0, 0, 1, 320, 0}";
},
{
name = pixel.5;
transform = "{1, 0, 0, 1, 128, 128}";
},
{
name = pixel.2;
transform = "{1, 0, 0, 1, 64, 256}";
},
{
name = pixel.2;
transform = "{1, 0, 0, 1, 320, 256}";
},
{
name = pixel.2;
transform = "{1, 0, 0, 1, 64, 384}";
},
{
name = pixel.2;
transform = "{1, 0, 0, 1, 320, 384}";
},
{
name = pixel.4;
transform = "{1, 0, 0, 1, 128, 512}";
},
{
name = pixel.1;
transform = "{1, 0, 0, 1, 448, 512}";
}
);
layerId = "EDC3ADDC-530C-4ECE-AAC6-732B149A8D4A";
width = 512;
},
{
components = (
{
name = pixel.4;
transform = "{1, 0, 0, 1, 256, -128}";
},
{
name = pixel.2;
transform = "{1, 0, 0, 1, 320, 0}";
},
{
name = pixel.5;
transform = "{1, 0, 0, 1, 128, 128}";
},
{
name = pixel.2;
transform = "{1, 0, 0, 1, 64, 256}";
},
{
name = pixel.2;
transform = "{1, 0, 0, 1, 320, 256}";
},
{
name = pixel.2;
transform = "{1, 0, 0, 1, 64, 384}";
},
{
name = pixel.2;
transform = "{1, 0, 0, 1, 320, 384}";
},
{
name = pixel.4;
transform = "{1, 0, 0, 1, 128, 512}";
},
{
name = pixel.1;
transform = "{1, 0, 0, 1, 448, 512}";
}
);
layerId = "38088322-78A3-4F4F-B46E-F8355B0BCD96";
width = 512;
}
);
unicode = 0071;
},
{
glyphname = t;
layers = (
{
components = (
{
name = pixel.2;
transform = "{1, 0, 0, 1, 256, 0}";
},
{
name = pixel.2;
transform = "{1, 0, 0, 1, 192, 128}";
},
{
name = pixel.1;
transform = "{1, 0, 0, 1, 384, 128}";
},
{
name = pixel.2;
transform = "{1, 0, 0, 1, 192, 256}";
},
{
name = pixel.2;
transform = "{1, 0, 0, 1, 192, 384}";
},
{
name = pixel.5;
transform = "{1, 0, 0, 1, 128, 512}";
},
{
name = pixel.2;
transform = "{1, 0, 0, 1, 192, 640}";
},
{
name = pixel.1;
transform = "{1, 0, 0, 1, 256, 768}";
}
);
layerId = "EF047752-ED93-49D3-A4D1-D66A6AAE90C7";
width = 512;
},
{
background = {
paths = (
{
closed = 1;
nodes = (
"265 -61 OFFCURVE",
"193 13 OFFCURVE",
"193 115 OFFCURVE",
"265 189 OFFCURVE",
"318 189 QCURVE SMOOTH",
"322 189 LINE SMOOTH",
"375 189 OFFCURVE",
"447 115 OFFCURVE",
"447 13 OFFCURVE",
"375 -61 OFFCURVE",
"322 -61 QCURVE SMOOTH",
"318 -61 LINE SMOOTH"
);
},
{
closed = 1;
nodes = (
"201 67 OFFCURVE",
"129 141 OFFCURVE",
"129 243 OFFCURVE",
"201 317 OFFCURVE",
"254 317 QCURVE SMOOTH",
"258 317 LINE SMOOTH",
"311 317 OFFCURVE",
"383 243 OFFCURVE",
"383 141 OFFCURVE",
"311 67 OFFCURVE",
"258 67 QCURVE SMOOTH",
"254 67 LINE SMOOTH"
);
},
{
closed = 1;
nodes = (
"393 67 OFFCURVE",
"321 141 OFFCURVE",
"321 243 OFFCURVE",
"393 317 OFFCURVE",
"446 317 QCURVE SMOOTH",
"386 317 LINE SMOOTH",
"439 317 OFFCURVE",
"511 243 OFFCURVE",
"511 141 OFFCURVE",
"439 67 OFFCURVE",
"386 67 QCURVE SMOOTH",
"446 67 LINE SMOOTH"
);
},
{
closed = 1;
nodes = (
"201 195 OFFCURVE",
"129 269 OFFCURVE",
"129 371 OFFCURVE",
"201 445 OFFCURVE",
"254 445 QCURVE SMOOTH",
"258 445 LINE SMOOTH",
"311 445 OFFCURVE",
"383 371 OFFCURVE",
"383 269 OFFCURVE",
"311 195 OFFCURVE",
"258 195 QCURVE SMOOTH",
"254 195 LINE SMOOTH"
);
},
{
closed = 1;
nodes = (
"201 323 OFFCURVE",
"129 397 OFFCURVE",
"129 499 OFFCURVE",
"201 573 OFFCURVE",
"254 573 QCURVE SMOOTH",
"258 573 LINE SMOOTH",
"311 573 OFFCURVE",
"383 499 OFFCURVE",
"383 397 OFFCURVE",
"311 323 OFFCURVE",
"258 323 QCURVE SMOOTH",
"254 323 LINE SMOOTH"
);
},
{
closed = 1;
nodes = (
"145 451 OFFCURVE",
"65 525 OFFCURVE",
"65 627 OFFCURVE",
"145 701 OFFCURVE",
"215 701 QCURVE SMOOTH",
"361 701 LINE SMOOTH",
"431 701 OFFCURVE",
"511 627 OFFCURVE",
"511 525 OFFCURVE",
"431 451 OFFCURVE",
"361 451 QCURVE SMOOTH",
"215 451 LINE SMOOTH"
);
},
{
closed = 1;
nodes = (
"201 579 OFFCURVE",
"129 653 OFFCURVE",
"129 755 OFFCURVE",
"201 829 OFFCURVE",
"254 829 QCURVE SMOOTH",
"258 829 LINE SMOOTH",
"311 829 OFFCURVE",
"383 755 OFFCURVE",
"383 653 OFFCURVE",
"311 579 OFFCURVE",
"258 579 QCURVE SMOOTH",
"254 579 LINE SMOOTH"
);
},
{
closed = 1;
nodes = (
"265 707 OFFCURVE",
"193 781 OFFCURVE",
"193 883 OFFCURVE",
"265 957 OFFCURVE",
"318 957 QCURVE SMOOTH",
"258 957 LINE SMOOTH",
"311 957 OFFCURVE",
"383 883 OFFCURVE",
"383 781 OFFCURVE",
"311 707 OFFCURVE",
"258 707 QCURVE SMOOTH",
"318 707 LINE SMOOTH"
);
}
);
};
components = (
{
name = pixel.2;
transform = "{1, 0, 0, 1, 256, 0}";
},
{
name = pixel.2;
transform = "{1, 0, 0, 1, 192, 128}";
},
{
name = pixel.1;
transform = "{1, 0, 0, 1, 384, 128}";
},
{
name = pixel.2;
transform = "{1, 0, 0, 1, 192, 256}";
},
{
name = pixel.2;
transform = "{1, 0, 0, 1, 192, 384}";
},
{
name = pixel.5;
transform = "{1, 0, 0, 1, 128, 512}";
},
{
name = pixel.2;
transform = "{1, 0, 0, 1, 192, 640}";
},
{
name = pixel.1;
transform = "{1, 0, 0, 1, 256, 768}";
}
);
layerId = "164C8123-3F0E-4C99-877D-0E85C432A9CE";
width = 512;
},
{
components = (
{
name = pixel.2;
transform = "{1, 0, 0, 1, 256, 0}";
},
{
name = pixel.2;
transform = "{1, 0, 0, 1, 192, 128}";
},
{
name = pixel.1;
transform = "{1, 0, 0, 1, 384, 128}";
},
{
name = pixel.2;
transform = "{1, 0, 0, 1, 192, 256}";
},
{
name = pixel.2;
transform = "{1, 0, 0, 1, 192, 384}";
},
{
name = pixel.5;
transform = "{1, 0, 0, 1, 128, 512}";
},
{
name = pixel.2;
transform = "{1, 0, 0, 1, 192, 640}";
},
{
name = pixel.1;
transform = "{1, 0, 0, 1, 256, 768}";
}
);
layerId = "EDC3ADDC-530C-4ECE-AAC6-732B149A8D4A";
width = 512;
},
{
components = (
{
name = pixel.2;
transform = "{1, 0, 0, 1, 256, 0}";
},
{
name = pixel.2;
transform = "{1, 0, 0, 1, 192, 128}";
},
{
name = pixel.1;
transform = "{1, 0, 0, 1, 384, 128}";
},
{
name = pixel.2;
transform = "{1, 0, 0, 1, 192, 256}";
},
{
name = pixel.2;
transform = "{1, 0, 0, 1, 192, 384}";
},
{
name = pixel.5;
transform = "{1, 0, 0, 1, 128, 512}";
},
{
name = pixel.2;
transform = "{1, 0, 0, 1, 192, 640}";
},
{
name = pixel.1;
transform = "{1, 0, 0, 1, 256, 768}";
}
);
layerId = "38088322-78A3-4F4F-B46E-F8355B0BCD96";
width = 512;
}
);
unicode = 0074;
},
{
glyphname = w;
layers = (
{
components = (
{
name = pixel.2;
transform = "{1, 0, 0, 1, 128, 0}";
},
{
name = pixel.2;
transform = "{1, 0, 0, 1, 320, 0}";
},
{
name = pixel.2;
transform = "{1, 0, 0, 1, 128, 128}";
},
{
name = pixel.2;
transform = "{1, 0, 0, 1, 320, 128}";
},
{
name = pixel.2;
transform = "{1, 0, 0, 1, 64, 256}";
},
{
name = pixel.1;
transform = "{1, 0, 0, 1, 256, 256}";
},
{
name = pixel.2;
transform = "{1, 0, 0, 1, 384, 256}";
},
{
name = pixel.2;
transform = "{1, 0, 0, 1, 64, 384}";
},
{
name = pixel.1;
transform = "{1, 0, 0, 1, 256, 384}";
},
{
name = pixel.2;
transform = "{1, 0, 0, 1, 384, 384}";
},
{
name = pixel.2;
transform = "{1, 0, 0, 1, 64, 512}";
},
{
name = pixel.2;
transform = "{1, 0, 0, 1, 384, 512}";
}
);
layerId = "EF047752-ED93-49D3-A4D1-D66A6AAE90C7";
width = 512;
},
{
background = {
paths = (
{
closed = 1;
nodes = (
"137 -61 OFFCURVE",
"65 13 OFFCURVE",
"65 115 OFFCURVE",
"137 189 OFFCURVE",
"190 189 QCURVE SMOOTH",
"194 189 LINE SMOOTH",
"247 189 OFFCURVE",
"319 115 OFFCURVE",
"319 13 OFFCURVE",
"247 -61 OFFCURVE",
"194 -61 QCURVE SMOOTH",
"190 -61 LINE SMOOTH"
);
},
{
closed = 1;
nodes = (
"329 -61 OFFCURVE",
"257 13 OFFCURVE",
"257 115 OFFCURVE",
"329 189 OFFCURVE",
"382 189 QCURVE SMOOTH",
"386 189 LINE SMOOTH",
"439 189 OFFCURVE",
"511 115 OFFCURVE",
"511 13 OFFCURVE",
"439 -61 OFFCURVE",
"386 -61 QCURVE SMOOTH",
"382 -61 LINE SMOOTH"
);
},
{
closed = 1;
nodes = (
"137 67 OFFCURVE",
"65 141 OFFCURVE",
"65 243 OFFCURVE",
"137 317 OFFCURVE",
"190 317 QCURVE SMOOTH",
"194 317 LINE SMOOTH",
"247 317 OFFCURVE",
"319 243 OFFCURVE",
"319 141 OFFCURVE",
"247 67 OFFCURVE",
"194 67 QCURVE SMOOTH",
"190 67 LINE SMOOTH"
);
},
{
closed = 1;
nodes = (
"329 67 OFFCURVE",
"257 141 OFFCURVE",
"257 243 OFFCURVE",
"329 317 OFFCURVE",
"382 317 QCURVE SMOOTH",
"386 317 LINE SMOOTH",
"439 317 OFFCURVE",
"511 243 OFFCURVE",
"511 141 OFFCURVE",
"439 67 OFFCURVE",
"386 67 QCURVE SMOOTH",
"382 67 LINE SMOOTH"
);
},
{
closed = 1;
nodes = (
"73 195 OFFCURVE",
"1 269 OFFCURVE",
"1 371 OFFCURVE",
"73 445 OFFCURVE",
"126 445 QCURVE SMOOTH",
"130 445 LINE SMOOTH",
"183 445 OFFCURVE",
"255 371 OFFCURVE",
"255 269 OFFCURVE",
"183 195 OFFCURVE",
"130 195 QCURVE SMOOTH",
"126 195 LINE SMOOTH"
);
},
{
closed = 1;
nodes = (
"265 195 OFFCURVE",
"193 269 OFFCURVE",
"193 371 OFFCURVE",
"265 445 OFFCURVE",
"318 445 QCURVE SMOOTH",
"258 445 LINE SMOOTH",
"311 445 OFFCURVE",
"383 371 OFFCURVE",
"383 269 OFFCURVE",
"311 195 OFFCURVE",
"258 195 QCURVE SMOOTH",
"318 195 LINE SMOOTH"
);
},
{
closed = 1;
nodes = (
"393 195 OFFCURVE",
"321 269 OFFCURVE",
"321 371 OFFCURVE",
"393 445 OFFCURVE",
"446 445 QCURVE SMOOTH",
"450 445 LINE SMOOTH",
"503 445 OFFCURVE",
"575 371 OFFCURVE",
"575 269 OFFCURVE",
"503 195 OFFCURVE",
"450 195 QCURVE SMOOTH",
"446 195 LINE SMOOTH"
);
},
{
closed = 1;
nodes = (
"73 323 OFFCURVE",
"1 397 OFFCURVE",
"1 499 OFFCURVE",
"73 573 OFFCURVE",
"126 573 QCURVE SMOOTH",
"130 573 LINE SMOOTH",
"183 573 OFFCURVE",
"255 499 OFFCURVE",
"255 397 OFFCURVE",
"183 323 OFFCURVE",
"130 323 QCURVE SMOOTH",
"126 323 LINE SMOOTH"
);
},
{
closed = 1;
nodes = (
"265 323 OFFCURVE",
"193 397 OFFCURVE",
"193 499 OFFCURVE",
"265 573 OFFCURVE",
"318 573 QCURVE SMOOTH",
"258 573 LINE SMOOTH",
"311 573 OFFCURVE",
"383 499 OFFCURVE",
"383 397 OFFCURVE",
"311 323 OFFCURVE",
"258 323 QCURVE SMOOTH",
"318 323 LINE SMOOTH"
);
},
{
closed = 1;
nodes = (
"393 323 OFFCURVE",
"321 397 OFFCURVE",
"321 499 OFFCURVE",
"393 573 OFFCURVE",
"446 573 QCURVE SMOOTH",
"450 573 LINE SMOOTH",
"503 573 OFFCURVE",
"575 499 OFFCURVE",
"575 397 OFFCURVE",
"503 323 OFFCURVE",
"450 323 QCURVE SMOOTH",
"446 323 LINE SMOOTH"
);
},
{
closed = 1;
nodes = (
"73 451 OFFCURVE",
"1 525 OFFCURVE",
"1 627 OFFCURVE",
"73 701 OFFCURVE",
"126 701 QCURVE SMOOTH",
"130 701 LINE SMOOTH",
"183 701 OFFCURVE",
"255 627 OFFCURVE",
"255 525 OFFCURVE",
"183 451 OFFCURVE",
"130 451 QCURVE SMOOTH",
"126 451 LINE SMOOTH"
);
},
{
closed = 1;
nodes = (
"393 451 OFFCURVE",
"321 525 OFFCURVE",
"321 627 OFFCURVE",
"393 701 OFFCURVE",
"446 701 QCURVE SMOOTH",
"450 701 LINE SMOOTH",
"503 701 OFFCURVE",
"575 627 OFFCURVE",
"575 525 OFFCURVE",
"503 451 OFFCURVE",
"450 451 QCURVE SMOOTH",
"446 451 LINE SMOOTH"
);
}
);
};
components = (
{
name = pixel.2;
transform = "{1, 0, 0, 1, 128, 0}";
},
{
name = pixel.2;
transform = "{1, 0, 0, 1, 320, 0}";
},
{
name = pixel.2;
transform = "{1, 0, 0, 1, 128, 128}";
},
{
name = pixel.2;
transform = "{1, 0, 0, 1, 320, 128}";
},
{
name = pixel.2;
transform = "{1, 0, 0, 1, 64, 256}";
},
{
name = pixel.1;
transform = "{1, 0, 0, 1, 256, 256}";
},
{
name = pixel.2;
transform = "{1, 0, 0, 1, 384, 256}";
},
{
name = pixel.2;
transform = "{1, 0, 0, 1, 64, 384}";
},
{
name = pixel.1;
transform = "{1, 0, 0, 1, 256, 384}";
},
{
name = pixel.2;
transform = "{1, 0, 0, 1, 384, 384}";
},
{
name = pixel.2;
transform = "{1, 0, 0, 1, 64, 512}";
},
{
name = pixel.2;
transform = "{1, 0, 0, 1, 384, 512}";
}
);
layerId = "164C8123-3F0E-4C99-877D-0E85C432A9CE";
width = 512;
},
{
components = (
{
name = pixel.2;
transform = "{1, 0, 0, 1, 128, 0}";
},
{
name = pixel.2;
transform = "{1, 0, 0, 1, 320, 0}";
},
{
name = pixel.2;
transform = "{1, 0, 0, 1, 128, 128}";
},
{
name = pixel.2;
transform = "{1, 0, 0, 1, 320, 128}";
},
{
name = pixel.2;
transform = "{1, 0, 0, 1, 64, 256}";
},
{
name = pixel.1;
transform = "{1, 0, 0, 1, 256, 256}";
},
{
name = pixel.2;
transform = "{1, 0, 0, 1, 384, 256}";
},
{
name = pixel.2;
transform = "{1, 0, 0, 1, 64, 384}";
},
{
name = pixel.1;
transform = "{1, 0, 0, 1, 256, 384}";
},
{
name = pixel.2;
transform = "{1, 0, 0, 1, 384, 384}";
},
{
name = pixel.2;
transform = "{1, 0, 0, 1, 64, 512}";
},
{
name = pixel.2;
transform = "{1, 0, 0, 1, 384, 512}";
}
);
layerId = "EDC3ADDC-530C-4ECE-AAC6-732B149A8D4A";
width = 512;
},
{
components = (
{
name = pixel.2;
transform = "{1, 0, 0, 1, 128, 0}";
},
{
name = pixel.2;
transform = "{1, 0, 0, 1, 320, 0}";
},
{
name = pixel.2;
transform = "{1, 0, 0, 1, 128, 128}";
},
{
name = pixel.2;
transform = "{1, 0, 0, 1, 320, 128}";
},
{
name = pixel.2;
transform = "{1, 0, 0, 1, 64, 256}";
},
{
name = pixel.1;
transform = "{1, 0, 0, 1, 256, 256}";
},
{
name = pixel.2;
transform = "{1, 0, 0, 1, 384, 256}";
},
{
name = pixel.2;
transform = "{1, 0, 0, 1, 64, 384}";
},
{
name = pixel.1;
transform = "{1, 0, 0, 1, 256, 384}";
},
{
name = pixel.2;
transform = "{1, 0, 0, 1, 384, 384}";
},
{
name = pixel.2;
transform = "{1, 0, 0, 1, 64, 512}";
},
{
name = pixel.2;
transform = "{1, 0, 0, 1, 384, 512}";
}
);
layerId = "38088322-78A3-4F4F-B46E-F8355B0BCD96";
width = 512;
}
);
unicode = 0077;
},
{
glyphname = z;
layers = (
{
components = (
{
name = pixel.6;
transform = "{1, 0, 0, 1, 64, 0}";
},
{
name = pixel.2;
transform = "{1, 0, 0, 1, 128, 128}";
},
{
name = pixel.1;
transform = "{1, 0, 0, 1, 384, 128}";
},
{
name = pixel.2;
transform = "{1, 0, 0, 1, 192, 256}";
},
{
name = pixel.1;
transform = "{1, 0, 0, 1, 64, 384}";
},
{
name = pixel.2;
transform = "{1, 0, 0, 1, 256, 384}";
},
{
name = pixel.6;
transform = "{1, 0, 0, 1, 64, 512}";
}
);
layerId = "EF047752-ED93-49D3-A4D1-D66A6AAE90C7";
width = 512;
},
{
background = {
paths = (
{
closed = 1;
nodes = (
"81 -61 OFFCURVE",
"1 13 OFFCURVE",
"1 115 OFFCURVE",
"81 189 OFFCURVE",
"151 189 QCURVE SMOOTH",
"361 189 LINE SMOOTH",
"431 189 OFFCURVE",
"511 115 OFFCURVE",
"511 13 OFFCURVE",
"431 -61 OFFCURVE",
"361 -61 QCURVE SMOOTH",
"151 -61 LINE SMOOTH"
);
},
{
closed = 1;
nodes = (
"137 67 OFFCURVE",
"65 141 OFFCURVE",
"65 243 OFFCURVE",
"137 317 OFFCURVE",
"190 317 QCURVE SMOOTH",
"194 317 LINE SMOOTH",
"247 317 OFFCURVE",
"319 243 OFFCURVE",
"319 141 OFFCURVE",
"247 67 OFFCURVE",
"194 67 QCURVE SMOOTH",
"190 67 LINE SMOOTH"
);
},
{
closed = 1;
nodes = (
"393 67 OFFCURVE",
"321 141 OFFCURVE",
"321 243 OFFCURVE",
"393 317 OFFCURVE",
"446 317 QCURVE SMOOTH",
"386 317 LINE SMOOTH",
"439 317 OFFCURVE",
"511 243 OFFCURVE",
"511 141 OFFCURVE",
"439 67 OFFCURVE",
"386 67 QCURVE SMOOTH",
"446 67 LINE SMOOTH"
);
},
{
closed = 1;
nodes = (
"201 195 OFFCURVE",
"129 269 OFFCURVE",
"129 371 OFFCURVE",
"201 445 OFFCURVE",
"254 445 QCURVE SMOOTH",
"258 445 LINE SMOOTH",
"311 445 OFFCURVE",
"383 371 OFFCURVE",
"383 269 OFFCURVE",
"311 195 OFFCURVE",
"258 195 QCURVE SMOOTH",
"254 195 LINE SMOOTH"
);
},
{
closed = 1;
nodes = (
"73 323 OFFCURVE",
"1 397 OFFCURVE",
"1 499 OFFCURVE",
"73 573 OFFCURVE",
"126 573 QCURVE SMOOTH",
"66 573 LINE SMOOTH",
"119 573 OFFCURVE",
"191 499 OFFCURVE",
"191 397 OFFCURVE",
"119 323 OFFCURVE",
"66 323 QCURVE SMOOTH",
"126 323 LINE SMOOTH"
);
},
{
closed = 1;
nodes = (
"265 323 OFFCURVE",
"193 397 OFFCURVE",
"193 499 OFFCURVE",
"265 573 OFFCURVE",
"318 573 QCURVE SMOOTH",
"322 573 LINE SMOOTH",
"375 573 OFFCURVE",
"447 499 OFFCURVE",
"447 397 OFFCURVE",
"375 323 OFFCURVE",
"322 323 QCURVE SMOOTH",
"318 323 LINE SMOOTH"
);
},
{
closed = 1;
nodes = (
"81 451 OFFCURVE",
"1 525 OFFCURVE",
"1 627 OFFCURVE",
"81 701 OFFCURVE",
"151 701 QCURVE SMOOTH",
"361 701 LINE SMOOTH",
"431 701 OFFCURVE",
"511 627 OFFCURVE",
"511 525 OFFCURVE",
"431 451 OFFCURVE",
"361 451 QCURVE SMOOTH",
"151 451 LINE SMOOTH"
);
}
);
};
components = (
{
name = pixel.6;
transform = "{1, 0, 0, 1, 64, 0}";
},
{
name = pixel.2;
transform = "{1, 0, 0, 1, 128, 128}";
},
{
name = pixel.1;
transform = "{1, 0, 0, 1, 384, 128}";
},
{
name = pixel.2;
transform = "{1, 0, 0, 1, 192, 256}";
},
{
name = pixel.1;
transform = "{1, 0, 0, 1, 64, 384}";
},
{
name = pixel.2;
transform = "{1, 0, 0, 1, 256, 384}";
},
{
name = pixel.6;
transform = "{1, 0, 0, 1, 64, 512}";
}
);
layerId = "164C8123-3F0E-4C99-877D-0E85C432A9CE";
width = 512;
},
{
components = (
{
name = pixel.6;
transform = "{1, 0, 0, 1, 64, 0}";
},
{
name = pixel.2;
transform = "{1, 0, 0, 1, 128, 128}";
},
{
name = pixel.1;
transform = "{1, 0, 0, 1, 384, 128}";
},
{
name = pixel.2;
transform = "{1, 0, 0, 1, 192, 256}";
},
{
name = pixel.1;
transform = "{1, 0, 0, 1, 64, 384}";
},
{
name = pixel.2;
transform = "{1, 0, 0, 1, 256, 384}";
},
{
name = pixel.6;
transform = "{1, 0, 0, 1, 64, 512}";
}
);
layerId = "EDC3ADDC-530C-4ECE-AAC6-732B149A8D4A";
width = 512;
},
{
components = (
{
name = pixel.6;
transform = "{1, 0, 0, 1, 64, 0}";
},
{
name = pixel.2;
transform = "{1, 0, 0, 1, 128, 128}";
},
{
name = pixel.1;
transform = "{1, 0, 0, 1, 384, 128}";
},
{
name = pixel.2;
transform = "{1, 0, 0, 1, 192, 256}";
},
{
name = pixel.1;
transform = "{1, 0, 0, 1, 64, 384}";
},
{
name = pixel.2;
transform = "{1, 0, 0, 1, 256, 384}";
},
{
name = pixel.6;
transform = "{1, 0, 0, 1, 64, 512}";
}
);
layerId = "38088322-78A3-4F4F-B46E-F8355B0BCD96";
width = 512;
}
);
unicode = 007A;
},
{
glyphname = ordfeminine;
layers = (
{
components = (
{
name = pixel.6;
transform = "{1, 0, 0, 1, 0, 128}";
},
{
name = pixel.5;
transform = "{1, 0, 0, 1, 0, 384}";
},
{
name = pixel.1;
transform = "{1, 0, 0, 1, 0, 512}";
},
{
name = pixel.1;
transform = "{1, 0, 0, 1, 256, 512}";
},
{
name = pixel.1;
transform = "{1, 0, 0, 1, 64, 640}";
},
{
name = pixel.1;
transform = "{1, 0, 0, 1, 256, 640}";
},
{
name = pixel.2;
transform = "{1, 0, 0, 1, 128, 768}";
}
);
layerId = "EF047752-ED93-49D3-A4D1-D66A6AAE90C7";
width = 512;
},
{
background = {
paths = (
{
closed = 1;
nodes = (
"17 67 OFFCURVE",
"-63 141 OFFCURVE",
"-63 243 OFFCURVE",
"17 317 OFFCURVE",
"87 317 QCURVE SMOOTH",
"297 317 LINE SMOOTH",
"367 317 OFFCURVE",
"447 243 OFFCURVE",
"447 141 OFFCURVE",
"367 67 OFFCURVE",
"297 67 QCURVE SMOOTH",
"87 67 LINE SMOOTH"
);
},
{
closed = 1;
nodes = (
"17 323 OFFCURVE",
"-63 397 OFFCURVE",
"-63 499 OFFCURVE",
"17 573 OFFCURVE",
"87 573 QCURVE SMOOTH",
"233 573 LINE SMOOTH",
"303 573 OFFCURVE",
"383 499 OFFCURVE",
"383 397 OFFCURVE",
"303 323 OFFCURVE",
"233 323 QCURVE SMOOTH",
"87 323 LINE SMOOTH"
);
},
{
closed = 1;
nodes = (
"9 451 OFFCURVE",
"-63 525 OFFCURVE",
"-63 627 OFFCURVE",
"9 701 OFFCURVE",
"62 701 QCURVE SMOOTH",
"2 701 LINE SMOOTH",
"55 701 OFFCURVE",
"127 627 OFFCURVE",
"127 525 OFFCURVE",
"55 451 OFFCURVE",
"2 451 QCURVE SMOOTH",
"62 451 LINE SMOOTH"
);
},
{
closed = 1;
nodes = (
"265 451 OFFCURVE",
"193 525 OFFCURVE",
"193 627 OFFCURVE",
"265 701 OFFCURVE",
"318 701 QCURVE SMOOTH",
"258 701 LINE SMOOTH",
"311 701 OFFCURVE",
"383 627 OFFCURVE",
"383 525 OFFCURVE",
"311 451 OFFCURVE",
"258 451 QCURVE SMOOTH",
"318 451 LINE SMOOTH"
);
},
{
closed = 1;
nodes = (
"73 579 OFFCURVE",
"1 653 OFFCURVE",
"1 755 OFFCURVE",
"73 829 OFFCURVE",
"126 829 QCURVE SMOOTH",
"66 829 LINE SMOOTH",
"119 829 OFFCURVE",
"191 755 OFFCURVE",
"191 653 OFFCURVE",
"119 579 OFFCURVE",
"66 579 QCURVE SMOOTH",
"126 579 LINE SMOOTH"
);
},
{
closed = 1;
nodes = (
"265 579 OFFCURVE",
"193 653 OFFCURVE",
"193 755 OFFCURVE",
"265 829 OFFCURVE",
"318 829 QCURVE SMOOTH",
"258 829 LINE SMOOTH",
"311 829 OFFCURVE",
"383 755 OFFCURVE",
"383 653 OFFCURVE",
"311 579 OFFCURVE",
"258 579 QCURVE SMOOTH",
"318 579 LINE SMOOTH"
);
},
{
closed = 1;
nodes = (
"137 707 OFFCURVE",
"65 781 OFFCURVE",
"65 883 OFFCURVE",
"137 957 OFFCURVE",
"190 957 QCURVE SMOOTH",
"194 957 LINE SMOOTH",
"247 957 OFFCURVE",
"319 883 OFFCURVE",
"319 781 OFFCURVE",
"247 707 OFFCURVE",
"194 707 QCURVE SMOOTH",
"190 707 LINE SMOOTH"
);
}
);
};
components = (
{
name = pixel.6;
transform = "{1, 0, 0, 1, 0, 128}";
},
{
name = pixel.5;
transform = "{1, 0, 0, 1, 0, 384}";
},
{
name = pixel.1;
transform = "{1, 0, 0, 1, 0, 512}";
},
{
name = pixel.1;
transform = "{1, 0, 0, 1, 256, 512}";
},
{
name = pixel.1;
transform = "{1, 0, 0, 1, 64, 640}";
},
{
name = pixel.1;
transform = "{1, 0, 0, 1, 256, 640}";
},
{
name = pixel.2;
transform = "{1, 0, 0, 1, 128, 768}";
}
);
layerId = "164C8123-3F0E-4C99-877D-0E85C432A9CE";
width = 512;
},
{
components = (
{
name = pixel.6;
transform = "{1, 0, 0, 1, 0, 128}";
},
{
name = pixel.5;
transform = "{1, 0, 0, 1, 0, 384}";
},
{
name = pixel.1;
transform = "{1, 0, 0, 1, 0, 512}";
},
{
name = pixel.1;
transform = "{1, 0, 0, 1, 256, 512}";
},
{
name = pixel.1;
transform = "{1, 0, 0, 1, 64, 640}";
},
{
name = pixel.1;
transform = "{1, 0, 0, 1, 256, 640}";
},
{
name = pixel.2;
transform = "{1, 0, 0, 1, 128, 768}";
}
);
layerId = "EDC3ADDC-530C-4ECE-AAC6-732B149A8D4A";
width = 512;
},
{
components = (
{
name = pixel.6;
transform = "{1, 0, 0, 1, 0, 128}";
},
{
name = pixel.5;
transform = "{1, 0, 0, 1, 0, 384}";
},
{
name = pixel.1;
transform = "{1, 0, 0, 1, 0, 512}";
},
{
name = pixel.1;
transform = "{1, 0, 0, 1, 256, 512}";
},
{
name = pixel.1;
transform = "{1, 0, 0, 1, 64, 640}";
},
{
name = pixel.1;
transform = "{1, 0, 0, 1, 256, 640}";
},
{
name = pixel.2;
transform = "{1, 0, 0, 1, 128, 768}";
}
);
layerId = "38088322-78A3-4F4F-B46E-F8355B0BCD96";
width = 512;
}
);
unicode = 00AA;
},
{
glyphname = ordmasculine;
layers = (
{
components = (
{
name = pixel.5;
transform = "{1, 0, 0, 1, 0, 128}";
},
{
name = pixel.3;
transform = "{1, 0, 0, 1, 64, 384}";
},
{
name = pixel.1;
transform = "{1, 0, 0, 1, 0, 512}";
},
{
name = pixel.1;
transform = "{1, 0, 0, 1, 256, 512}";
},
{
name = pixel.1;
transform = "{1, 0, 0, 1, 0, 640}";
},
{
name = pixel.1;
transform = "{1, 0, 0, 1, 256, 640}";
},
{
name = pixel.3;
transform = "{1, 0, 0, 1, 64, 768}";
}
);
layerId = "EF047752-ED93-49D3-A4D1-D66A6AAE90C7";
width = 512;
},
{
background = {
paths = (
{
closed = 1;
nodes = (
"17 67 OFFCURVE",
"-63 141 OFFCURVE",
"-63 243 OFFCURVE",
"17 317 OFFCURVE",
"87 317 QCURVE SMOOTH",
"233 317 LINE SMOOTH",
"303 317 OFFCURVE",
"383 243 OFFCURVE",
"383 141 OFFCURVE",
"303 67 OFFCURVE",
"233 67 QCURVE SMOOTH",
"87 67 LINE SMOOTH"
);
},
{
closed = 1;
nodes = (
"73 323 OFFCURVE",
"1 397 OFFCURVE",
"1 499 OFFCURVE",
"73 573 OFFCURVE",
"126 573 QCURVE SMOOTH",
"194 573 LINE SMOOTH",
"247 573 OFFCURVE",
"319 499 OFFCURVE",
"319 397 OFFCURVE",
"247 323 OFFCURVE",
"194 323 QCURVE SMOOTH",
"126 323 LINE SMOOTH"
);
},
{
closed = 1;
nodes = (
"9 451 OFFCURVE",
"-63 525 OFFCURVE",
"-63 627 OFFCURVE",
"9 701 OFFCURVE",
"62 701 QCURVE SMOOTH",
"2 701 LINE SMOOTH",
"55 701 OFFCURVE",
"127 627 OFFCURVE",
"127 525 OFFCURVE",
"55 451 OFFCURVE",
"2 451 QCURVE SMOOTH",
"62 451 LINE SMOOTH"
);
},
{
closed = 1;
nodes = (
"265 451 OFFCURVE",
"193 525 OFFCURVE",
"193 627 OFFCURVE",
"265 701 OFFCURVE",
"318 701 QCURVE SMOOTH",
"258 701 LINE SMOOTH",
"311 701 OFFCURVE",
"383 627 OFFCURVE",
"383 525 OFFCURVE",
"311 451 OFFCURVE",
"258 451 QCURVE SMOOTH",
"318 451 LINE SMOOTH"
);
},
{
closed = 1;
nodes = (
"9 579 OFFCURVE",
"-63 653 OFFCURVE",
"-63 755 OFFCURVE",
"9 829 OFFCURVE",
"62 829 QCURVE SMOOTH",
"2 829 LINE SMOOTH",
"55 829 OFFCURVE",
"127 755 OFFCURVE",
"127 653 OFFCURVE",
"55 579 OFFCURVE",
"2 579 QCURVE SMOOTH",
"62 579 LINE SMOOTH"
);
},
{
closed = 1;
nodes = (
"265 579 OFFCURVE",
"193 653 OFFCURVE",
"193 755 OFFCURVE",
"265 829 OFFCURVE",
"318 829 QCURVE SMOOTH",
"258 829 LINE SMOOTH",
"311 829 OFFCURVE",
"383 755 OFFCURVE",
"383 653 OFFCURVE",
"311 579 OFFCURVE",
"258 579 QCURVE SMOOTH",
"318 579 LINE SMOOTH"
);
},
{
closed = 1;
nodes = (
"73 707 OFFCURVE",
"1 781 OFFCURVE",
"1 883 OFFCURVE",
"73 957 OFFCURVE",
"126 957 QCURVE SMOOTH",
"194 957 LINE SMOOTH",
"247 957 OFFCURVE",
"319 883 OFFCURVE",
"319 781 OFFCURVE",
"247 707 OFFCURVE",
"194 707 QCURVE SMOOTH",
"126 707 LINE SMOOTH"
);
}
);
};
components = (
{
name = pixel.5;
transform = "{1, 0, 0, 1, 0, 128}";
},
{
name = pixel.3;
transform = "{1, 0, 0, 1, 64, 384}";
},
{
name = pixel.1;
transform = "{1, 0, 0, 1, 0, 512}";
},
{
name = pixel.1;
transform = "{1, 0, 0, 1, 256, 512}";
},
{
name = pixel.1;
transform = "{1, 0, 0, 1, 0, 640}";
},
{
name = pixel.1;
transform = "{1, 0, 0, 1, 256, 640}";
},
{
name = pixel.3;
transform = "{1, 0, 0, 1, 64, 768}";
}
);
layerId = "164C8123-3F0E-4C99-877D-0E85C432A9CE";
width = 512;
},
{
components = (
{
name = pixel.5;
transform = "{1, 0, 0, 1, 0, 128}";
},
{
name = pixel.3;
transform = "{1, 0, 0, 1, 64, 384}";
},
{
name = pixel.1;
transform = "{1, 0, 0, 1, 0, 512}";
},
{
name = pixel.1;
transform = "{1, 0, 0, 1, 256, 512}";
},
{
name = pixel.1;
transform = "{1, 0, 0, 1, 0, 640}";
},
{
name = pixel.1;
transform = "{1, 0, 0, 1, 256, 640}";
},
{
name = pixel.3;
transform = "{1, 0, 0, 1, 64, 768}";
}
);
layerId = "EDC3ADDC-530C-4ECE-AAC6-732B149A8D4A";
width = 512;
},
{
components = (
{
name = pixel.5;
transform = "{1, 0, 0, 1, 0, 128}";
},
{
name = pixel.3;
transform = "{1, 0, 0, 1, 64, 384}";
},
{
name = pixel.1;
transform = "{1, 0, 0, 1, 0, 512}";
},
{
name = pixel.1;
transform = "{1, 0, 0, 1, 256, 512}";
},
{
name = pixel.1;
transform = "{1, 0, 0, 1, 0, 640}";
},
{
name = pixel.1;
transform = "{1, 0, 0, 1, 256, 640}";
},
{
name = pixel.3;
transform = "{1, 0, 0, 1, 64, 768}";
}
);
layerId = "38088322-78A3-4F4F-B46E-F8355B0BCD96";
width = 512;
}
);
unicode = 00BA;
},
{
glyphname = one.dnom;
layers = (
{
components = (
{
name = pixel.1;
transform = "{1, 0, 0, 1, 191, -128}";
},
{
name = pixel.1;
transform = "{1, 0, 0, 1, 191, 0}";
},
{
name = pixel.2;
transform = "{1, 0, 0, 1, 127, 128}";
},
{
name = pixel.1;
transform = "{1, 0, 0, 1, 191, 256}";
}
);
layerId = "EF047752-ED93-49D3-A4D1-D66A6AAE90C7";
width = 512;
},
{
background = {
paths = (
{
closed = 1;
nodes = (
"200 -189 OFFCURVE",
"128 -115 OFFCURVE",
"128 -13 OFFCURVE",
"200 61 OFFCURVE",
"253 61 QCURVE SMOOTH",
"193 61 LINE SMOOTH",
"246 61 OFFCURVE",
"318 -13 OFFCURVE",
"318 -115 OFFCURVE",
"246 -189 OFFCURVE",
"193 -189 QCURVE SMOOTH",
"253 -189 LINE SMOOTH"
);
},
{
closed = 1;
nodes = (
"200 -61 OFFCURVE",
"128 13 OFFCURVE",
"128 115 OFFCURVE",
"200 189 OFFCURVE",
"253 189 QCURVE SMOOTH",
"193 189 LINE SMOOTH",
"246 189 OFFCURVE",
"318 115 OFFCURVE",
"318 13 OFFCURVE",
"246 -61 OFFCURVE",
"193 -61 QCURVE SMOOTH",
"253 -61 LINE SMOOTH"
);
},
{
closed = 1;
nodes = (
"136 67 OFFCURVE",
"64 141 OFFCURVE",
"64 243 OFFCURVE",
"136 317 OFFCURVE",
"189 317 QCURVE SMOOTH",
"193 317 LINE SMOOTH",
"246 317 OFFCURVE",
"318 243 OFFCURVE",
"318 141 OFFCURVE",
"246 67 OFFCURVE",
"193 67 QCURVE SMOOTH",
"189 67 LINE SMOOTH"
);
},
{
closed = 1;
nodes = (
"200 195 OFFCURVE",
"128 269 OFFCURVE",
"128 371 OFFCURVE",
"200 445 OFFCURVE",
"253 445 QCURVE SMOOTH",
"193 445 LINE SMOOTH",
"246 445 OFFCURVE",
"318 371 OFFCURVE",
"318 269 OFFCURVE",
"246 195 OFFCURVE",
"193 195 QCURVE SMOOTH",
"253 195 LINE SMOOTH"
);
}
);
};
components = (
{
name = pixel.1;
transform = "{1, 0, 0, 1, 191, -128}";
},
{
name = pixel.1;
transform = "{1, 0, 0, 1, 191, 0}";
},
{
name = pixel.2;
transform = "{1, 0, 0, 1, 127, 128}";
},
{
name = pixel.1;
transform = "{1, 0, 0, 1, 191, 256}";
}
);
layerId = "164C8123-3F0E-4C99-877D-0E85C432A9CE";
width = 512;
},
{
components = (
{
name = pixel.1;
transform = "{1, 0, 0, 1, 191, -128}";
},
{
name = pixel.1;
transform = "{1, 0, 0, 1, 191, 0}";
},
{
name = pixel.2;
transform = "{1, 0, 0, 1, 127, 128}";
},
{
name = pixel.1;
transform = "{1, 0, 0, 1, 191, 256}";
}
);
layerId = "EDC3ADDC-530C-4ECE-AAC6-732B149A8D4A";
width = 512;
},
{
components = (
{
name = pixel.1;
transform = "{1, 0, 0, 1, 191, -128}";
},
{
name = pixel.1;
transform = "{1, 0, 0, 1, 191, 0}";
},
{
name = pixel.2;
transform = "{1, 0, 0, 1, 127, 128}";
},
{
name = pixel.1;
transform = "{1, 0, 0, 1, 191, 256}";
}
);
layerId = "38088322-78A3-4F4F-B46E-F8355B0BCD96";
width = 512;
}
);
},
{
glyphname = two.dnom;
layers = (
{
components = (
{
name = pixel.3;
transform = "{1, 0, 0, 1, 128, -128}";
},
{
name = pixel.1;
transform = "{1, 0, 0, 1, 192, 0}";
},
{
name = pixel.1;
transform = "{1, 0, 0, 1, 256, 128}";
},
{
name = pixel.2;
transform = "{1, 0, 0, 1, 192, 256}";
}
);
layerId = "EF047752-ED93-49D3-A4D1-D66A6AAE90C7";
width = 512;
},
{
background = {
paths = (
{
closed = 1;
nodes = (
"137 -189 OFFCURVE",
"65 -115 OFFCURVE",
"65 -13 OFFCURVE",
"137 61 OFFCURVE",
"190 61 QCURVE SMOOTH",
"258 61 LINE SMOOTH",
"311 61 OFFCURVE",
"383 -13 OFFCURVE",
"383 -115 OFFCURVE",
"311 -189 OFFCURVE",
"258 -189 QCURVE SMOOTH",
"190 -189 LINE SMOOTH"
);
},
{
closed = 1;
nodes = (
"201 -61 OFFCURVE",
"129 13 OFFCURVE",
"129 115 OFFCURVE",
"201 189 OFFCURVE",
"254 189 QCURVE SMOOTH",
"194 189 LINE SMOOTH",
"247 189 OFFCURVE",
"319 115 OFFCURVE",
"319 13 OFFCURVE",
"247 -61 OFFCURVE",
"194 -61 QCURVE SMOOTH",
"254 -61 LINE SMOOTH"
);
},
{
closed = 1;
nodes = (
"265 67 OFFCURVE",
"193 141 OFFCURVE",
"193 243 OFFCURVE",
"265 317 OFFCURVE",
"318 317 QCURVE SMOOTH",
"258 317 LINE SMOOTH",
"311 317 OFFCURVE",
"383 243 OFFCURVE",
"383 141 OFFCURVE",
"311 67 OFFCURVE",
"258 67 QCURVE SMOOTH",
"318 67 LINE SMOOTH"
);
},
{
closed = 1;
nodes = (
"201 195 OFFCURVE",
"129 269 OFFCURVE",
"129 371 OFFCURVE",
"201 445 OFFCURVE",
"254 445 QCURVE SMOOTH",
"258 445 LINE SMOOTH",
"311 445 OFFCURVE",
"383 371 OFFCURVE",
"383 269 OFFCURVE",
"311 195 OFFCURVE",
"258 195 QCURVE SMOOTH",
"254 195 LINE SMOOTH"
);
}
);
};
components = (
{
name = pixel.3;
transform = "{1, 0, 0, 1, 128, -128}";
},
{
name = pixel.1;
transform = "{1, 0, 0, 1, 192, 0}";
},
{
name = pixel.1;
transform = "{1, 0, 0, 1, 256, 128}";
},
{
name = pixel.2;
transform = "{1, 0, 0, 1, 192, 256}";
}
);
layerId = "164C8123-3F0E-4C99-877D-0E85C432A9CE";
width = 512;
},
{
components = (
{
name = pixel.3;
transform = "{1, 0, 0, 1, 128, -128}";
},
{
name = pixel.1;
transform = "{1, 0, 0, 1, 192, 0}";
},
{
name = pixel.1;
transform = "{1, 0, 0, 1, 256, 128}";
},
{
name = pixel.2;
transform = "{1, 0, 0, 1, 192, 256}";
}
);
layerId = "EDC3ADDC-530C-4ECE-AAC6-732B149A8D4A";
width = 512;
},
{
components = (
{
name = pixel.3;
transform = "{1, 0, 0, 1, 128, -128}";
},
{
name = pixel.1;
transform = "{1, 0, 0, 1, 192, 0}";
},
{
name = pixel.1;
transform = "{1, 0, 0, 1, 256, 128}";
},
{
name = pixel.2;
transform = "{1, 0, 0, 1, 192, 256}";
}
);
layerId = "38088322-78A3-4F4F-B46E-F8355B0BCD96";
width = 512;
}
);
},
{
glyphname = three.dnom;
layers = (
{
components = (
{
name = pixel.2;
transform = "{1, 0, 0, 1, 128, -256}";
},
{
name = pixel.1;
transform = "{1, 0, 0, 1, 256, -128}";
},
{
name = pixel.2;
transform = "{1, 0, 0, 1, 192, 0}";
},
{
name = pixel.1;
transform = "{1, 0, 0, 1, 256, 128}";
},
{
name = pixel.2;
transform = "{1, 0, 0, 1, 128, 256}";
}
);
layerId = "EF047752-ED93-49D3-A4D1-D66A6AAE90C7";
width = 512;
},
{
background = {
paths = (
{
closed = 1;
nodes = (
"137 -317 OFFCURVE",
"65 -243 OFFCURVE",
"65 -141 OFFCURVE",
"137 -67 OFFCURVE",
"190 -67 QCURVE SMOOTH",
"194 -67 LINE SMOOTH",
"247 -67 OFFCURVE",
"319 -141 OFFCURVE",
"319 -243 OFFCURVE",
"247 -317 OFFCURVE",
"194 -317 QCURVE SMOOTH",
"190 -317 LINE SMOOTH"
);
},
{
closed = 1;
nodes = (
"265 -189 OFFCURVE",
"193 -115 OFFCURVE",
"193 -13 OFFCURVE",
"265 61 OFFCURVE",
"318 61 QCURVE SMOOTH",
"258 61 LINE SMOOTH",
"311 61 OFFCURVE",
"383 -13 OFFCURVE",
"383 -115 OFFCURVE",
"311 -189 OFFCURVE",
"258 -189 QCURVE SMOOTH",
"318 -189 LINE SMOOTH"
);
},
{
closed = 1;
nodes = (
"201 -61 OFFCURVE",
"129 13 OFFCURVE",
"129 115 OFFCURVE",
"201 189 OFFCURVE",
"254 189 QCURVE SMOOTH",
"258 189 LINE SMOOTH",
"311 189 OFFCURVE",
"383 115 OFFCURVE",
"383 13 OFFCURVE",
"311 -61 OFFCURVE",
"258 -61 QCURVE SMOOTH",
"254 -61 LINE SMOOTH"
);
},
{
closed = 1;
nodes = (
"265 67 OFFCURVE",
"193 141 OFFCURVE",
"193 243 OFFCURVE",
"265 317 OFFCURVE",
"318 317 QCURVE SMOOTH",
"258 317 LINE SMOOTH",
"311 317 OFFCURVE",
"383 243 OFFCURVE",
"383 141 OFFCURVE",
"311 67 OFFCURVE",
"258 67 QCURVE SMOOTH",
"318 67 LINE SMOOTH"
);
},
{
closed = 1;
nodes = (
"137 195 OFFCURVE",
"65 269 OFFCURVE",
"65 371 OFFCURVE",
"137 445 OFFCURVE",
"190 445 QCURVE SMOOTH",
"194 445 LINE SMOOTH",
"247 445 OFFCURVE",
"319 371 OFFCURVE",
"319 269 OFFCURVE",
"247 195 OFFCURVE",
"194 195 QCURVE SMOOTH",
"190 195 LINE SMOOTH"
);
}
);
};
components = (
{
name = pixel.2;
transform = "{1, 0, 0, 1, 128, -256}";
},
{
name = pixel.1;
transform = "{1, 0, 0, 1, 256, -128}";
},
{
name = pixel.2;
transform = "{1, 0, 0, 1, 192, 0}";
},
{
name = pixel.1;
transform = "{1, 0, 0, 1, 256, 128}";
},
{
name = pixel.2;
transform = "{1, 0, 0, 1, 128, 256}";
}
);
layerId = "164C8123-3F0E-4C99-877D-0E85C432A9CE";
width = 512;
},
{
components = (
{
name = pixel.2;
transform = "{1, 0, 0, 1, 128, -256}";
},
{
name = pixel.1;
transform = "{1, 0, 0, 1, 256, -128}";
},
{
name = pixel.2;
transform = "{1, 0, 0, 1, 192, 0}";
},
{
name = pixel.1;
transform = "{1, 0, 0, 1, 256, 128}";
},
{
name = pixel.2;
transform = "{1, 0, 0, 1, 128, 256}";
}
);
layerId = "EDC3ADDC-530C-4ECE-AAC6-732B149A8D4A";
width = 512;
},
{
components = (
{
name = pixel.2;
transform = "{1, 0, 0, 1, 128, -256}";
},
{
name = pixel.1;
transform = "{1, 0, 0, 1, 256, -128}";
},
{
name = pixel.2;
transform = "{1, 0, 0, 1, 192, 0}";
},
{
name = pixel.1;
transform = "{1, 0, 0, 1, 256, 128}";
},
{
name = pixel.2;
transform = "{1, 0, 0, 1, 128, 256}";
}
);
layerId = "38088322-78A3-4F4F-B46E-F8355B0BCD96";
width = 512;
}
);
},
{
glyphname = four.dnom;
layers = (
{
components = (
{
name = pixel.1;
transform = "{1, 0, 0, 1, 256, -128}";
},
{
name = pixel.3;
transform = "{1, 0, 0, 1, 128, 0}";
},
{
name = pixel.2;
transform = "{1, 0, 0, 1, 192, 128}";
},
{
name = pixel.1;
transform = "{1, 0, 0, 1, 256, 256}";
}
);
layerId = "EF047752-ED93-49D3-A4D1-D66A6AAE90C7";
width = 512;
},
{
background = {
paths = (
{
closed = 1;
nodes = (
"265 -189 OFFCURVE",
"193 -115 OFFCURVE",
"193 -13 OFFCURVE",
"265 61 OFFCURVE",
"318 61 QCURVE SMOOTH",
"258 61 LINE SMOOTH",
"311 61 OFFCURVE",
"383 -13 OFFCURVE",
"383 -115 OFFCURVE",
"311 -189 OFFCURVE",
"258 -189 QCURVE SMOOTH",
"318 -189 LINE SMOOTH"
);
},
{
closed = 1;
nodes = (
"137 -61 OFFCURVE",
"65 13 OFFCURVE",
"65 115 OFFCURVE",
"137 189 OFFCURVE",
"190 189 QCURVE SMOOTH",
"258 189 LINE SMOOTH",
"311 189 OFFCURVE",
"383 115 OFFCURVE",
"383 13 OFFCURVE",
"311 -61 OFFCURVE",
"258 -61 QCURVE SMOOTH",
"190 -61 LINE SMOOTH"
);
},
{
closed = 1;
nodes = (
"201 67 OFFCURVE",
"129 141 OFFCURVE",
"129 243 OFFCURVE",
"201 317 OFFCURVE",
"254 317 QCURVE SMOOTH",
"258 317 LINE SMOOTH",
"311 317 OFFCURVE",
"383 243 OFFCURVE",
"383 141 OFFCURVE",
"311 67 OFFCURVE",
"258 67 QCURVE SMOOTH",
"254 67 LINE SMOOTH"
);
},
{
closed = 1;
nodes = (
"265 195 OFFCURVE",
"193 269 OFFCURVE",
"193 371 OFFCURVE",
"265 445 OFFCURVE",
"318 445 QCURVE SMOOTH",
"258 445 LINE SMOOTH",
"311 445 OFFCURVE",
"383 371 OFFCURVE",
"383 269 OFFCURVE",
"311 195 OFFCURVE",
"258 195 QCURVE SMOOTH",
"318 195 LINE SMOOTH"
);
}
);
};
components = (
{
name = pixel.1;
transform = "{1, 0, 0, 1, 256, -128}";
},
{
name = pixel.3;
transform = "{1, 0, 0, 1, 128, 0}";
},
{
name = pixel.2;
transform = "{1, 0, 0, 1, 192, 128}";
},
{
name = pixel.1;
transform = "{1, 0, 0, 1, 256, 256}";
}
);
layerId = "164C8123-3F0E-4C99-877D-0E85C432A9CE";
width = 512;
},
{
components = (
{
name = pixel.1;
transform = "{1, 0, 0, 1, 256, -128}";
},
{
name = pixel.3;
transform = "{1, 0, 0, 1, 128, 0}";
},
{
name = pixel.2;
transform = "{1, 0, 0, 1, 192, 128}";
},
{
name = pixel.1;
transform = "{1, 0, 0, 1, 256, 256}";
}
);
layerId = "EDC3ADDC-530C-4ECE-AAC6-732B149A8D4A";
width = 512;
},
{
components = (
{
name = pixel.1;
transform = "{1, 0, 0, 1, 256, -128}";
},
{
name = pixel.3;
transform = "{1, 0, 0, 1, 128, 0}";
},
{
name = pixel.2;
transform = "{1, 0, 0, 1, 192, 128}";
},
{
name = pixel.1;
transform = "{1, 0, 0, 1, 256, 256}";
}
);
layerId = "38088322-78A3-4F4F-B46E-F8355B0BCD96";
width = 512;
}
);
},
{
color = 3;
glyphname = foursuperior;
layers = (
{
components = (
{
name = pixel.2;
transform = "{1, 0, 0, 1, 192, 256}";
},
{
name = pixel.6;
transform = "{1, 0, 0, 1, 0, 384}";
},
{
name = pixel.1;
transform = "{1, 0, 0, 1, 64, 512}";
},
{
name = pixel.2;
transform = "{1, 0, 0, 1, 192, 512}";
},
{
name = pixel.3;
transform = "{1, 0, 0, 1, 128, 640}";
},
{
name = pixel.2;
transform = "{1, 0, 0, 1, 192, 768}";
}
);
layerId = "EF047752-ED93-49D3-A4D1-D66A6AAE90C7";
width = 512;
},
{
background = {
paths = (
{
closed = 1;
nodes = (
"201 195 OFFCURVE",
"129 269 OFFCURVE",
"129 371 OFFCURVE",
"201 445 OFFCURVE",
"254 445 QCURVE SMOOTH",
"258 445 LINE SMOOTH",
"311 445 OFFCURVE",
"383 371 OFFCURVE",
"383 269 OFFCURVE",
"311 195 OFFCURVE",
"258 195 QCURVE SMOOTH",
"254 195 LINE SMOOTH"
);
},
{
closed = 1;
nodes = (
"17 323 OFFCURVE",
"-63 397 OFFCURVE",
"-63 499 OFFCURVE",
"17 573 OFFCURVE",
"87 573 QCURVE SMOOTH",
"297 573 LINE SMOOTH",
"367 573 OFFCURVE",
"447 499 OFFCURVE",
"447 397 OFFCURVE",
"367 323 OFFCURVE",
"297 323 QCURVE SMOOTH",
"87 323 LINE SMOOTH"
);
},
{
closed = 1;
nodes = (
"73 451 OFFCURVE",
"1 525 OFFCURVE",
"1 627 OFFCURVE",
"73 701 OFFCURVE",
"126 701 QCURVE SMOOTH",
"66 701 LINE SMOOTH",
"119 701 OFFCURVE",
"191 627 OFFCURVE",
"191 525 OFFCURVE",
"119 451 OFFCURVE",
"66 451 QCURVE SMOOTH",
"126 451 LINE SMOOTH"
);
},
{
closed = 1;
nodes = (
"201 451 OFFCURVE",
"129 525 OFFCURVE",
"129 627 OFFCURVE",
"201 701 OFFCURVE",
"254 701 QCURVE SMOOTH",
"258 701 LINE SMOOTH",
"311 701 OFFCURVE",
"383 627 OFFCURVE",
"383 525 OFFCURVE",
"311 451 OFFCURVE",
"258 451 QCURVE SMOOTH",
"254 451 LINE SMOOTH"
);
},
{
closed = 1;
nodes = (
"137 579 OFFCURVE",
"65 653 OFFCURVE",
"65 755 OFFCURVE",
"137 829 OFFCURVE",
"190 829 QCURVE SMOOTH",
"258 829 LINE SMOOTH",
"311 829 OFFCURVE",
"383 755 OFFCURVE",
"383 653 OFFCURVE",
"311 579 OFFCURVE",
"258 579 QCURVE SMOOTH",
"190 579 LINE SMOOTH"
);
},
{
closed = 1;
nodes = (
"201 707 OFFCURVE",
"129 781 OFFCURVE",
"129 883 OFFCURVE",
"201 957 OFFCURVE",
"254 957 QCURVE SMOOTH",
"258 957 LINE SMOOTH",
"311 957 OFFCURVE",
"383 883 OFFCURVE",
"383 781 OFFCURVE",
"311 707 OFFCURVE",
"258 707 QCURVE SMOOTH",
"254 707 LINE SMOOTH"
);
}
);
};
components = (
{
name = pixel.2;
transform = "{1, 0, 0, 1, 192, 256}";
},
{
name = pixel.6;
transform = "{1, 0, 0, 1, 0, 384}";
},
{
name = pixel.1;
transform = "{1, 0, 0, 1, 64, 512}";
},
{
name = pixel.2;
transform = "{1, 0, 0, 1, 192, 512}";
},
{
name = pixel.3;
transform = "{1, 0, 0, 1, 128, 640}";
},
{
name = pixel.2;
transform = "{1, 0, 0, 1, 192, 768}";
}
);
layerId = "164C8123-3F0E-4C99-877D-0E85C432A9CE";
width = 512;
},
{
components = (
{
name = pixel.2;
transform = "{1, 0, 0, 1, 192, 256}";
},
{
name = pixel.6;
transform = "{1, 0, 0, 1, 0, 384}";
},
{
name = pixel.1;
transform = "{1, 0, 0, 1, 64, 512}";
},
{
name = pixel.2;
transform = "{1, 0, 0, 1, 192, 512}";
},
{
name = pixel.3;
transform = "{1, 0, 0, 1, 128, 640}";
},
{
name = pixel.2;
transform = "{1, 0, 0, 1, 192, 768}";
}
);
layerId = "EDC3ADDC-530C-4ECE-AAC6-732B149A8D4A";
width = 512;
},
{
components = (
{
name = pixel.2;
transform = "{1, 0, 0, 1, 192, 256}";
},
{
name = pixel.6;
transform = "{1, 0, 0, 1, 0, 384}";
},
{
name = pixel.1;
transform = "{1, 0, 0, 1, 64, 512}";
},
{
name = pixel.2;
transform = "{1, 0, 0, 1, 192, 512}";
},
{
name = pixel.3;
transform = "{1, 0, 0, 1, 128, 640}";
},
{
name = pixel.2;
transform = "{1, 0, 0, 1, 192, 768}";
}
);
layerId = "38088322-78A3-4F4F-B46E-F8355B0BCD96";
width = 512;
}
);
unicode = 2074;
},
{
color = 6;
glyphname = onehalf;
layers = (
{
components = (
{
name = one.dnom;
transform = "{1, 0, 0, 1, -63, 512}";
},
{
name = fraction;
},
{
name = two.dnom;
transform = "{1, 0, 0, 1, 192, 0}";
}
);
layerId = "EF047752-ED93-49D3-A4D1-D66A6AAE90C7";
width = 512;
},
{
background = {
paths = (
{
closed = 1;
nodes = (
"329 -189 OFFCURVE",
"257 -115 OFFCURVE",
"257 -13 OFFCURVE",
"329 61 OFFCURVE",
"382 61 QCURVE SMOOTH",
"450 61 LINE SMOOTH",
"503 61 OFFCURVE",
"575 -13 OFFCURVE",
"575 -115 OFFCURVE",
"503 -189 OFFCURVE",
"450 -189 QCURVE SMOOTH",
"382 -189 LINE SMOOTH"
);
},
{
closed = 1;
nodes = (
"73 -61 OFFCURVE",
"1 13 OFFCURVE",
"1 115 OFFCURVE",
"73 189 OFFCURVE",
"126 189 QCURVE SMOOTH",
"130 189 LINE SMOOTH",
"183 189 OFFCURVE",
"255 115 OFFCURVE",
"255 13 OFFCURVE",
"183 -61 OFFCURVE",
"130 -61 QCURVE SMOOTH",
"126 -61 LINE SMOOTH"
);
},
{
closed = 1;
nodes = (
"393 -61 OFFCURVE",
"321 13 OFFCURVE",
"321 115 OFFCURVE",
"393 189 OFFCURVE",
"446 189 QCURVE SMOOTH",
"386 189 LINE SMOOTH",
"439 189 OFFCURVE",
"511 115 OFFCURVE",
"511 13 OFFCURVE",
"439 -61 OFFCURVE",
"386 -61 QCURVE SMOOTH",
"446 -61 LINE SMOOTH"
);
},
{
closed = 1;
nodes = (
"137 67 OFFCURVE",
"65 141 OFFCURVE",
"65 243 OFFCURVE",
"137 317 OFFCURVE",
"190 317 QCURVE SMOOTH",
"194 317 LINE SMOOTH",
"247 317 OFFCURVE",
"319 243 OFFCURVE",
"319 141 OFFCURVE",
"247 67 OFFCURVE",
"194 67 QCURVE SMOOTH",
"190 67 LINE SMOOTH"
);
},
{
closed = 1;
nodes = (
"457 67 OFFCURVE",
"385 141 OFFCURVE",
"385 243 OFFCURVE",
"457 317 OFFCURVE",
"510 317 QCURVE SMOOTH",
"450 317 LINE SMOOTH",
"503 317 OFFCURVE",
"575 243 OFFCURVE",
"575 141 OFFCURVE",
"503 67 OFFCURVE",
"450 67 QCURVE SMOOTH",
"510 67 LINE SMOOTH"
);
},
{
closed = 1;
nodes = (
"201 195 OFFCURVE",
"129 269 OFFCURVE",
"129 371 OFFCURVE",
"201 445 OFFCURVE",
"254 445 QCURVE SMOOTH",
"258 445 LINE SMOOTH",
"311 445 OFFCURVE",
"383 371 OFFCURVE",
"383 269 OFFCURVE",
"311 195 OFFCURVE",
"258 195 QCURVE SMOOTH",
"254 195 LINE SMOOTH"
);
},
{
closed = 1;
nodes = (
"393 195 OFFCURVE",
"321 269 OFFCURVE",
"321 371 OFFCURVE",
"393 445 OFFCURVE",
"446 445 QCURVE SMOOTH",
"450 445 LINE SMOOTH",
"503 445 OFFCURVE",
"575 371 OFFCURVE",
"575 269 OFFCURVE",
"503 195 OFFCURVE",
"450 195 QCURVE SMOOTH",
"446 195 LINE SMOOTH"
);
},
{
closed = 1;
nodes = (
"137 323 OFFCURVE",
"65 397 OFFCURVE",
"65 499 OFFCURVE",
"137 573 OFFCURVE",
"190 573 QCURVE SMOOTH",
"130 573 LINE SMOOTH",
"183 573 OFFCURVE",
"255 499 OFFCURVE",
"255 397 OFFCURVE",
"183 323 OFFCURVE",
"130 323 QCURVE SMOOTH",
"190 323 LINE SMOOTH"
);
},
{
closed = 1;
nodes = (
"265 323 OFFCURVE",
"193 397 OFFCURVE",
"193 499 OFFCURVE",
"265 573 OFFCURVE",
"318 573 QCURVE SMOOTH",
"322 573 LINE SMOOTH",
"375 573 OFFCURVE",
"447 499 OFFCURVE",
"447 397 OFFCURVE",
"375 323 OFFCURVE",
"322 323 QCURVE SMOOTH",
"318 323 LINE SMOOTH"
);
},
{
closed = 1;
nodes = (
"137 451 OFFCURVE",
"65 525 OFFCURVE",
"65 627 OFFCURVE",
"137 701 OFFCURVE",
"190 701 QCURVE SMOOTH",
"130 701 LINE SMOOTH",
"183 701 OFFCURVE",
"255 627 OFFCURVE",
"255 525 OFFCURVE",
"183 451 OFFCURVE",
"130 451 QCURVE SMOOTH",
"190 451 LINE SMOOTH"
);
},
{
closed = 1;
nodes = (
"329 451 OFFCURVE",
"257 525 OFFCURVE",
"257 627 OFFCURVE",
"329 701 OFFCURVE",
"382 701 QCURVE SMOOTH",
"386 701 LINE SMOOTH",
"439 701 OFFCURVE",
"511 627 OFFCURVE",
"511 525 OFFCURVE",
"439 451 OFFCURVE",
"386 451 QCURVE SMOOTH",
"382 451 LINE SMOOTH"
);
},
{
closed = 1;
nodes = (
"73 579 OFFCURVE",
"1 653 OFFCURVE",
"1 755 OFFCURVE",
"73 829 OFFCURVE",
"126 829 QCURVE SMOOTH",
"130 829 LINE SMOOTH",
"183 829 OFFCURVE",
"255 755 OFFCURVE",
"255 653 OFFCURVE",
"183 579 OFFCURVE",
"130 579 QCURVE SMOOTH",
"126 579 LINE SMOOTH"
);
},
{
closed = 1;
nodes = (
"393 579 OFFCURVE",
"321 653 OFFCURVE",
"321 755 OFFCURVE",
"393 829 OFFCURVE",
"446 829 QCURVE SMOOTH",
"450 829 LINE SMOOTH",
"503 829 OFFCURVE",
"575 755 OFFCURVE",
"575 653 OFFCURVE",
"503 579 OFFCURVE",
"450 579 QCURVE SMOOTH",
"446 579 LINE SMOOTH"
);
},
{
closed = 1;
nodes = (
"137 707 OFFCURVE",
"65 781 OFFCURVE",
"65 883 OFFCURVE",
"137 957 OFFCURVE",
"190 957 QCURVE SMOOTH",
"130 957 LINE SMOOTH",
"183 957 OFFCURVE",
"255 883 OFFCURVE",
"255 781 OFFCURVE",
"183 707 OFFCURVE",
"130 707 QCURVE SMOOTH",
"190 707 LINE SMOOTH"
);
}
);
};
components = (
{
name = one.dnom;
transform = "{1, 0, 0, 1, -63, 512}";
},
{
name = fraction;
},
{
name = two.dnom;
transform = "{1, 0, 0, 1, 192, 0}";
}
);
layerId = "164C8123-3F0E-4C99-877D-0E85C432A9CE";
width = 512;
},
{
components = (
{
name = one.dnom;
transform = "{1, 0, 0, 1, -63, 512}";
},
{
name = fraction;
},
{
name = two.dnom;
transform = "{1, 0, 0, 1, 192, 0}";
}
);
layerId = "EDC3ADDC-530C-4ECE-AAC6-732B149A8D4A";
width = 512;
},
{
components = (
{
name = one.dnom;
transform = "{1, 0, 0, 1, -63, 512}";
},
{
name = fraction;
},
{
name = two.dnom;
transform = "{1, 0, 0, 1, 192, 0}";
}
);
layerId = "38088322-78A3-4F4F-B46E-F8355B0BCD96";
width = 512;
}
);
unicode = 00BD;
},
{
color = 6;
glyphname = onequarter;
layers = (
{
components = (
{
name = one.dnom;
transform = "{1, 0, 0, 1, -63, 512}";
},
{
name = fraction;
},
{
name = four.dnom;
transform = "{1, 0, 0, 1, 192, 0}";
}
);
layerId = "EF047752-ED93-49D3-A4D1-D66A6AAE90C7";
width = 512;
},
{
background = {
paths = (
{
closed = 1;
nodes = (
"457 -189 OFFCURVE",
"385 -115 OFFCURVE",
"385 -13 OFFCURVE",
"457 61 OFFCURVE",
"510 61 QCURVE SMOOTH",
"450 61 LINE SMOOTH",
"503 61 OFFCURVE",
"575 -13 OFFCURVE",
"575 -115 OFFCURVE",
"503 -189 OFFCURVE",
"450 -189 QCURVE SMOOTH",
"510 -189 LINE SMOOTH"
);
},
{
closed = 1;
nodes = (
"73 -61 OFFCURVE",
"1 13 OFFCURVE",
"1 115 OFFCURVE",
"73 189 OFFCURVE",
"126 189 QCURVE SMOOTH",
"130 189 LINE SMOOTH",
"183 189 OFFCURVE",
"255 115 OFFCURVE",
"255 13 OFFCURVE",
"183 -61 OFFCURVE",
"130 -61 QCURVE SMOOTH",
"126 -61 LINE SMOOTH"
);
},
{
closed = 1;
nodes = (
"329 -61 OFFCURVE",
"257 13 OFFCURVE",
"257 115 OFFCURVE",
"329 189 OFFCURVE",
"382 189 QCURVE SMOOTH",
"450 189 LINE SMOOTH",
"503 189 OFFCURVE",
"575 115 OFFCURVE",
"575 13 OFFCURVE",
"503 -61 OFFCURVE",
"450 -61 QCURVE SMOOTH",
"382 -61 LINE SMOOTH"
);
},
{
closed = 1;
nodes = (
"137 67 OFFCURVE",
"65 141 OFFCURVE",
"65 243 OFFCURVE",
"137 317 OFFCURVE",
"190 317 QCURVE SMOOTH",
"194 317 LINE SMOOTH",
"247 317 OFFCURVE",
"319 243 OFFCURVE",
"319 141 OFFCURVE",
"247 67 OFFCURVE",
"194 67 QCURVE SMOOTH",
"190 67 LINE SMOOTH"
);
},
{
closed = 1;
nodes = (
"393 67 OFFCURVE",
"321 141 OFFCURVE",
"321 243 OFFCURVE",
"393 317 OFFCURVE",
"446 317 QCURVE SMOOTH",
"450 317 LINE SMOOTH",
"503 317 OFFCURVE",
"575 243 OFFCURVE",
"575 141 OFFCURVE",
"503 67 OFFCURVE",
"450 67 QCURVE SMOOTH",
"446 67 LINE SMOOTH"
);
},
{
closed = 1;
nodes = (
"201 195 OFFCURVE",
"129 269 OFFCURVE",
"129 371 OFFCURVE",
"201 445 OFFCURVE",
"254 445 QCURVE SMOOTH",
"258 445 LINE SMOOTH",
"311 445 OFFCURVE",
"383 371 OFFCURVE",
"383 269 OFFCURVE",
"311 195 OFFCURVE",
"258 195 QCURVE SMOOTH",
"254 195 LINE SMOOTH"
);
},
{
closed = 1;
nodes = (
"457 195 OFFCURVE",
"385 269 OFFCURVE",
"385 371 OFFCURVE",
"457 445 OFFCURVE",
"510 445 QCURVE SMOOTH",
"450 445 LINE SMOOTH",
"503 445 OFFCURVE",
"575 371 OFFCURVE",
"575 269 OFFCURVE",
"503 195 OFFCURVE",
"450 195 QCURVE SMOOTH",
"510 195 LINE SMOOTH"
);
},
{
closed = 1;
nodes = (
"137 323 OFFCURVE",
"65 397 OFFCURVE",
"65 499 OFFCURVE",
"137 573 OFFCURVE",
"190 573 QCURVE SMOOTH",
"130 573 LINE SMOOTH",
"183 573 OFFCURVE",
"255 499 OFFCURVE",
"255 397 OFFCURVE",
"183 323 OFFCURVE",
"130 323 QCURVE SMOOTH",
"190 323 LINE SMOOTH"
);
},
{
closed = 1;
nodes = (
"265 323 OFFCURVE",
"193 397 OFFCURVE",
"193 499 OFFCURVE",
"265 573 OFFCURVE",
"318 573 QCURVE SMOOTH",
"322 573 LINE SMOOTH",
"375 573 OFFCURVE",
"447 499 OFFCURVE",
"447 397 OFFCURVE",
"375 323 OFFCURVE",
"322 323 QCURVE SMOOTH",
"318 323 LINE SMOOTH"
);
},
{
closed = 1;
nodes = (
"137 451 OFFCURVE",
"65 525 OFFCURVE",
"65 627 OFFCURVE",
"137 701 OFFCURVE",
"190 701 QCURVE SMOOTH",
"130 701 LINE SMOOTH",
"183 701 OFFCURVE",
"255 627 OFFCURVE",
"255 525 OFFCURVE",
"183 451 OFFCURVE",
"130 451 QCURVE SMOOTH",
"190 451 LINE SMOOTH"
);
},
{
closed = 1;
nodes = (
"329 451 OFFCURVE",
"257 525 OFFCURVE",
"257 627 OFFCURVE",
"329 701 OFFCURVE",
"382 701 QCURVE SMOOTH",
"386 701 LINE SMOOTH",
"439 701 OFFCURVE",
"511 627 OFFCURVE",
"511 525 OFFCURVE",
"439 451 OFFCURVE",
"386 451 QCURVE SMOOTH",
"382 451 LINE SMOOTH"
);
},
{
closed = 1;
nodes = (
"73 579 OFFCURVE",
"1 653 OFFCURVE",
"1 755 OFFCURVE",
"73 829 OFFCURVE",
"126 829 QCURVE SMOOTH",
"130 829 LINE SMOOTH",
"183 829 OFFCURVE",
"255 755 OFFCURVE",
"255 653 OFFCURVE",
"183 579 OFFCURVE",
"130 579 QCURVE SMOOTH",
"126 579 LINE SMOOTH"
);
},
{
closed = 1;
nodes = (
"393 579 OFFCURVE",
"321 653 OFFCURVE",
"321 755 OFFCURVE",
"393 829 OFFCURVE",
"446 829 QCURVE SMOOTH",
"450 829 LINE SMOOTH",
"503 829 OFFCURVE",
"575 755 OFFCURVE",
"575 653 OFFCURVE",
"503 579 OFFCURVE",
"450 579 QCURVE SMOOTH",
"446 579 LINE SMOOTH"
);
},
{
closed = 1;
nodes = (
"137 707 OFFCURVE",
"65 781 OFFCURVE",
"65 883 OFFCURVE",
"137 957 OFFCURVE",
"190 957 QCURVE SMOOTH",
"130 957 LINE SMOOTH",
"183 957 OFFCURVE",
"255 883 OFFCURVE",
"255 781 OFFCURVE",
"183 707 OFFCURVE",
"130 707 QCURVE SMOOTH",
"190 707 LINE SMOOTH"
);
}
);
};
components = (
{
name = one.dnom;
transform = "{1, 0, 0, 1, -63, 512}";
},
{
name = fraction;
},
{
name = four.dnom;
transform = "{1, 0, 0, 1, 192, 0}";
}
);
layerId = "164C8123-3F0E-4C99-877D-0E85C432A9CE";
width = 512;
},
{
components = (
{
name = one.dnom;
transform = "{1, 0, 0, 1, -63, 512}";
},
{
name = fraction;
},
{
name = four.dnom;
transform = "{1, 0, 0, 1, 192, 0}";
}
);
layerId = "EDC3ADDC-530C-4ECE-AAC6-732B149A8D4A";
width = 512;
},
{
components = (
{
name = one.dnom;
transform = "{1, 0, 0, 1, -63, 512}";
},
{
name = fraction;
},
{
name = four.dnom;
transform = "{1, 0, 0, 1, 192, 0}";
}
);
layerId = "38088322-78A3-4F4F-B46E-F8355B0BCD96";
width = 512;
}
);
unicode = 00BC;
},
{
color = 6;
glyphname = threequarters;
layers = (
{
components = (
{
name = three.dnom;
transform = "{1, 0, 0, 1, -128, 512}";
},
{
name = fraction;
},
{
name = four.dnom;
transform = "{1, 0, 0, 1, 192, 0}";
}
);
layerId = "EF047752-ED93-49D3-A4D1-D66A6AAE90C7";
width = 512;
},
{
background = {
paths = (
{
closed = 1;
nodes = (
"457 -189 OFFCURVE",
"385 -115 OFFCURVE",
"385 -13 OFFCURVE",
"457 61 OFFCURVE",
"510 61 QCURVE SMOOTH",
"450 61 LINE SMOOTH",
"503 61 OFFCURVE",
"575 -13 OFFCURVE",
"575 -115 OFFCURVE",
"503 -189 OFFCURVE",
"450 -189 QCURVE SMOOTH",
"510 -189 LINE SMOOTH"
);
},
{
closed = 1;
nodes = (
"73 -61 OFFCURVE",
"1 13 OFFCURVE",
"1 115 OFFCURVE",
"73 189 OFFCURVE",
"126 189 QCURVE SMOOTH",
"130 189 LINE SMOOTH",
"183 189 OFFCURVE",
"255 115 OFFCURVE",
"255 13 OFFCURVE",
"183 -61 OFFCURVE",
"130 -61 QCURVE SMOOTH",
"126 -61 LINE SMOOTH"
);
},
{
closed = 1;
nodes = (
"329 -61 OFFCURVE",
"257 13 OFFCURVE",
"257 115 OFFCURVE",
"329 189 OFFCURVE",
"382 189 QCURVE SMOOTH",
"450 189 LINE SMOOTH",
"503 189 OFFCURVE",
"575 115 OFFCURVE",
"575 13 OFFCURVE",
"503 -61 OFFCURVE",
"450 -61 QCURVE SMOOTH",
"382 -61 LINE SMOOTH"
);
},
{
closed = 1;
nodes = (
"137 67 OFFCURVE",
"65 141 OFFCURVE",
"65 243 OFFCURVE",
"137 317 OFFCURVE",
"190 317 QCURVE SMOOTH",
"194 317 LINE SMOOTH",
"247 317 OFFCURVE",
"319 243 OFFCURVE",
"319 141 OFFCURVE",
"247 67 OFFCURVE",
"194 67 QCURVE SMOOTH",
"190 67 LINE SMOOTH"
);
},
{
closed = 1;
nodes = (
"393 67 OFFCURVE",
"321 141 OFFCURVE",
"321 243 OFFCURVE",
"393 317 OFFCURVE",
"446 317 QCURVE SMOOTH",
"450 317 LINE SMOOTH",
"503 317 OFFCURVE",
"575 243 OFFCURVE",
"575 141 OFFCURVE",
"503 67 OFFCURVE",
"450 67 QCURVE SMOOTH",
"446 67 LINE SMOOTH"
);
},
{
closed = 1;
nodes = (
"9 195 OFFCURVE",
"-63 269 OFFCURVE",
"-63 371 OFFCURVE",
"9 445 OFFCURVE",
"62 445 QCURVE SMOOTH",
"66 445 LINE SMOOTH",
"119 445 OFFCURVE",
"191 371 OFFCURVE",
"191 269 OFFCURVE",
"119 195 OFFCURVE",
"66 195 QCURVE SMOOTH",
"62 195 LINE SMOOTH"
);
},
{
closed = 1;
nodes = (
"201 195 OFFCURVE",
"129 269 OFFCURVE",
"129 371 OFFCURVE",
"201 445 OFFCURVE",
"254 445 QCURVE SMOOTH",
"258 445 LINE SMOOTH",
"311 445 OFFCURVE",
"383 371 OFFCURVE",
"383 269 OFFCURVE",
"311 195 OFFCURVE",
"258 195 QCURVE SMOOTH",
"254 195 LINE SMOOTH"
);
},
{
closed = 1;
nodes = (
"457 195 OFFCURVE",
"385 269 OFFCURVE",
"385 371 OFFCURVE",
"457 445 OFFCURVE",
"510 445 QCURVE SMOOTH",
"450 445 LINE SMOOTH",
"503 445 OFFCURVE",
"575 371 OFFCURVE",
"575 269 OFFCURVE",
"503 195 OFFCURVE",
"450 195 QCURVE SMOOTH",
"510 195 LINE SMOOTH"
);
},
{
closed = 1;
nodes = (
"137 323 OFFCURVE",
"65 397 OFFCURVE",
"65 499 OFFCURVE",
"137 573 OFFCURVE",
"190 573 QCURVE SMOOTH",
"130 573 LINE SMOOTH",
"183 573 OFFCURVE",
"255 499 OFFCURVE",
"255 397 OFFCURVE",
"183 323 OFFCURVE",
"130 323 QCURVE SMOOTH",
"190 323 LINE SMOOTH"
);
},
{
closed = 1;
nodes = (
"265 323 OFFCURVE",
"193 397 OFFCURVE",
"193 499 OFFCURVE",
"265 573 OFFCURVE",
"318 573 QCURVE SMOOTH",
"322 573 LINE SMOOTH",
"375 573 OFFCURVE",
"447 499 OFFCURVE",
"447 397 OFFCURVE",
"375 323 OFFCURVE",
"322 323 QCURVE SMOOTH",
"318 323 LINE SMOOTH"
);
},
{
closed = 1;
nodes = (
"73 451 OFFCURVE",
"1 525 OFFCURVE",
"1 627 OFFCURVE",
"73 701 OFFCURVE",
"126 701 QCURVE SMOOTH",
"130 701 LINE SMOOTH",
"183 701 OFFCURVE",
"255 627 OFFCURVE",
"255 525 OFFCURVE",
"183 451 OFFCURVE",
"130 451 QCURVE SMOOTH",
"126 451 LINE SMOOTH"
);
},
{
closed = 1;
nodes = (
"329 451 OFFCURVE",
"257 525 OFFCURVE",
"257 627 OFFCURVE",
"329 701 OFFCURVE",
"382 701 QCURVE SMOOTH",
"386 701 LINE SMOOTH",
"439 701 OFFCURVE",
"511 627 OFFCURVE",
"511 525 OFFCURVE",
"439 451 OFFCURVE",
"386 451 QCURVE SMOOTH",
"382 451 LINE SMOOTH"
);
},
{
closed = 1;
nodes = (
"137 579 OFFCURVE",
"65 653 OFFCURVE",
"65 755 OFFCURVE",
"137 829 OFFCURVE",
"190 829 QCURVE SMOOTH",
"130 829 LINE SMOOTH",
"183 829 OFFCURVE",
"255 755 OFFCURVE",
"255 653 OFFCURVE",
"183 579 OFFCURVE",
"130 579 QCURVE SMOOTH",
"190 579 LINE SMOOTH"
);
},
{
closed = 1;
nodes = (
"393 579 OFFCURVE",
"321 653 OFFCURVE",
"321 755 OFFCURVE",
"393 829 OFFCURVE",
"446 829 QCURVE SMOOTH",
"450 829 LINE SMOOTH",
"503 829 OFFCURVE",
"575 755 OFFCURVE",
"575 653 OFFCURVE",
"503 579 OFFCURVE",
"450 579 QCURVE SMOOTH",
"446 579 LINE SMOOTH"
);
},
{
closed = 1;
nodes = (
"9 707 OFFCURVE",
"-63 781 OFFCURVE",
"-63 883 OFFCURVE",
"9 957 OFFCURVE",
"62 957 QCURVE SMOOTH",
"66 957 LINE SMOOTH",
"119 957 OFFCURVE",
"191 883 OFFCURVE",
"191 781 OFFCURVE",
"119 707 OFFCURVE",
"66 707 QCURVE SMOOTH",
"62 707 LINE SMOOTH"
);
}
);
};
components = (
{
name = three.dnom;
transform = "{1, 0, 0, 1, -128, 512}";
},
{
name = fraction;
},
{
name = four.dnom;
transform = "{1, 0, 0, 1, 192, 0}";
}
);
layerId = "164C8123-3F0E-4C99-877D-0E85C432A9CE";
width = 512;
},
{
components = (
{
name = three.dnom;
transform = "{1, 0, 0, 1, -128, 512}";
},
{
name = fraction;
},
{
name = four.dnom;
transform = "{1, 0, 0, 1, 192, 0}";
}
);
layerId = "EDC3ADDC-530C-4ECE-AAC6-732B149A8D4A";
width = 512;
},
{
components = (
{
name = three.dnom;
transform = "{1, 0, 0, 1, -128, 512}";
},
{
name = fraction;
},
{
name = four.dnom;
transform = "{1, 0, 0, 1, 192, 0}";
}
);
layerId = "38088322-78A3-4F4F-B46E-F8355B0BCD96";
width = 512;
}
);
unicode = 00BE;
},
{
color = 3;
glyphname = ellipsis;
layers = (
{
components = (
{
name = pixel.1;
transform = "{1, 0, 0, 1, 64, 0}";
},
{
name = pixel.1;
transform = "{1, 0, 0, 1, 192, 0}";
},
{
name = pixel.1;
transform = "{1, 0, 0, 1, 320, 0}";
},
{
name = pixel.1;
transform = "{1, 0, 0, 1, 64, 128}";
},
{
name = pixel.1;
transform = "{1, 0, 0, 1, 192, 128}";
},
{
name = pixel.1;
transform = "{1, 0, 0, 1, 320, 128}";
}
);
layerId = "EF047752-ED93-49D3-A4D1-D66A6AAE90C7";
width = 512;
},
{
background = {
paths = (
{
closed = 1;
nodes = (
"73 -61 OFFCURVE",
"1 13 OFFCURVE",
"1 115 OFFCURVE",
"73 189 OFFCURVE",
"126 189 QCURVE SMOOTH",
"66 189 LINE SMOOTH",
"119 189 OFFCURVE",
"191 115 OFFCURVE",
"191 13 OFFCURVE",
"119 -61 OFFCURVE",
"66 -61 QCURVE SMOOTH",
"126 -61 LINE SMOOTH"
);
},
{
closed = 1;
nodes = (
"201 -61 OFFCURVE",
"129 13 OFFCURVE",
"129 115 OFFCURVE",
"201 189 OFFCURVE",
"254 189 QCURVE SMOOTH",
"194 189 LINE SMOOTH",
"247 189 OFFCURVE",
"319 115 OFFCURVE",
"319 13 OFFCURVE",
"247 -61 OFFCURVE",
"194 -61 QCURVE SMOOTH",
"254 -61 LINE SMOOTH"
);
},
{
closed = 1;
nodes = (
"329 -61 OFFCURVE",
"257 13 OFFCURVE",
"257 115 OFFCURVE",
"329 189 OFFCURVE",
"382 189 QCURVE SMOOTH",
"322 189 LINE SMOOTH",
"375 189 OFFCURVE",
"447 115 OFFCURVE",
"447 13 OFFCURVE",
"375 -61 OFFCURVE",
"322 -61 QCURVE SMOOTH",
"382 -61 LINE SMOOTH"
);
},
{
closed = 1;
nodes = (
"73 67 OFFCURVE",
"1 141 OFFCURVE",
"1 243 OFFCURVE",
"73 317 OFFCURVE",
"126 317 QCURVE SMOOTH",
"66 317 LINE SMOOTH",
"119 317 OFFCURVE",
"191 243 OFFCURVE",
"191 141 OFFCURVE",
"119 67 OFFCURVE",
"66 67 QCURVE SMOOTH",
"126 67 LINE SMOOTH"
);
},
{
closed = 1;
nodes = (
"201 67 OFFCURVE",
"129 141 OFFCURVE",
"129 243 OFFCURVE",
"201 317 OFFCURVE",
"254 317 QCURVE SMOOTH",
"194 317 LINE SMOOTH",
"247 317 OFFCURVE",
"319 243 OFFCURVE",
"319 141 OFFCURVE",
"247 67 OFFCURVE",
"194 67 QCURVE SMOOTH",
"254 67 LINE SMOOTH"
);
},
{
closed = 1;
nodes = (
"329 67 OFFCURVE",
"257 141 OFFCURVE",
"257 243 OFFCURVE",
"329 317 OFFCURVE",
"382 317 QCURVE SMOOTH",
"322 317 LINE SMOOTH",
"375 317 OFFCURVE",
"447 243 OFFCURVE",
"447 141 OFFCURVE",
"375 67 OFFCURVE",
"322 67 QCURVE SMOOTH",
"382 67 LINE SMOOTH"
);
}
);
};
components = (
{
name = pixel.1;
transform = "{1, 0, 0, 1, 64, 0}";
},
{
name = pixel.1;
transform = "{1, 0, 0, 1, 192, 0}";
},
{
name = pixel.1;
transform = "{1, 0, 0, 1, 320, 0}";
},
{
name = pixel.1;
transform = "{1, 0, 0, 1, 64, 128}";
},
{
name = pixel.1;
transform = "{1, 0, 0, 1, 192, 128}";
},
{
name = pixel.1;
transform = "{1, 0, 0, 1, 320, 128}";
}
);
layerId = "164C8123-3F0E-4C99-877D-0E85C432A9CE";
width = 512;
},
{
components = (
{
name = pixel.1;
transform = "{1, 0, 0, 1, 64, 0}";
},
{
name = pixel.1;
transform = "{1, 0, 0, 1, 192, 0}";
},
{
name = pixel.1;
transform = "{1, 0, 0, 1, 320, 0}";
},
{
name = pixel.1;
transform = "{1, 0, 0, 1, 64, 128}";
},
{
name = pixel.1;
transform = "{1, 0, 0, 1, 192, 128}";
},
{
name = pixel.1;
transform = "{1, 0, 0, 1, 320, 128}";
}
);
layerId = "EDC3ADDC-530C-4ECE-AAC6-732B149A8D4A";
width = 512;
},
{
components = (
{
name = pixel.1;
transform = "{1, 0, 0, 1, 64, 0}";
},
{
name = pixel.1;
transform = "{1, 0, 0, 1, 192, 0}";
},
{
name = pixel.1;
transform = "{1, 0, 0, 1, 320, 0}";
},
{
name = pixel.1;
transform = "{1, 0, 0, 1, 64, 128}";
},
{
name = pixel.1;
transform = "{1, 0, 0, 1, 192, 128}";
},
{
name = pixel.1;
transform = "{1, 0, 0, 1, 320, 128}";
}
);
layerId = "38088322-78A3-4F4F-B46E-F8355B0BCD96";
width = 512;
}
);
unicode = 2026;
},
{
glyphname = .notdef;
layers = (
{
components = (
{
name = pixel.8;
transform = "{1, 0, 0, 1, 0, -128}";
},
{
name = pixel.1;
},
{
name = pixel.3;
transform = "{1, 0, 0, 1, 192, 0}";
},
{
name = pixel.1;
transform = "{1, 0, 0, 1, 448, 0}";
},
{
name = pixel.3;
transform = "{1, 0, 0, 1, 0, 128}";
},
{
name = pixel.1;
transform = "{1, 0, 0, 1, 256, 128}";
},
{
name = pixel.2;
transform = "{1, 0, 0, 1, 384, 128}";
},
{
name = pixel.3;
transform = "{1, 0, 0, 1, 0, 256}";
},
{
name = pixel.3;
transform = "{1, 0, 0, 1, 320, 256}";
},
{
name = pixel.3;
transform = "{1, 0, 0, 1, 0, 384}";
},
{
name = pixel.3;
transform = "{1, 0, 0, 1, 320, 384}";
},
{
name = pixel.3;
transform = "{1, 0, 0, 1, 0, 512}";
},
{
name = pixel.1;
transform = "{1, 0, 0, 1, 256, 512}";
},
{
name = pixel.2;
transform = "{1, 0, 0, 1, 384, 512}";
},
{
name = pixel.1;
transform = "{1, 0, 0, 1, 0, 640}";
},
{
name = pixel.2;
transform = "{1, 0, 0, 1, 256, 640}";
},
{
name = pixel.1;
transform = "{1, 0, 0, 1, 448, 640}";
},
{
name = pixel.8;
transform = "{1, 0, 0, 1, 0, 768}";
}
);
layerId = "EF047752-ED93-49D3-A4D1-D66A6AAE90C7";
width = 512;
},
{
background = {
paths = (
{
closed = 1;
nodes = (
"17 -189 OFFCURVE",
"-63 -115 OFFCURVE",
"-63 -13 OFFCURVE",
"17 61 OFFCURVE",
"87 61 QCURVE SMOOTH",
"425 61 LINE SMOOTH",
"495 61 OFFCURVE",
"575 -13 OFFCURVE",
"575 -115 OFFCURVE",
"495 -189 OFFCURVE",
"425 -189 QCURVE SMOOTH",
"87 -189 LINE SMOOTH"
);
},
{
closed = 1;
nodes = (
"9 -61 OFFCURVE",
"-63 13 OFFCURVE",
"-63 115 OFFCURVE",
"9 189 OFFCURVE",
"62 189 QCURVE SMOOTH",
"2 189 LINE SMOOTH",
"55 189 OFFCURVE",
"127 115 OFFCURVE",
"127 13 OFFCURVE",
"55 -61 OFFCURVE",
"2 -61 QCURVE SMOOTH",
"62 -61 LINE SMOOTH"
);
},
{
closed = 1;
nodes = (
"201 -61 OFFCURVE",
"129 13 OFFCURVE",
"129 115 OFFCURVE",
"201 189 OFFCURVE",
"254 189 QCURVE SMOOTH",
"322 189 LINE SMOOTH",
"375 189 OFFCURVE",
"447 115 OFFCURVE",
"447 13 OFFCURVE",
"375 -61 OFFCURVE",
"322 -61 QCURVE SMOOTH",
"254 -61 LINE SMOOTH"
);
},
{
closed = 1;
nodes = (
"457 -61 OFFCURVE",
"385 13 OFFCURVE",
"385 115 OFFCURVE",
"457 189 OFFCURVE",
"510 189 QCURVE SMOOTH",
"450 189 LINE SMOOTH",
"503 189 OFFCURVE",
"575 115 OFFCURVE",
"575 13 OFFCURVE",
"503 -61 OFFCURVE",
"450 -61 QCURVE SMOOTH",
"510 -61 LINE SMOOTH"
);
},
{
closed = 1;
nodes = (
"9 67 OFFCURVE",
"-63 141 OFFCURVE",
"-63 243 OFFCURVE",
"9 317 OFFCURVE",
"62 317 QCURVE SMOOTH",
"130 317 LINE SMOOTH",
"183 317 OFFCURVE",
"255 243 OFFCURVE",
"255 141 OFFCURVE",
"183 67 OFFCURVE",
"130 67 QCURVE SMOOTH",
"62 67 LINE SMOOTH"
);
},
{
closed = 1;
nodes = (
"265 67 OFFCURVE",
"193 141 OFFCURVE",
"193 243 OFFCURVE",
"265 317 OFFCURVE",
"318 317 QCURVE SMOOTH",
"258 317 LINE SMOOTH",
"311 317 OFFCURVE",
"383 243 OFFCURVE",
"383 141 OFFCURVE",
"311 67 OFFCURVE",
"258 67 QCURVE SMOOTH",
"318 67 LINE SMOOTH"
);
},
{
closed = 1;
nodes = (
"393 67 OFFCURVE",
"321 141 OFFCURVE",
"321 243 OFFCURVE",
"393 317 OFFCURVE",
"446 317 QCURVE SMOOTH",
"450 317 LINE SMOOTH",
"503 317 OFFCURVE",
"575 243 OFFCURVE",
"575 141 OFFCURVE",
"503 67 OFFCURVE",
"450 67 QCURVE SMOOTH",
"446 67 LINE SMOOTH"
);
},
{
closed = 1;
nodes = (
"9 195 OFFCURVE",
"-63 269 OFFCURVE",
"-63 371 OFFCURVE",
"9 445 OFFCURVE",
"62 445 QCURVE SMOOTH",
"130 445 LINE SMOOTH",
"183 445 OFFCURVE",
"255 371 OFFCURVE",
"255 269 OFFCURVE",
"183 195 OFFCURVE",
"130 195 QCURVE SMOOTH",
"62 195 LINE SMOOTH"
);
},
{
closed = 1;
nodes = (
"329 195 OFFCURVE",
"257 269 OFFCURVE",
"257 371 OFFCURVE",
"329 445 OFFCURVE",
"382 445 QCURVE SMOOTH",
"450 445 LINE SMOOTH",
"503 445 OFFCURVE",
"575 371 OFFCURVE",
"575 269 OFFCURVE",
"503 195 OFFCURVE",
"450 195 QCURVE SMOOTH",
"382 195 LINE SMOOTH"
);
},
{
closed = 1;
nodes = (
"9 323 OFFCURVE",
"-63 397 OFFCURVE",
"-63 499 OFFCURVE",
"9 573 OFFCURVE",
"62 573 QCURVE SMOOTH",
"130 573 LINE SMOOTH",
"183 573 OFFCURVE",
"255 499 OFFCURVE",
"255 397 OFFCURVE",
"183 323 OFFCURVE",
"130 323 QCURVE SMOOTH",
"62 323 LINE SMOOTH"
);
},
{
closed = 1;
nodes = (
"329 323 OFFCURVE",
"257 397 OFFCURVE",
"257 499 OFFCURVE",
"329 573 OFFCURVE",
"382 573 QCURVE SMOOTH",
"450 573 LINE SMOOTH",
"503 573 OFFCURVE",
"575 499 OFFCURVE",
"575 397 OFFCURVE",
"503 323 OFFCURVE",
"450 323 QCURVE SMOOTH",
"382 323 LINE SMOOTH"
);
},
{
closed = 1;
nodes = (
"9 451 OFFCURVE",
"-63 525 OFFCURVE",
"-63 627 OFFCURVE",
"9 701 OFFCURVE",
"62 701 QCURVE SMOOTH",
"130 701 LINE SMOOTH",
"183 701 OFFCURVE",
"255 627 OFFCURVE",
"255 525 OFFCURVE",
"183 451 OFFCURVE",
"130 451 QCURVE SMOOTH",
"62 451 LINE SMOOTH"
);
},
{
closed = 1;
nodes = (
"265 451 OFFCURVE",
"193 525 OFFCURVE",
"193 627 OFFCURVE",
"265 701 OFFCURVE",
"318 701 QCURVE SMOOTH",
"258 701 LINE SMOOTH",
"311 701 OFFCURVE",
"383 627 OFFCURVE",
"383 525 OFFCURVE",
"311 451 OFFCURVE",
"258 451 QCURVE SMOOTH",
"318 451 LINE SMOOTH"
);
},
{
closed = 1;
nodes = (
"393 451 OFFCURVE",
"321 525 OFFCURVE",
"321 627 OFFCURVE",
"393 701 OFFCURVE",
"446 701 QCURVE SMOOTH",
"450 701 LINE SMOOTH",
"503 701 OFFCURVE",
"575 627 OFFCURVE",
"575 525 OFFCURVE",
"503 451 OFFCURVE",
"450 451 QCURVE SMOOTH",
"446 451 LINE SMOOTH"
);
},
{
closed = 1;
nodes = (
"9 579 OFFCURVE",
"-63 653 OFFCURVE",
"-63 755 OFFCURVE",
"9 829 OFFCURVE",
"62 829 QCURVE SMOOTH",
"2 829 LINE SMOOTH",
"55 829 OFFCURVE",
"127 755 OFFCURVE",
"127 653 OFFCURVE",
"55 579 OFFCURVE",
"2 579 QCURVE SMOOTH",
"62 579 LINE SMOOTH"
);
},
{
closed = 1;
nodes = (
"265 579 OFFCURVE",
"193 653 OFFCURVE",
"193 755 OFFCURVE",
"265 829 OFFCURVE",
"318 829 QCURVE SMOOTH",
"322 829 LINE SMOOTH",
"375 829 OFFCURVE",
"447 755 OFFCURVE",
"447 653 OFFCURVE",
"375 579 OFFCURVE",
"322 579 QCURVE SMOOTH",
"318 579 LINE SMOOTH"
);
},
{
closed = 1;
nodes = (
"457 579 OFFCURVE",
"385 653 OFFCURVE",
"385 755 OFFCURVE",
"457 829 OFFCURVE",
"510 829 QCURVE SMOOTH",
"450 829 LINE SMOOTH",
"503 829 OFFCURVE",
"575 755 OFFCURVE",
"575 653 OFFCURVE",
"503 579 OFFCURVE",
"450 579 QCURVE SMOOTH",
"510 579 LINE SMOOTH"
);
},
{
closed = 1;
nodes = (
"17 707 OFFCURVE",
"-63 781 OFFCURVE",
"-63 883 OFFCURVE",
"17 957 OFFCURVE",
"87 957 QCURVE SMOOTH",
"425 957 LINE SMOOTH",
"495 957 OFFCURVE",
"575 883 OFFCURVE",
"575 781 OFFCURVE",
"495 707 OFFCURVE",
"425 707 QCURVE SMOOTH",
"87 707 LINE SMOOTH"
);
}
);
};
components = (
{
name = pixel.8;
transform = "{1, 0, 0, 1, 0, -128}";
},
{
name = pixel.1;
},
{
name = pixel.3;
transform = "{1, 0, 0, 1, 192, 0}";
},
{
name = pixel.1;
transform = "{1, 0, 0, 1, 448, 0}";
},
{
name = pixel.3;
transform = "{1, 0, 0, 1, 0, 128}";
},
{
name = pixel.1;
transform = "{1, 0, 0, 1, 256, 128}";
},
{
name = pixel.2;
transform = "{1, 0, 0, 1, 384, 128}";
},
{
name = pixel.3;
transform = "{1, 0, 0, 1, 0, 256}";
},
{
name = pixel.3;
transform = "{1, 0, 0, 1, 320, 256}";
},
{
name = pixel.3;
transform = "{1, 0, 0, 1, 0, 384}";
},
{
name = pixel.3;
transform = "{1, 0, 0, 1, 320, 384}";
},
{
name = pixel.3;
transform = "{1, 0, 0, 1, 0, 512}";
},
{
name = pixel.1;
transform = "{1, 0, 0, 1, 256, 512}";
},
{
name = pixel.2;
transform = "{1, 0, 0, 1, 384, 512}";
},
{
name = pixel.1;
transform = "{1, 0, 0, 1, 0, 640}";
},
{
name = pixel.2;
transform = "{1, 0, 0, 1, 256, 640}";
},
{
name = pixel.1;
transform = "{1, 0, 0, 1, 448, 640}";
},
{
name = pixel.8;
transform = "{1, 0, 0, 1, 0, 768}";
}
);
layerId = "164C8123-3F0E-4C99-877D-0E85C432A9CE";
width = 512;
},
{
components = (
{
name = pixel.8;
transform = "{1, 0, 0, 1, 0, -128}";
},
{
name = pixel.1;
},
{
name = pixel.3;
transform = "{1, 0, 0, 1, 192, 0}";
},
{
name = pixel.1;
transform = "{1, 0, 0, 1, 448, 0}";
},
{
name = pixel.3;
transform = "{1, 0, 0, 1, 0, 128}";
},
{
name = pixel.1;
transform = "{1, 0, 0, 1, 256, 128}";
},
{
name = pixel.2;
transform = "{1, 0, 0, 1, 384, 128}";
},
{
name = pixel.3;
transform = "{1, 0, 0, 1, 0, 256}";
},
{
name = pixel.3;
transform = "{1, 0, 0, 1, 320, 256}";
},
{
name = pixel.3;
transform = "{1, 0, 0, 1, 0, 384}";
},
{
name = pixel.3;
transform = "{1, 0, 0, 1, 320, 384}";
},
{
name = pixel.3;
transform = "{1, 0, 0, 1, 0, 512}";
},
{
name = pixel.1;
transform = "{1, 0, 0, 1, 256, 512}";
},
{
name = pixel.2;
transform = "{1, 0, 0, 1, 384, 512}";
},
{
name = pixel.1;
transform = "{1, 0, 0, 1, 0, 640}";
},
{
name = pixel.2;
transform = "{1, 0, 0, 1, 256, 640}";
},
{
name = pixel.1;
transform = "{1, 0, 0, 1, 448, 640}";
},
{
name = pixel.8;
transform = "{1, 0, 0, 1, 0, 768}";
}
);
layerId = "EDC3ADDC-530C-4ECE-AAC6-732B149A8D4A";
width = 512;
},
{
components = (
{
name = pixel.8;
transform = "{1, 0, 0, 1, 0, -128}";
},
{
name = pixel.1;
},
{
name = pixel.3;
transform = "{1, 0, 0, 1, 192, 0}";
},
{
name = pixel.1;
transform = "{1, 0, 0, 1, 448, 0}";
},
{
name = pixel.3;
transform = "{1, 0, 0, 1, 0, 128}";
},
{
name = pixel.1;
transform = "{1, 0, 0, 1, 256, 128}";
},
{
name = pixel.2;
transform = "{1, 0, 0, 1, 384, 128}";
},
{
name = pixel.3;
transform = "{1, 0, 0, 1, 0, 256}";
},
{
name = pixel.3;
transform = "{1, 0, 0, 1, 320, 256}";
},
{
name = pixel.3;
transform = "{1, 0, 0, 1, 0, 384}";
},
{
name = pixel.3;
transform = "{1, 0, 0, 1, 320, 384}";
},
{
name = pixel.3;
transform = "{1, 0, 0, 1, 0, 512}";
},
{
name = pixel.1;
transform = "{1, 0, 0, 1, 256, 512}";
},
{
name = pixel.2;
transform = "{1, 0, 0, 1, 384, 512}";
},
{
name = pixel.1;
transform = "{1, 0, 0, 1, 0, 640}";
},
{
name = pixel.2;
transform = "{1, 0, 0, 1, 256, 640}";
},
{
name = pixel.1;
transform = "{1, 0, 0, 1, 448, 640}";
},
{
name = pixel.8;
transform = "{1, 0, 0, 1, 0, 768}";
}
);
layerId = "38088322-78A3-4F4F-B46E-F8355B0BCD96";
width = 512;
}
);
},
{
glyphname = currency;
layers = (
{
components = (
{
name = pixel.1;
transform = "{1, 0, 0, 1, 64, 256}";
},
{
name = pixel.1;
transform = "{1, 0, 0, 1, 384, 256}";
},
{
name = pixel.4;
transform = "{1, 0, 0, 1, 128, 384}";
},
{
name = pixel.2;
transform = "{1, 0, 0, 1, 64, 512}";
},
{
name = pixel.2;
transform = "{1, 0, 0, 1, 320, 512}";
},
{
name = pixel.4;
transform = "{1, 0, 0, 1, 128, 640}";
},
{
name = pixel.1;
transform = "{1, 0, 0, 1, 64, 768}";
},
{
name = pixel.1;
transform = "{1, 0, 0, 1, 384, 768}";
}
);
layerId = "EF047752-ED93-49D3-A4D1-D66A6AAE90C7";
width = 512;
},
{
background = {
paths = (
{
closed = 1;
nodes = (
"73 195 OFFCURVE",
"1 269 OFFCURVE",
"1 371 OFFCURVE",
"73 445 OFFCURVE",
"126 445 QCURVE SMOOTH",
"66 445 LINE SMOOTH",
"119 445 OFFCURVE",
"191 371 OFFCURVE",
"191 269 OFFCURVE",
"119 195 OFFCURVE",
"66 195 QCURVE SMOOTH",
"126 195 LINE SMOOTH"
);
},
{
closed = 1;
nodes = (
"393 195 OFFCURVE",
"321 269 OFFCURVE",
"321 371 OFFCURVE",
"393 445 OFFCURVE",
"446 445 QCURVE SMOOTH",
"386 445 LINE SMOOTH",
"439 445 OFFCURVE",
"511 371 OFFCURVE",
"511 269 OFFCURVE",
"439 195 OFFCURVE",
"386 195 QCURVE SMOOTH",
"446 195 LINE SMOOTH"
);
},
{
closed = 1;
nodes = (
"145 323 OFFCURVE",
"65 397 OFFCURVE",
"65 499 OFFCURVE",
"145 573 OFFCURVE",
"215 573 QCURVE SMOOTH",
"297 573 LINE SMOOTH",
"367 573 OFFCURVE",
"447 499 OFFCURVE",
"447 397 OFFCURVE",
"367 323 OFFCURVE",
"297 323 QCURVE SMOOTH",
"215 323 LINE SMOOTH"
);
},
{
closed = 1;
nodes = (
"73 451 OFFCURVE",
"1 525 OFFCURVE",
"1 627 OFFCURVE",
"73 701 OFFCURVE",
"126 701 QCURVE SMOOTH",
"130 701 LINE SMOOTH",
"183 701 OFFCURVE",
"255 627 OFFCURVE",
"255 525 OFFCURVE",
"183 451 OFFCURVE",
"130 451 QCURVE SMOOTH",
"126 451 LINE SMOOTH"
);
},
{
closed = 1;
nodes = (
"329 451 OFFCURVE",
"257 525 OFFCURVE",
"257 627 OFFCURVE",
"329 701 OFFCURVE",
"382 701 QCURVE SMOOTH",
"386 701 LINE SMOOTH",
"439 701 OFFCURVE",
"511 627 OFFCURVE",
"511 525 OFFCURVE",
"439 451 OFFCURVE",
"386 451 QCURVE SMOOTH",
"382 451 LINE SMOOTH"
);
},
{
closed = 1;
nodes = (
"145 579 OFFCURVE",
"65 653 OFFCURVE",
"65 755 OFFCURVE",
"145 829 OFFCURVE",
"215 829 QCURVE SMOOTH",
"297 829 LINE SMOOTH",
"367 829 OFFCURVE",
"447 755 OFFCURVE",
"447 653 OFFCURVE",
"367 579 OFFCURVE",
"297 579 QCURVE SMOOTH",
"215 579 LINE SMOOTH"
);
},
{
closed = 1;
nodes = (
"73 707 OFFCURVE",
"1 781 OFFCURVE",
"1 883 OFFCURVE",
"73 957 OFFCURVE",
"126 957 QCURVE SMOOTH",
"66 957 LINE SMOOTH",
"119 957 OFFCURVE",
"191 883 OFFCURVE",
"191 781 OFFCURVE",
"119 707 OFFCURVE",
"66 707 QCURVE SMOOTH",
"126 707 LINE SMOOTH"
);
},
{
closed = 1;
nodes = (
"393 707 OFFCURVE",
"321 781 OFFCURVE",
"321 883 OFFCURVE",
"393 957 OFFCURVE",
"446 957 QCURVE SMOOTH",
"386 957 LINE SMOOTH",
"439 957 OFFCURVE",
"511 883 OFFCURVE",
"511 781 OFFCURVE",
"439 707 OFFCURVE",
"386 707 QCURVE SMOOTH",
"446 707 LINE SMOOTH"
);
}
);
};
components = (
{
name = pixel.1;
transform = "{1, 0, 0, 1, 64, 256}";
},
{
name = pixel.1;
transform = "{1, 0, 0, 1, 384, 256}";
},
{
name = pixel.4;
transform = "{1, 0, 0, 1, 128, 384}";
},
{
name = pixel.2;
transform = "{1, 0, 0, 1, 64, 512}";
},
{
name = pixel.2;
transform = "{1, 0, 0, 1, 320, 512}";
},
{
name = pixel.4;
transform = "{1, 0, 0, 1, 128, 640}";
},
{
name = pixel.1;
transform = "{1, 0, 0, 1, 64, 768}";
},
{
name = pixel.1;
transform = "{1, 0, 0, 1, 384, 768}";
}
);
layerId = "164C8123-3F0E-4C99-877D-0E85C432A9CE";
width = 512;
},
{
components = (
{
name = pixel.1;
transform = "{1, 0, 0, 1, 64, 256}";
},
{
name = pixel.1;
transform = "{1, 0, 0, 1, 384, 256}";
},
{
name = pixel.4;
transform = "{1, 0, 0, 1, 128, 384}";
},
{
name = pixel.2;
transform = "{1, 0, 0, 1, 64, 512}";
},
{
name = pixel.2;
transform = "{1, 0, 0, 1, 320, 512}";
},
{
name = pixel.4;
transform = "{1, 0, 0, 1, 128, 640}";
},
{
name = pixel.1;
transform = "{1, 0, 0, 1, 64, 768}";
},
{
name = pixel.1;
transform = "{1, 0, 0, 1, 384, 768}";
}
);
layerId = "EDC3ADDC-530C-4ECE-AAC6-732B149A8D4A";
width = 512;
},
{
components = (
{
name = pixel.1;
transform = "{1, 0, 0, 1, 64, 256}";
},
{
name = pixel.1;
transform = "{1, 0, 0, 1, 384, 256}";
},
{
name = pixel.4;
transform = "{1, 0, 0, 1, 128, 384}";
},
{
name = pixel.2;
transform = "{1, 0, 0, 1, 64, 512}";
},
{
name = pixel.2;
transform = "{1, 0, 0, 1, 320, 512}";
},
{
name = pixel.4;
transform = "{1, 0, 0, 1, 128, 640}";
},
{
name = pixel.1;
transform = "{1, 0, 0, 1, 64, 768}";
},
{
name = pixel.1;
transform = "{1, 0, 0, 1, 384, 768}";
}
);
layerId = "38088322-78A3-4F4F-B46E-F8355B0BCD96";
width = 512;
}
);
unicode = 00A4;
},
{
glyphname = asciitilde;
layers = (
{
components = (
{
name = pixel.1;
transform = "{1, 0, 0, 1, 0, 640}";
},
{
name = pixel.3;
transform = "{1, 0, 0, 1, 192, 640}";
},
{
name = pixel.3;
transform = "{1, 0, 0, 1, 64, 768}";
},
{
name = pixel.1;
transform = "{1, 0, 0, 1, 384, 768}";
}
);
layerId = "EF047752-ED93-49D3-A4D1-D66A6AAE90C7";
width = 512;
},
{
background = {
paths = (
{
closed = 1;
nodes = (
"9 579 OFFCURVE",
"-63 653 OFFCURVE",
"-63 755 OFFCURVE",
"9 829 OFFCURVE",
"62 829 QCURVE SMOOTH",
"2 829 LINE SMOOTH",
"55 829 OFFCURVE",
"127 755 OFFCURVE",
"127 653 OFFCURVE",
"55 579 OFFCURVE",
"2 579 QCURVE SMOOTH",
"62 579 LINE SMOOTH"
);
},
{
closed = 1;
nodes = (
"201 579 OFFCURVE",
"129 653 OFFCURVE",
"129 755 OFFCURVE",
"201 829 OFFCURVE",
"254 829 QCURVE SMOOTH",
"322 829 LINE SMOOTH",
"375 829 OFFCURVE",
"447 755 OFFCURVE",
"447 653 OFFCURVE",
"375 579 OFFCURVE",
"322 579 QCURVE SMOOTH",
"254 579 LINE SMOOTH"
);
},
{
closed = 1;
nodes = (
"73 707 OFFCURVE",
"1 781 OFFCURVE",
"1 883 OFFCURVE",
"73 957 OFFCURVE",
"126 957 QCURVE SMOOTH",
"194 957 LINE SMOOTH",
"247 957 OFFCURVE",
"319 883 OFFCURVE",
"319 781 OFFCURVE",
"247 707 OFFCURVE",
"194 707 QCURVE SMOOTH",
"126 707 LINE SMOOTH"
);
},
{
closed = 1;
nodes = (
"393 707 OFFCURVE",
"321 781 OFFCURVE",
"321 883 OFFCURVE",
"393 957 OFFCURVE",
"446 957 QCURVE SMOOTH",
"386 957 LINE SMOOTH",
"439 957 OFFCURVE",
"511 883 OFFCURVE",
"511 781 OFFCURVE",
"439 707 OFFCURVE",
"386 707 QCURVE SMOOTH",
"446 707 LINE SMOOTH"
);
}
);
};
components = (
{
name = pixel.1;
transform = "{1, 0, 0, 1, 0, 640}";
},
{
name = pixel.3;
transform = "{1, 0, 0, 1, 192, 640}";
},
{
name = pixel.3;
transform = "{1, 0, 0, 1, 64, 768}";
},
{
name = pixel.1;
transform = "{1, 0, 0, 1, 384, 768}";
}
);
layerId = "164C8123-3F0E-4C99-877D-0E85C432A9CE";
width = 512;
},
{
components = (
{
name = pixel.1;
transform = "{1, 0, 0, 1, 0, 640}";
},
{
name = pixel.3;
transform = "{1, 0, 0, 1, 192, 640}";
},
{
name = pixel.3;
transform = "{1, 0, 0, 1, 64, 768}";
},
{
name = pixel.1;
transform = "{1, 0, 0, 1, 384, 768}";
}
);
layerId = "EDC3ADDC-530C-4ECE-AAC6-732B149A8D4A";
width = 512;
},
{
components = (
{
name = pixel.1;
transform = "{1, 0, 0, 1, 0, 640}";
},
{
name = pixel.3;
transform = "{1, 0, 0, 1, 192, 640}";
},
{
name = pixel.3;
transform = "{1, 0, 0, 1, 64, 768}";
},
{
name = pixel.1;
transform = "{1, 0, 0, 1, 384, 768}";
}
);
layerId = "38088322-78A3-4F4F-B46E-F8355B0BCD96";
width = 512;
}
);
unicode = 007E;
},
{
glyphname = asciicircum;
layers = (
{
components = (
{
name = pixel.2;
transform = "{1, 0, 0, 1, 0, 384}";
},
{
name = pixel.2;
transform = "{1, 0, 0, 1, 320, 384}";
},
{
name = pixel.2;
transform = "{1, 0, 0, 1, 64, 512}";
},
{
name = pixel.2;
transform = "{1, 0, 0, 1, 256, 512}";
},
{
name = pixel.3;
transform = "{1, 0, 0, 1, 128, 640}";
},
{
name = pixel.1;
transform = "{1, 0, 0, 1, 192, 768}";
}
);
layerId = "EF047752-ED93-49D3-A4D1-D66A6AAE90C7";
width = 512;
},
{
background = {
paths = (
{
closed = 1;
nodes = (
"9 323 OFFCURVE",
"-63 397 OFFCURVE",
"-63 499 OFFCURVE",
"9 573 OFFCURVE",
"62 573 QCURVE SMOOTH",
"66 573 LINE SMOOTH",
"119 573 OFFCURVE",
"191 499 OFFCURVE",
"191 397 OFFCURVE",
"119 323 OFFCURVE",
"66 323 QCURVE SMOOTH",
"62 323 LINE SMOOTH"
);
},
{
closed = 1;
nodes = (
"329 323 OFFCURVE",
"257 397 OFFCURVE",
"257 499 OFFCURVE",
"329 573 OFFCURVE",
"382 573 QCURVE SMOOTH",
"386 573 LINE SMOOTH",
"439 573 OFFCURVE",
"511 499 OFFCURVE",
"511 397 OFFCURVE",
"439 323 OFFCURVE",
"386 323 QCURVE SMOOTH",
"382 323 LINE SMOOTH"
);
},
{
closed = 1;
nodes = (
"73 451 OFFCURVE",
"1 525 OFFCURVE",
"1 627 OFFCURVE",
"73 701 OFFCURVE",
"126 701 QCURVE SMOOTH",
"130 701 LINE SMOOTH",
"183 701 OFFCURVE",
"255 627 OFFCURVE",
"255 525 OFFCURVE",
"183 451 OFFCURVE",
"130 451 QCURVE SMOOTH",
"126 451 LINE SMOOTH"
);
},
{
closed = 1;
nodes = (
"265 451 OFFCURVE",
"193 525 OFFCURVE",
"193 627 OFFCURVE",
"265 701 OFFCURVE",
"318 701 QCURVE SMOOTH",
"322 701 LINE SMOOTH",
"375 701 OFFCURVE",
"447 627 OFFCURVE",
"447 525 OFFCURVE",
"375 451 OFFCURVE",
"322 451 QCURVE SMOOTH",
"318 451 LINE SMOOTH"
);
},
{
closed = 1;
nodes = (
"137 579 OFFCURVE",
"65 653 OFFCURVE",
"65 755 OFFCURVE",
"137 829 OFFCURVE",
"190 829 QCURVE SMOOTH",
"258 829 LINE SMOOTH",
"311 829 OFFCURVE",
"383 755 OFFCURVE",
"383 653 OFFCURVE",
"311 579 OFFCURVE",
"258 579 QCURVE SMOOTH",
"190 579 LINE SMOOTH"
);
},
{
closed = 1;
nodes = (
"201 707 OFFCURVE",
"129 781 OFFCURVE",
"129 883 OFFCURVE",
"201 957 OFFCURVE",
"254 957 QCURVE SMOOTH",
"194 957 LINE SMOOTH",
"247 957 OFFCURVE",
"319 883 OFFCURVE",
"319 781 OFFCURVE",
"247 707 OFFCURVE",
"194 707 QCURVE SMOOTH",
"254 707 LINE SMOOTH"
);
}
);
};
components = (
{
name = pixel.2;
transform = "{1, 0, 0, 1, 0, 384}";
},
{
name = pixel.2;
transform = "{1, 0, 0, 1, 320, 384}";
},
{
name = pixel.2;
transform = "{1, 0, 0, 1, 64, 512}";
},
{
name = pixel.2;
transform = "{1, 0, 0, 1, 256, 512}";
},
{
name = pixel.3;
transform = "{1, 0, 0, 1, 128, 640}";
},
{
name = pixel.1;
transform = "{1, 0, 0, 1, 192, 768}";
}
);
layerId = "164C8123-3F0E-4C99-877D-0E85C432A9CE";
width = 512;
},
{
components = (
{
name = pixel.2;
transform = "{1, 0, 0, 1, 0, 384}";
},
{
name = pixel.2;
transform = "{1, 0, 0, 1, 320, 384}";
},
{
name = pixel.2;
transform = "{1, 0, 0, 1, 64, 512}";
},
{
name = pixel.2;
transform = "{1, 0, 0, 1, 256, 512}";
},
{
name = pixel.3;
transform = "{1, 0, 0, 1, 128, 640}";
},
{
name = pixel.1;
transform = "{1, 0, 0, 1, 192, 768}";
}
);
layerId = "EDC3ADDC-530C-4ECE-AAC6-732B149A8D4A";
width = 512;
},
{
components = (
{
name = pixel.2;
transform = "{1, 0, 0, 1, 0, 384}";
},
{
name = pixel.2;
transform = "{1, 0, 0, 1, 320, 384}";
},
{
name = pixel.2;
transform = "{1, 0, 0, 1, 64, 512}";
},
{
name = pixel.2;
transform = "{1, 0, 0, 1, 256, 512}";
},
{
name = pixel.3;
transform = "{1, 0, 0, 1, 128, 640}";
},
{
name = pixel.1;
transform = "{1, 0, 0, 1, 192, 768}";
}
);
layerId = "38088322-78A3-4F4F-B46E-F8355B0BCD96";
width = 512;
}
);
unicode = 005E;
},
{
glyphname = micro;
layers = (
{
components = (
{
name = pixel.2;
transform = "{1, 0, 0, 1, 0, -128}";
},
{
name = pixel.5;
},
{
name = pixel.1;
transform = "{1, 0, 0, 1, 384, 0}";
},
{
name = pixel.3;
transform = "{1, 0, 0, 1, 0, 128}";
},
{
name = pixel.3;
transform = "{1, 0, 0, 1, 256, 128}";
},
{
name = pixel.2;
transform = "{1, 0, 0, 1, 0, 256}";
},
{
name = pixel.2;
transform = "{1, 0, 0, 1, 320, 256}";
},
{
name = pixel.2;
transform = "{1, 0, 0, 1, 0, 384}";
},
{
name = pixel.2;
transform = "{1, 0, 0, 1, 320, 384}";
},
{
name = pixel.2;
transform = "{1, 0, 0, 1, 0, 512}";
},
{
name = pixel.2;
transform = "{1, 0, 0, 1, 320, 512}";
}
);
layerId = "EF047752-ED93-49D3-A4D1-D66A6AAE90C7";
width = 512;
},
{
background = {
paths = (
{
closed = 1;
nodes = (
"9 -189 OFFCURVE",
"-63 -115 OFFCURVE",
"-63 -13 OFFCURVE",
"9 61 OFFCURVE",
"62 61 QCURVE SMOOTH",
"66 61 LINE SMOOTH",
"119 61 OFFCURVE",
"191 -13 OFFCURVE",
"191 -115 OFFCURVE",
"119 -189 OFFCURVE",
"66 -189 QCURVE SMOOTH",
"62 -189 LINE SMOOTH"
);
},
{
closed = 1;
nodes = (
"17 -61 OFFCURVE",
"-63 13 OFFCURVE",
"-63 115 OFFCURVE",
"17 189 OFFCURVE",
"87 189 QCURVE SMOOTH",
"233 189 LINE SMOOTH",
"303 189 OFFCURVE",
"383 115 OFFCURVE",
"383 13 OFFCURVE",
"303 -61 OFFCURVE",
"233 -61 QCURVE SMOOTH",
"87 -61 LINE SMOOTH"
);
},
{
closed = 1;
nodes = (
"393 -61 OFFCURVE",
"321 13 OFFCURVE",
"321 115 OFFCURVE",
"393 189 OFFCURVE",
"446 189 QCURVE SMOOTH",
"386 189 LINE SMOOTH",
"439 189 OFFCURVE",
"511 115 OFFCURVE",
"511 13 OFFCURVE",
"439 -61 OFFCURVE",
"386 -61 QCURVE SMOOTH",
"446 -61 LINE SMOOTH"
);
},
{
closed = 1;
nodes = (
"9 67 OFFCURVE",
"-63 141 OFFCURVE",
"-63 243 OFFCURVE",
"9 317 OFFCURVE",
"62 317 QCURVE SMOOTH",
"130 317 LINE SMOOTH",
"183 317 OFFCURVE",
"255 243 OFFCURVE",
"255 141 OFFCURVE",
"183 67 OFFCURVE",
"130 67 QCURVE SMOOTH",
"62 67 LINE SMOOTH"
);
},
{
closed = 1;
nodes = (
"265 67 OFFCURVE",
"193 141 OFFCURVE",
"193 243 OFFCURVE",
"265 317 OFFCURVE",
"318 317 QCURVE SMOOTH",
"386 317 LINE SMOOTH",
"439 317 OFFCURVE",
"511 243 OFFCURVE",
"511 141 OFFCURVE",
"439 67 OFFCURVE",
"386 67 QCURVE SMOOTH",
"318 67 LINE SMOOTH"
);
},
{
closed = 1;
nodes = (
"9 195 OFFCURVE",
"-63 269 OFFCURVE",
"-63 371 OFFCURVE",
"9 445 OFFCURVE",
"62 445 QCURVE SMOOTH",
"66 445 LINE SMOOTH",
"119 445 OFFCURVE",
"191 371 OFFCURVE",
"191 269 OFFCURVE",
"119 195 OFFCURVE",
"66 195 QCURVE SMOOTH",
"62 195 LINE SMOOTH"
);
},
{
closed = 1;
nodes = (
"329 195 OFFCURVE",
"257 269 OFFCURVE",
"257 371 OFFCURVE",
"329 445 OFFCURVE",
"382 445 QCURVE SMOOTH",
"386 445 LINE SMOOTH",
"439 445 OFFCURVE",
"511 371 OFFCURVE",
"511 269 OFFCURVE",
"439 195 OFFCURVE",
"386 195 QCURVE SMOOTH",
"382 195 LINE SMOOTH"
);
},
{
closed = 1;
nodes = (
"9 323 OFFCURVE",
"-63 397 OFFCURVE",
"-63 499 OFFCURVE",
"9 573 OFFCURVE",
"62 573 QCURVE SMOOTH",
"66 573 LINE SMOOTH",
"119 573 OFFCURVE",
"191 499 OFFCURVE",
"191 397 OFFCURVE",
"119 323 OFFCURVE",
"66 323 QCURVE SMOOTH",
"62 323 LINE SMOOTH"
);
},
{
closed = 1;
nodes = (
"329 323 OFFCURVE",
"257 397 OFFCURVE",
"257 499 OFFCURVE",
"329 573 OFFCURVE",
"382 573 QCURVE SMOOTH",
"386 573 LINE SMOOTH",
"439 573 OFFCURVE",
"511 499 OFFCURVE",
"511 397 OFFCURVE",
"439 323 OFFCURVE",
"386 323 QCURVE SMOOTH",
"382 323 LINE SMOOTH"
);
},
{
closed = 1;
nodes = (
"9 451 OFFCURVE",
"-63 525 OFFCURVE",
"-63 627 OFFCURVE",
"9 701 OFFCURVE",
"62 701 QCURVE SMOOTH",
"66 701 LINE SMOOTH",
"119 701 OFFCURVE",
"191 627 OFFCURVE",
"191 525 OFFCURVE",
"119 451 OFFCURVE",
"66 451 QCURVE SMOOTH",
"62 451 LINE SMOOTH"
);
},
{
closed = 1;
nodes = (
"329 451 OFFCURVE",
"257 525 OFFCURVE",
"257 627 OFFCURVE",
"329 701 OFFCURVE",
"382 701 QCURVE SMOOTH",
"386 701 LINE SMOOTH",
"439 701 OFFCURVE",
"511 627 OFFCURVE",
"511 525 OFFCURVE",
"439 451 OFFCURVE",
"386 451 QCURVE SMOOTH",
"382 451 LINE SMOOTH"
);
}
);
};
components = (
{
name = pixel.2;
transform = "{1, 0, 0, 1, 0, -128}";
},
{
name = pixel.5;
},
{
name = pixel.1;
transform = "{1, 0, 0, 1, 384, 0}";
},
{
name = pixel.3;
transform = "{1, 0, 0, 1, 0, 128}";
},
{
name = pixel.3;
transform = "{1, 0, 0, 1, 256, 128}";
},
{
name = pixel.2;
transform = "{1, 0, 0, 1, 0, 256}";
},
{
name = pixel.2;
transform = "{1, 0, 0, 1, 320, 256}";
},
{
name = pixel.2;
transform = "{1, 0, 0, 1, 0, 384}";
},
{
name = pixel.2;
transform = "{1, 0, 0, 1, 320, 384}";
},
{
name = pixel.2;
transform = "{1, 0, 0, 1, 0, 512}";
},
{
name = pixel.2;
transform = "{1, 0, 0, 1, 320, 512}";
}
);
layerId = "164C8123-3F0E-4C99-877D-0E85C432A9CE";
width = 512;
},
{
components = (
{
name = pixel.2;
transform = "{1, 0, 0, 1, 0, -128}";
},
{
name = pixel.5;
},
{
name = pixel.1;
transform = "{1, 0, 0, 1, 384, 0}";
},
{
name = pixel.3;
transform = "{1, 0, 0, 1, 0, 128}";
},
{
name = pixel.3;
transform = "{1, 0, 0, 1, 256, 128}";
},
{
name = pixel.2;
transform = "{1, 0, 0, 1, 0, 256}";
},
{
name = pixel.2;
transform = "{1, 0, 0, 1, 320, 256}";
},
{
name = pixel.2;
transform = "{1, 0, 0, 1, 0, 384}";
},
{
name = pixel.2;
transform = "{1, 0, 0, 1, 320, 384}";
},
{
name = pixel.2;
transform = "{1, 0, 0, 1, 0, 512}";
},
{
name = pixel.2;
transform = "{1, 0, 0, 1, 320, 512}";
}
);
layerId = "EDC3ADDC-530C-4ECE-AAC6-732B149A8D4A";
width = 512;
},
{
components = (
{
name = pixel.2;
transform = "{1, 0, 0, 1, 0, -128}";
},
{
name = pixel.5;
},
{
name = pixel.1;
transform = "{1, 0, 0, 1, 384, 0}";
},
{
name = pixel.3;
transform = "{1, 0, 0, 1, 0, 128}";
},
{
name = pixel.3;
transform = "{1, 0, 0, 1, 256, 128}";
},
{
name = pixel.2;
transform = "{1, 0, 0, 1, 0, 256}";
},
{
name = pixel.2;
transform = "{1, 0, 0, 1, 320, 256}";
},
{
name = pixel.2;
transform = "{1, 0, 0, 1, 0, 384}";
},
{
name = pixel.2;
transform = "{1, 0, 0, 1, 320, 384}";
},
{
name = pixel.2;
transform = "{1, 0, 0, 1, 0, 512}";
},
{
name = pixel.2;
transform = "{1, 0, 0, 1, 320, 512}";
}
);
layerId = "38088322-78A3-4F4F-B46E-F8355B0BCD96";
width = 512;
}
);
unicode = 00B5;
},
{
glyphname = ampersand;
layers = (
{
components = (
{
name = pixel.3;
transform = "{1, 0, 0, 1, 128, 0}";
},
{
name = pixel.2;
transform = "{1, 0, 0, 1, 384, 0}";
},
{
name = pixel.2;
transform = "{1, 0, 0, 1, 64, 128}";
},
{
name = pixel.2;
transform = "{1, 0, 0, 1, 320, 128}";
},
{
name = pixel.2;
transform = "{1, 0, 0, 1, 64, 256}";
},
{
name = pixel.3;
transform = "{1, 0, 0, 1, 256, 256}";
},
{
name = pixel.3;
transform = "{1, 0, 0, 1, 128, 384}";
},
{
name = pixel.2;
transform = "{1, 0, 0, 1, 384, 384}";
},
{
name = pixel.2;
transform = "{1, 0, 0, 1, 128, 512}";
},
{
name = pixel.1;
transform = "{1, 0, 0, 1, 320, 512}";
},
{
name = pixel.2;
transform = "{1, 0, 0, 1, 128, 640}";
},
{
name = pixel.2;
transform = "{1, 0, 0, 1, 320, 640}";
},
{
name = pixel.3;
transform = "{1, 0, 0, 1, 192, 768}";
}
);
layerId = "EF047752-ED93-49D3-A4D1-D66A6AAE90C7";
width = 512;
},
{
background = {
paths = (
{
closed = 1;
nodes = (
"137 -61 OFFCURVE",
"65 13 OFFCURVE",
"65 115 OFFCURVE",
"137 189 OFFCURVE",
"190 189 QCURVE SMOOTH",
"258 189 LINE SMOOTH",
"311 189 OFFCURVE",
"383 115 OFFCURVE",
"383 13 OFFCURVE",
"311 -61 OFFCURVE",
"258 -61 QCURVE SMOOTH",
"190 -61 LINE SMOOTH"
);
},
{
closed = 1;
nodes = (
"393 -61 OFFCURVE",
"321 13 OFFCURVE",
"321 115 OFFCURVE",
"393 189 OFFCURVE",
"446 189 QCURVE SMOOTH",
"450 189 LINE SMOOTH",
"503 189 OFFCURVE",
"575 115 OFFCURVE",
"575 13 OFFCURVE",
"503 -61 OFFCURVE",
"450 -61 QCURVE SMOOTH",
"446 -61 LINE SMOOTH"
);
},
{
closed = 1;
nodes = (
"73 67 OFFCURVE",
"1 141 OFFCURVE",
"1 243 OFFCURVE",
"73 317 OFFCURVE",
"126 317 QCURVE SMOOTH",
"130 317 LINE SMOOTH",
"183 317 OFFCURVE",
"255 243 OFFCURVE",
"255 141 OFFCURVE",
"183 67 OFFCURVE",
"130 67 QCURVE SMOOTH",
"126 67 LINE SMOOTH"
);
},
{
closed = 1;
nodes = (
"329 67 OFFCURVE",
"257 141 OFFCURVE",
"257 243 OFFCURVE",
"329 317 OFFCURVE",
"382 317 QCURVE SMOOTH",
"386 317 LINE SMOOTH",
"439 317 OFFCURVE",
"511 243 OFFCURVE",
"511 141 OFFCURVE",
"439 67 OFFCURVE",
"386 67 QCURVE SMOOTH",
"382 67 LINE SMOOTH"
);
},
{
closed = 1;
nodes = (
"73 195 OFFCURVE",
"1 269 OFFCURVE",
"1 371 OFFCURVE",
"73 445 OFFCURVE",
"126 445 QCURVE SMOOTH",
"130 445 LINE SMOOTH",
"183 445 OFFCURVE",
"255 371 OFFCURVE",
"255 269 OFFCURVE",
"183 195 OFFCURVE",
"130 195 QCURVE SMOOTH",
"126 195 LINE SMOOTH"
);
},
{
closed = 1;
nodes = (
"265 195 OFFCURVE",
"193 269 OFFCURVE",
"193 371 OFFCURVE",
"265 445 OFFCURVE",
"318 445 QCURVE SMOOTH",
"386 445 LINE SMOOTH",
"439 445 OFFCURVE",
"511 371 OFFCURVE",
"511 269 OFFCURVE",
"439 195 OFFCURVE",
"386 195 QCURVE SMOOTH",
"318 195 LINE SMOOTH"
);
},
{
closed = 1;
nodes = (
"137 323 OFFCURVE",
"65 397 OFFCURVE",
"65 499 OFFCURVE",
"137 573 OFFCURVE",
"190 573 QCURVE SMOOTH",
"258 573 LINE SMOOTH",
"311 573 OFFCURVE",
"383 499 OFFCURVE",
"383 397 OFFCURVE",
"311 323 OFFCURVE",
"258 323 QCURVE SMOOTH",
"190 323 LINE SMOOTH"
);
},
{
closed = 1;
nodes = (
"393 323 OFFCURVE",
"321 397 OFFCURVE",
"321 499 OFFCURVE",
"393 573 OFFCURVE",
"446 573 QCURVE SMOOTH",
"450 573 LINE SMOOTH",
"503 573 OFFCURVE",
"575 499 OFFCURVE",
"575 397 OFFCURVE",
"503 323 OFFCURVE",
"450 323 QCURVE SMOOTH",
"446 323 LINE SMOOTH"
);
},
{
closed = 1;
nodes = (
"137 451 OFFCURVE",
"65 525 OFFCURVE",
"65 627 OFFCURVE",
"137 701 OFFCURVE",
"190 701 QCURVE SMOOTH",
"194 701 LINE SMOOTH",
"247 701 OFFCURVE",
"319 627 OFFCURVE",
"319 525 OFFCURVE",
"247 451 OFFCURVE",
"194 451 QCURVE SMOOTH",
"190 451 LINE SMOOTH"
);
},
{
closed = 1;
nodes = (
"329 451 OFFCURVE",
"257 525 OFFCURVE",
"257 627 OFFCURVE",
"329 701 OFFCURVE",
"382 701 QCURVE SMOOTH",
"322 701 LINE SMOOTH",
"375 701 OFFCURVE",
"447 627 OFFCURVE",
"447 525 OFFCURVE",
"375 451 OFFCURVE",
"322 451 QCURVE SMOOTH",
"382 451 LINE SMOOTH"
);
},
{
closed = 1;
nodes = (
"137 579 OFFCURVE",
"65 653 OFFCURVE",
"65 755 OFFCURVE",
"137 829 OFFCURVE",
"190 829 QCURVE SMOOTH",
"194 829 LINE SMOOTH",
"247 829 OFFCURVE",
"319 755 OFFCURVE",
"319 653 OFFCURVE",
"247 579 OFFCURVE",
"194 579 QCURVE SMOOTH",
"190 579 LINE SMOOTH"
);
},
{
closed = 1;
nodes = (
"329 579 OFFCURVE",
"257 653 OFFCURVE",
"257 755 OFFCURVE",
"329 829 OFFCURVE",
"382 829 QCURVE SMOOTH",
"386 829 LINE SMOOTH",
"439 829 OFFCURVE",
"511 755 OFFCURVE",
"511 653 OFFCURVE",
"439 579 OFFCURVE",
"386 579 QCURVE SMOOTH",
"382 579 LINE SMOOTH"
);
},
{
closed = 1;
nodes = (
"201 707 OFFCURVE",
"129 781 OFFCURVE",
"129 883 OFFCURVE",
"201 957 OFFCURVE",
"254 957 QCURVE SMOOTH",
"322 957 LINE SMOOTH",
"375 957 OFFCURVE",
"447 883 OFFCURVE",
"447 781 OFFCURVE",
"375 707 OFFCURVE",
"322 707 QCURVE SMOOTH",
"254 707 LINE SMOOTH"
);
}
);
};
components = (
{
name = pixel.3;
transform = "{1, 0, 0, 1, 128, 0}";
},
{
name = pixel.2;
transform = "{1, 0, 0, 1, 384, 0}";
},
{
name = pixel.2;
transform = "{1, 0, 0, 1, 64, 128}";
},
{
name = pixel.2;
transform = "{1, 0, 0, 1, 320, 128}";
},
{
name = pixel.2;
transform = "{1, 0, 0, 1, 64, 256}";
},
{
name = pixel.3;
transform = "{1, 0, 0, 1, 256, 256}";
},
{
name = pixel.3;
transform = "{1, 0, 0, 1, 128, 384}";
},
{
name = pixel.2;
transform = "{1, 0, 0, 1, 384, 384}";
},
{
name = pixel.2;
transform = "{1, 0, 0, 1, 128, 512}";
},
{
name = pixel.1;
transform = "{1, 0, 0, 1, 320, 512}";
},
{
name = pixel.2;
transform = "{1, 0, 0, 1, 128, 640}";
},
{
name = pixel.2;
transform = "{1, 0, 0, 1, 320, 640}";
},
{
name = pixel.3;
transform = "{1, 0, 0, 1, 192, 768}";
}
);
layerId = "164C8123-3F0E-4C99-877D-0E85C432A9CE";
width = 512;
},
{
components = (
{
name = pixel.3;
transform = "{1, 0, 0, 1, 128, 0}";
},
{
name = pixel.2;
transform = "{1, 0, 0, 1, 384, 0}";
},
{
name = pixel.2;
transform = "{1, 0, 0, 1, 64, 128}";
},
{
name = pixel.2;
transform = "{1, 0, 0, 1, 320, 128}";
},
{
name = pixel.2;
transform = "{1, 0, 0, 1, 64, 256}";
},
{
name = pixel.3;
transform = "{1, 0, 0, 1, 256, 256}";
},
{
name = pixel.3;
transform = "{1, 0, 0, 1, 128, 384}";
},
{
name = pixel.2;
transform = "{1, 0, 0, 1, 384, 384}";
},
{
name = pixel.2;
transform = "{1, 0, 0, 1, 128, 512}";
},
{
name = pixel.1;
transform = "{1, 0, 0, 1, 320, 512}";
},
{
name = pixel.2;
transform = "{1, 0, 0, 1, 128, 640}";
},
{
name = pixel.2;
transform = "{1, 0, 0, 1, 320, 640}";
},
{
name = pixel.3;
transform = "{1, 0, 0, 1, 192, 768}";
}
);
layerId = "EDC3ADDC-530C-4ECE-AAC6-732B149A8D4A";
width = 512;
},
{
components = (
{
name = pixel.3;
transform = "{1, 0, 0, 1, 128, 0}";
},
{
name = pixel.2;
transform = "{1, 0, 0, 1, 384, 0}";
},
{
name = pixel.2;
transform = "{1, 0, 0, 1, 64, 128}";
},
{
name = pixel.2;
transform = "{1, 0, 0, 1, 320, 128}";
},
{
name = pixel.2;
transform = "{1, 0, 0, 1, 64, 256}";
},
{
name = pixel.3;
transform = "{1, 0, 0, 1, 256, 256}";
},
{
name = pixel.3;
transform = "{1, 0, 0, 1, 128, 384}";
},
{
name = pixel.2;
transform = "{1, 0, 0, 1, 384, 384}";
},
{
name = pixel.2;
transform = "{1, 0, 0, 1, 128, 512}";
},
{
name = pixel.1;
transform = "{1, 0, 0, 1, 320, 512}";
},
{
name = pixel.2;
transform = "{1, 0, 0, 1, 128, 640}";
},
{
name = pixel.2;
transform = "{1, 0, 0, 1, 320, 640}";
},
{
name = pixel.3;
transform = "{1, 0, 0, 1, 192, 768}";
}
);
layerId = "38088322-78A3-4F4F-B46E-F8355B0BCD96";
width = 512;
}
);
unicode = 0026;
},
{
glyphname = paragraph;
layers = (
{
components = (
{
name = pixel.1;
transform = "{1, 0, 0, 1, 192, 0}";
},
{
name = pixel.1;
transform = "{1, 0, 0, 1, 320, 0}";
},
{
name = pixel.1;
transform = "{1, 0, 0, 1, 192, 128}";
},
{
name = pixel.1;
transform = "{1, 0, 0, 1, 320, 128}";
},
{
name = pixel.1;
transform = "{1, 0, 0, 1, 192, 256}";
},
{
name = pixel.1;
transform = "{1, 0, 0, 1, 320, 256}";
},
{
name = pixel.3;
transform = "{1, 0, 0, 1, 64, 384}";
},
{
name = pixel.1;
transform = "{1, 0, 0, 1, 320, 384}";
},
{
name = pixel.4;
transform = "{1, 0, 0, 1, 0, 512}";
},
{
name = pixel.1;
transform = "{1, 0, 0, 1, 320, 512}";
},
{
name = pixel.4;
transform = "{1, 0, 0, 1, 0, 640}";
},
{
name = pixel.1;
transform = "{1, 0, 0, 1, 320, 640}";
},
{
name = pixel.6;
transform = "{1, 0, 0, 1, 64, 768}";
}
);
layerId = "EF047752-ED93-49D3-A4D1-D66A6AAE90C7";
width = 512;
},
{
background = {
paths = (
{
closed = 1;
nodes = (
"201 -61 OFFCURVE",
"129 13 OFFCURVE",
"129 115 OFFCURVE",
"201 189 OFFCURVE",
"254 189 QCURVE SMOOTH",
"194 189 LINE SMOOTH",
"247 189 OFFCURVE",
"319 115 OFFCURVE",
"319 13 OFFCURVE",
"247 -61 OFFCURVE",
"194 -61 QCURVE SMOOTH",
"254 -61 LINE SMOOTH"
);
},
{
closed = 1;
nodes = (
"329 -61 OFFCURVE",
"257 13 OFFCURVE",
"257 115 OFFCURVE",
"329 189 OFFCURVE",
"382 189 QCURVE SMOOTH",
"322 189 LINE SMOOTH",
"375 189 OFFCURVE",
"447 115 OFFCURVE",
"447 13 OFFCURVE",
"375 -61 OFFCURVE",
"322 -61 QCURVE SMOOTH",
"382 -61 LINE SMOOTH"
);
},
{
closed = 1;
nodes = (
"201 67 OFFCURVE",
"129 141 OFFCURVE",
"129 243 OFFCURVE",
"201 317 OFFCURVE",
"254 317 QCURVE SMOOTH",
"194 317 LINE SMOOTH",
"247 317 OFFCURVE",
"319 243 OFFCURVE",
"319 141 OFFCURVE",
"247 67 OFFCURVE",
"194 67 QCURVE SMOOTH",
"254 67 LINE SMOOTH"
);
},
{
closed = 1;
nodes = (
"329 67 OFFCURVE",
"257 141 OFFCURVE",
"257 243 OFFCURVE",
"329 317 OFFCURVE",
"382 317 QCURVE SMOOTH",
"322 317 LINE SMOOTH",
"375 317 OFFCURVE",
"447 243 OFFCURVE",
"447 141 OFFCURVE",
"375 67 OFFCURVE",
"322 67 QCURVE SMOOTH",
"382 67 LINE SMOOTH"
);
},
{
closed = 1;
nodes = (
"201 195 OFFCURVE",
"129 269 OFFCURVE",
"129 371 OFFCURVE",
"201 445 OFFCURVE",
"254 445 QCURVE SMOOTH",
"194 445 LINE SMOOTH",
"247 445 OFFCURVE",
"319 371 OFFCURVE",
"319 269 OFFCURVE",
"247 195 OFFCURVE",
"194 195 QCURVE SMOOTH",
"254 195 LINE SMOOTH"
);
},
{
closed = 1;
nodes = (
"329 195 OFFCURVE",
"257 269 OFFCURVE",
"257 371 OFFCURVE",
"329 445 OFFCURVE",
"382 445 QCURVE SMOOTH",
"322 445 LINE SMOOTH",
"375 445 OFFCURVE",
"447 371 OFFCURVE",
"447 269 OFFCURVE",
"375 195 OFFCURVE",
"322 195 QCURVE SMOOTH",
"382 195 LINE SMOOTH"
);
},
{
closed = 1;
nodes = (
"73 323 OFFCURVE",
"1 397 OFFCURVE",
"1 499 OFFCURVE",
"73 573 OFFCURVE",
"126 573 QCURVE SMOOTH",
"194 573 LINE SMOOTH",
"247 573 OFFCURVE",
"319 499 OFFCURVE",
"319 397 OFFCURVE",
"247 323 OFFCURVE",
"194 323 QCURVE SMOOTH",
"126 323 LINE SMOOTH"
);
},
{
closed = 1;
nodes = (
"329 323 OFFCURVE",
"257 397 OFFCURVE",
"257 499 OFFCURVE",
"329 573 OFFCURVE",
"382 573 QCURVE SMOOTH",
"322 573 LINE SMOOTH",
"375 573 OFFCURVE",
"447 499 OFFCURVE",
"447 397 OFFCURVE",
"375 323 OFFCURVE",
"322 323 QCURVE SMOOTH",
"382 323 LINE SMOOTH"
);
},
{
closed = 1;
nodes = (
"17 451 OFFCURVE",
"-63 525 OFFCURVE",
"-63 627 OFFCURVE",
"17 701 OFFCURVE",
"87 701 QCURVE SMOOTH",
"169 701 LINE SMOOTH",
"239 701 OFFCURVE",
"319 627 OFFCURVE",
"319 525 OFFCURVE",
"239 451 OFFCURVE",
"169 451 QCURVE SMOOTH",
"87 451 LINE SMOOTH"
);
},
{
closed = 1;
nodes = (
"329 451 OFFCURVE",
"257 525 OFFCURVE",
"257 627 OFFCURVE",
"329 701 OFFCURVE",
"382 701 QCURVE SMOOTH",
"322 701 LINE SMOOTH",
"375 701 OFFCURVE",
"447 627 OFFCURVE",
"447 525 OFFCURVE",
"375 451 OFFCURVE",
"322 451 QCURVE SMOOTH",
"382 451 LINE SMOOTH"
);
},
{
closed = 1;
nodes = (
"17 579 OFFCURVE",
"-63 653 OFFCURVE",
"-63 755 OFFCURVE",
"17 829 OFFCURVE",
"87 829 QCURVE SMOOTH",
"169 829 LINE SMOOTH",
"239 829 OFFCURVE",
"319 755 OFFCURVE",
"319 653 OFFCURVE",
"239 579 OFFCURVE",
"169 579 QCURVE SMOOTH",
"87 579 LINE SMOOTH"
);
},
{
closed = 1;
nodes = (
"329 579 OFFCURVE",
"257 653 OFFCURVE",
"257 755 OFFCURVE",
"329 829 OFFCURVE",
"382 829 QCURVE SMOOTH",
"322 829 LINE SMOOTH",
"375 829 OFFCURVE",
"447 755 OFFCURVE",
"447 653 OFFCURVE",
"375 579 OFFCURVE",
"322 579 QCURVE SMOOTH",
"382 579 LINE SMOOTH"
);
},
{
closed = 1;
nodes = (
"81 707 OFFCURVE",
"1 781 OFFCURVE",
"1 883 OFFCURVE",
"81 957 OFFCURVE",
"151 957 QCURVE SMOOTH",
"361 957 LINE SMOOTH",
"431 957 OFFCURVE",
"511 883 OFFCURVE",
"511 781 OFFCURVE",
"431 707 OFFCURVE",
"361 707 QCURVE SMOOTH",
"151 707 LINE SMOOTH"
);
}
);
};
components = (
{
name = pixel.1;
transform = "{1, 0, 0, 1, 192, 0}";
},
{
name = pixel.1;
transform = "{1, 0, 0, 1, 320, 0}";
},
{
name = pixel.1;
transform = "{1, 0, 0, 1, 192, 128}";
},
{
name = pixel.1;
transform = "{1, 0, 0, 1, 320, 128}";
},
{
name = pixel.1;
transform = "{1, 0, 0, 1, 192, 256}";
},
{
name = pixel.1;
transform = "{1, 0, 0, 1, 320, 256}";
},
{
name = pixel.3;
transform = "{1, 0, 0, 1, 64, 384}";
},
{
name = pixel.1;
transform = "{1, 0, 0, 1, 320, 384}";
},
{
name = pixel.4;
transform = "{1, 0, 0, 1, 0, 512}";
},
{
name = pixel.1;
transform = "{1, 0, 0, 1, 320, 512}";
},
{
name = pixel.4;
transform = "{1, 0, 0, 1, 0, 640}";
},
{
name = pixel.1;
transform = "{1, 0, 0, 1, 320, 640}";
},
{
name = pixel.6;
transform = "{1, 0, 0, 1, 64, 768}";
}
);
layerId = "164C8123-3F0E-4C99-877D-0E85C432A9CE";
width = 512;
},
{
components = (
{
name = pixel.1;
transform = "{1, 0, 0, 1, 192, 0}";
},
{
name = pixel.1;
transform = "{1, 0, 0, 1, 320, 0}";
},
{
name = pixel.1;
transform = "{1, 0, 0, 1, 192, 128}";
},
{
name = pixel.1;
transform = "{1, 0, 0, 1, 320, 128}";
},
{
name = pixel.1;
transform = "{1, 0, 0, 1, 192, 256}";
},
{
name = pixel.1;
transform = "{1, 0, 0, 1, 320, 256}";
},
{
name = pixel.3;
transform = "{1, 0, 0, 1, 64, 384}";
},
{
name = pixel.1;
transform = "{1, 0, 0, 1, 320, 384}";
},
{
name = pixel.4;
transform = "{1, 0, 0, 1, 0, 512}";
},
{
name = pixel.1;
transform = "{1, 0, 0, 1, 320, 512}";
},
{
name = pixel.4;
transform = "{1, 0, 0, 1, 0, 640}";
},
{
name = pixel.1;
transform = "{1, 0, 0, 1, 320, 640}";
},
{
name = pixel.6;
transform = "{1, 0, 0, 1, 64, 768}";
}
);
layerId = "EDC3ADDC-530C-4ECE-AAC6-732B149A8D4A";
width = 512;
},
{
components = (
{
name = pixel.1;
transform = "{1, 0, 0, 1, 192, 0}";
},
{
name = pixel.1;
transform = "{1, 0, 0, 1, 320, 0}";
},
{
name = pixel.1;
transform = "{1, 0, 0, 1, 192, 128}";
},
{
name = pixel.1;
transform = "{1, 0, 0, 1, 320, 128}";
},
{
name = pixel.1;
transform = "{1, 0, 0, 1, 192, 256}";
},
{
name = pixel.1;
transform = "{1, 0, 0, 1, 320, 256}";
},
{
name = pixel.3;
transform = "{1, 0, 0, 1, 64, 384}";
},
{
name = pixel.1;
transform = "{1, 0, 0, 1, 320, 384}";
},
{
name = pixel.4;
transform = "{1, 0, 0, 1, 0, 512}";
},
{
name = pixel.1;
transform = "{1, 0, 0, 1, 320, 512}";
},
{
name = pixel.4;
transform = "{1, 0, 0, 1, 0, 640}";
},
{
name = pixel.1;
transform = "{1, 0, 0, 1, 320, 640}";
},
{
name = pixel.6;
transform = "{1, 0, 0, 1, 64, 768}";
}
);
layerId = "38088322-78A3-4F4F-B46E-F8355B0BCD96";
width = 512;
}
);
unicode = 00B6;
},
{
glyphname = section;
layers = (
{
components = (
{
name = pixel.4;
transform = "{1, 0, 0, 1, 128, 0}";
},
{
name = pixel.1;
transform = "{1, 0, 0, 1, 384, 128}";
},
{
name = pixel.4;
transform = "{1, 0, 0, 1, 128, 256}";
},
{
name = pixel.2;
transform = "{1, 0, 0, 1, 64, 384}";
},
{
name = pixel.2;
transform = "{1, 0, 0, 1, 320, 384}";
},
{
name = pixel.4;
transform = "{1, 0, 0, 1, 128, 512}";
},
{
name = pixel.1;
transform = "{1, 0, 0, 1, 64, 640}";
},
{
name = pixel.4;
transform = "{1, 0, 0, 1, 128, 768}";
}
);
layerId = "EF047752-ED93-49D3-A4D1-D66A6AAE90C7";
width = 512;
},
{
background = {
paths = (
{
closed = 1;
nodes = (
"145 -61 OFFCURVE",
"65 13 OFFCURVE",
"65 115 OFFCURVE",
"145 189 OFFCURVE",
"215 189 QCURVE SMOOTH",
"297 189 LINE SMOOTH",
"367 189 OFFCURVE",
"447 115 OFFCURVE",
"447 13 OFFCURVE",
"367 -61 OFFCURVE",
"297 -61 QCURVE SMOOTH",
"215 -61 LINE SMOOTH"
);
},
{
closed = 1;
nodes = (
"393 67 OFFCURVE",
"321 141 OFFCURVE",
"321 243 OFFCURVE",
"393 317 OFFCURVE",
"446 317 QCURVE SMOOTH",
"386 317 LINE SMOOTH",
"439 317 OFFCURVE",
"511 243 OFFCURVE",
"511 141 OFFCURVE",
"439 67 OFFCURVE",
"386 67 QCURVE SMOOTH",
"446 67 LINE SMOOTH"
);
},
{
closed = 1;
nodes = (
"145 195 OFFCURVE",
"65 269 OFFCURVE",
"65 371 OFFCURVE",
"145 445 OFFCURVE",
"215 445 QCURVE SMOOTH",
"297 445 LINE SMOOTH",
"367 445 OFFCURVE",
"447 371 OFFCURVE",
"447 269 OFFCURVE",
"367 195 OFFCURVE",
"297 195 QCURVE SMOOTH",
"215 195 LINE SMOOTH"
);
},
{
closed = 1;
nodes = (
"73 323 OFFCURVE",
"1 397 OFFCURVE",
"1 499 OFFCURVE",
"73 573 OFFCURVE",
"126 573 QCURVE SMOOTH",
"130 573 LINE SMOOTH",
"183 573 OFFCURVE",
"255 499 OFFCURVE",
"255 397 OFFCURVE",
"183 323 OFFCURVE",
"130 323 QCURVE SMOOTH",
"126 323 LINE SMOOTH"
);
},
{
closed = 1;
nodes = (
"329 323 OFFCURVE",
"257 397 OFFCURVE",
"257 499 OFFCURVE",
"329 573 OFFCURVE",
"382 573 QCURVE SMOOTH",
"386 573 LINE SMOOTH",
"439 573 OFFCURVE",
"511 499 OFFCURVE",
"511 397 OFFCURVE",
"439 323 OFFCURVE",
"386 323 QCURVE SMOOTH",
"382 323 LINE SMOOTH"
);
},
{
closed = 1;
nodes = (
"145 451 OFFCURVE",
"65 525 OFFCURVE",
"65 627 OFFCURVE",
"145 701 OFFCURVE",
"215 701 QCURVE SMOOTH",
"297 701 LINE SMOOTH",
"367 701 OFFCURVE",
"447 627 OFFCURVE",
"447 525 OFFCURVE",
"367 451 OFFCURVE",
"297 451 QCURVE SMOOTH",
"215 451 LINE SMOOTH"
);
},
{
closed = 1;
nodes = (
"73 579 OFFCURVE",
"1 653 OFFCURVE",
"1 755 OFFCURVE",
"73 829 OFFCURVE",
"126 829 QCURVE SMOOTH",
"66 829 LINE SMOOTH",
"119 829 OFFCURVE",
"191 755 OFFCURVE",
"191 653 OFFCURVE",
"119 579 OFFCURVE",
"66 579 QCURVE SMOOTH",
"126 579 LINE SMOOTH"
);
},
{
closed = 1;
nodes = (
"145 707 OFFCURVE",
"65 781 OFFCURVE",
"65 883 OFFCURVE",
"145 957 OFFCURVE",
"215 957 QCURVE SMOOTH",
"297 957 LINE SMOOTH",
"367 957 OFFCURVE",
"447 883 OFFCURVE",
"447 781 OFFCURVE",
"367 707 OFFCURVE",
"297 707 QCURVE SMOOTH",
"215 707 LINE SMOOTH"
);
}
);
};
components = (
{
name = pixel.4;
transform = "{1, 0, 0, 1, 128, 0}";
},
{
name = pixel.1;
transform = "{1, 0, 0, 1, 384, 128}";
},
{
name = pixel.4;
transform = "{1, 0, 0, 1, 128, 256}";
},
{
name = pixel.2;
transform = "{1, 0, 0, 1, 64, 384}";
},
{
name = pixel.2;
transform = "{1, 0, 0, 1, 320, 384}";
},
{
name = pixel.4;
transform = "{1, 0, 0, 1, 128, 512}";
},
{
name = pixel.1;
transform = "{1, 0, 0, 1, 64, 640}";
},
{
name = pixel.4;
transform = "{1, 0, 0, 1, 128, 768}";
}
);
layerId = "164C8123-3F0E-4C99-877D-0E85C432A9CE";
width = 512;
},
{
components = (
{
name = pixel.4;
transform = "{1, 0, 0, 1, 128, 0}";
},
{
name = pixel.1;
transform = "{1, 0, 0, 1, 384, 128}";
},
{
name = pixel.4;
transform = "{1, 0, 0, 1, 128, 256}";
},
{
name = pixel.2;
transform = "{1, 0, 0, 1, 64, 384}";
},
{
name = pixel.2;
transform = "{1, 0, 0, 1, 320, 384}";
},
{
name = pixel.4;
transform = "{1, 0, 0, 1, 128, 512}";
},
{
name = pixel.1;
transform = "{1, 0, 0, 1, 64, 640}";
},
{
name = pixel.4;
transform = "{1, 0, 0, 1, 128, 768}";
}
);
layerId = "EDC3ADDC-530C-4ECE-AAC6-732B149A8D4A";
width = 512;
},
{
components = (
{
name = pixel.4;
transform = "{1, 0, 0, 1, 128, 0}";
},
{
name = pixel.1;
transform = "{1, 0, 0, 1, 384, 128}";
},
{
name = pixel.4;
transform = "{1, 0, 0, 1, 128, 256}";
},
{
name = pixel.2;
transform = "{1, 0, 0, 1, 64, 384}";
},
{
name = pixel.2;
transform = "{1, 0, 0, 1, 320, 384}";
},
{
name = pixel.4;
transform = "{1, 0, 0, 1, 128, 512}";
},
{
name = pixel.1;
transform = "{1, 0, 0, 1, 64, 640}";
},
{
name = pixel.4;
transform = "{1, 0, 0, 1, 128, 768}";
}
);
layerId = "38088322-78A3-4F4F-B46E-F8355B0BCD96";
width = 512;
}
);
unicode = 00A7;
},
{
glyphname = copyright;
layers = (
{
components = (
{
name = pixel.6;
transform = "{1, 0, 0, 1, 64, -128}";
},
{
name = pixel.1;
},
{
name = pixel.1;
transform = "{1, 0, 0, 1, 448, 0}";
},
{
name = pixel.1;
transform = "{1, 0, 0, 1, 0, 128}";
},
{
name = pixel.3;
transform = "{1, 0, 0, 1, 192, 128}";
},
{
name = pixel.1;
transform = "{1, 0, 0, 1, 448, 128}";
},
{
name = pixel.1;
transform = "{1, 0, 0, 1, 0, 256}";
},
{
name = pixel.2;
transform = "{1, 0, 0, 1, 128, 256}";
},
{
name = pixel.1;
transform = "{1, 0, 0, 1, 448, 256}";
},
{
name = pixel.1;
transform = "{1, 0, 0, 1, 0, 384}";
},
{
name = pixel.2;
transform = "{1, 0, 0, 1, 128, 384}";
},
{
name = pixel.1;
transform = "{1, 0, 0, 1, 448, 384}";
},
{
name = pixel.1;
transform = "{1, 0, 0, 1, 0, 512}";
},
{
name = pixel.3;
transform = "{1, 0, 0, 1, 192, 512}";
},
{
name = pixel.1;
transform = "{1, 0, 0, 1, 448, 512}";
},
{
name = pixel.1;
transform = "{1, 0, 0, 1, 0, 640}";
},
{
name = pixel.1;
transform = "{1, 0, 0, 1, 448, 640}";
},
{
name = pixel.6;
transform = "{1, 0, 0, 1, 64, 768}";
}
);
layerId = "EF047752-ED93-49D3-A4D1-D66A6AAE90C7";
width = 512;
},
{
background = {
paths = (
{
closed = 1;
nodes = (
"81 -189 OFFCURVE",
"1 -115 OFFCURVE",
"1 -13 OFFCURVE",
"81 61 OFFCURVE",
"151 61 QCURVE SMOOTH",
"361 61 LINE SMOOTH",
"431 61 OFFCURVE",
"511 -13 OFFCURVE",
"511 -115 OFFCURVE",
"431 -189 OFFCURVE",
"361 -189 QCURVE SMOOTH",
"151 -189 LINE SMOOTH"
);
},
{
closed = 1;
nodes = (
"9 -61 OFFCURVE",
"-63 13 OFFCURVE",
"-63 115 OFFCURVE",
"9 189 OFFCURVE",
"62 189 QCURVE SMOOTH",
"2 189 LINE SMOOTH",
"55 189 OFFCURVE",
"127 115 OFFCURVE",
"127 13 OFFCURVE",
"55 -61 OFFCURVE",
"2 -61 QCURVE SMOOTH",
"62 -61 LINE SMOOTH"
);
},
{
closed = 1;
nodes = (
"457 -61 OFFCURVE",
"385 13 OFFCURVE",
"385 115 OFFCURVE",
"457 189 OFFCURVE",
"510 189 QCURVE SMOOTH",
"450 189 LINE SMOOTH",
"503 189 OFFCURVE",
"575 115 OFFCURVE",
"575 13 OFFCURVE",
"503 -61 OFFCURVE",
"450 -61 QCURVE SMOOTH",
"510 -61 LINE SMOOTH"
);
},
{
closed = 1;
nodes = (
"9 67 OFFCURVE",
"-63 141 OFFCURVE",
"-63 243 OFFCURVE",
"9 317 OFFCURVE",
"62 317 QCURVE SMOOTH",
"2 317 LINE SMOOTH",
"55 317 OFFCURVE",
"127 243 OFFCURVE",
"127 141 OFFCURVE",
"55 67 OFFCURVE",
"2 67 QCURVE SMOOTH",
"62 67 LINE SMOOTH"
);
},
{
closed = 1;
nodes = (
"201 67 OFFCURVE",
"129 141 OFFCURVE",
"129 243 OFFCURVE",
"201 317 OFFCURVE",
"254 317 QCURVE SMOOTH",
"322 317 LINE SMOOTH",
"375 317 OFFCURVE",
"447 243 OFFCURVE",
"447 141 OFFCURVE",
"375 67 OFFCURVE",
"322 67 QCURVE SMOOTH",
"254 67 LINE SMOOTH"
);
},
{
closed = 1;
nodes = (
"457 67 OFFCURVE",
"385 141 OFFCURVE",
"385 243 OFFCURVE",
"457 317 OFFCURVE",
"510 317 QCURVE SMOOTH",
"450 317 LINE SMOOTH",
"503 317 OFFCURVE",
"575 243 OFFCURVE",
"575 141 OFFCURVE",
"503 67 OFFCURVE",
"450 67 QCURVE SMOOTH",
"510 67 LINE SMOOTH"
);
},
{
closed = 1;
nodes = (
"9 195 OFFCURVE",
"-63 269 OFFCURVE",
"-63 371 OFFCURVE",
"9 445 OFFCURVE",
"62 445 QCURVE SMOOTH",
"2 445 LINE SMOOTH",
"55 445 OFFCURVE",
"127 371 OFFCURVE",
"127 269 OFFCURVE",
"55 195 OFFCURVE",
"2 195 QCURVE SMOOTH",
"62 195 LINE SMOOTH"
);
},
{
closed = 1;
nodes = (
"137 195 OFFCURVE",
"65 269 OFFCURVE",
"65 371 OFFCURVE",
"137 445 OFFCURVE",
"190 445 QCURVE SMOOTH",
"194 445 LINE SMOOTH",
"247 445 OFFCURVE",
"319 371 OFFCURVE",
"319 269 OFFCURVE",
"247 195 OFFCURVE",
"194 195 QCURVE SMOOTH",
"190 195 LINE SMOOTH"
);
},
{
closed = 1;
nodes = (
"457 195 OFFCURVE",
"385 269 OFFCURVE",
"385 371 OFFCURVE",
"457 445 OFFCURVE",
"510 445 QCURVE SMOOTH",
"450 445 LINE SMOOTH",
"503 445 OFFCURVE",
"575 371 OFFCURVE",
"575 269 OFFCURVE",
"503 195 OFFCURVE",
"450 195 QCURVE SMOOTH",
"510 195 LINE SMOOTH"
);
},
{
closed = 1;
nodes = (
"9 323 OFFCURVE",
"-63 397 OFFCURVE",
"-63 499 OFFCURVE",
"9 573 OFFCURVE",
"62 573 QCURVE SMOOTH",
"2 573 LINE SMOOTH",
"55 573 OFFCURVE",
"127 499 OFFCURVE",
"127 397 OFFCURVE",
"55 323 OFFCURVE",
"2 323 QCURVE SMOOTH",
"62 323 LINE SMOOTH"
);
},
{
closed = 1;
nodes = (
"137 323 OFFCURVE",
"65 397 OFFCURVE",
"65 499 OFFCURVE",
"137 573 OFFCURVE",
"190 573 QCURVE SMOOTH",
"194 573 LINE SMOOTH",
"247 573 OFFCURVE",
"319 499 OFFCURVE",
"319 397 OFFCURVE",
"247 323 OFFCURVE",
"194 323 QCURVE SMOOTH",
"190 323 LINE SMOOTH"
);
},
{
closed = 1;
nodes = (
"457 323 OFFCURVE",
"385 397 OFFCURVE",
"385 499 OFFCURVE",
"457 573 OFFCURVE",
"510 573 QCURVE SMOOTH",
"450 573 LINE SMOOTH",
"503 573 OFFCURVE",
"575 499 OFFCURVE",
"575 397 OFFCURVE",
"503 323 OFFCURVE",
"450 323 QCURVE SMOOTH",
"510 323 LINE SMOOTH"
);
},
{
closed = 1;
nodes = (
"9 451 OFFCURVE",
"-63 525 OFFCURVE",
"-63 627 OFFCURVE",
"9 701 OFFCURVE",
"62 701 QCURVE SMOOTH",
"2 701 LINE SMOOTH",
"55 701 OFFCURVE",
"127 627 OFFCURVE",
"127 525 OFFCURVE",
"55 451 OFFCURVE",
"2 451 QCURVE SMOOTH",
"62 451 LINE SMOOTH"
);
},
{
closed = 1;
nodes = (
"201 451 OFFCURVE",
"129 525 OFFCURVE",
"129 627 OFFCURVE",
"201 701 OFFCURVE",
"254 701 QCURVE SMOOTH",
"322 701 LINE SMOOTH",
"375 701 OFFCURVE",
"447 627 OFFCURVE",
"447 525 OFFCURVE",
"375 451 OFFCURVE",
"322 451 QCURVE SMOOTH",
"254 451 LINE SMOOTH"
);
},
{
closed = 1;
nodes = (
"457 451 OFFCURVE",
"385 525 OFFCURVE",
"385 627 OFFCURVE",
"457 701 OFFCURVE",
"510 701 QCURVE SMOOTH",
"450 701 LINE SMOOTH",
"503 701 OFFCURVE",
"575 627 OFFCURVE",
"575 525 OFFCURVE",
"503 451 OFFCURVE",
"450 451 QCURVE SMOOTH",
"510 451 LINE SMOOTH"
);
},
{
closed = 1;
nodes = (
"9 579 OFFCURVE",
"-63 653 OFFCURVE",
"-63 755 OFFCURVE",
"9 829 OFFCURVE",
"62 829 QCURVE SMOOTH",
"2 829 LINE SMOOTH",
"55 829 OFFCURVE",
"127 755 OFFCURVE",
"127 653 OFFCURVE",
"55 579 OFFCURVE",
"2 579 QCURVE SMOOTH",
"62 579 LINE SMOOTH"
);
},
{
closed = 1;
nodes = (
"457 579 OFFCURVE",
"385 653 OFFCURVE",
"385 755 OFFCURVE",
"457 829 OFFCURVE",
"510 829 QCURVE SMOOTH",
"450 829 LINE SMOOTH",
"503 829 OFFCURVE",
"575 755 OFFCURVE",
"575 653 OFFCURVE",
"503 579 OFFCURVE",
"450 579 QCURVE SMOOTH",
"510 579 LINE SMOOTH"
);
},
{
closed = 1;
nodes = (
"81 707 OFFCURVE",
"1 781 OFFCURVE",
"1 883 OFFCURVE",
"81 957 OFFCURVE",
"151 957 QCURVE SMOOTH",
"361 957 LINE SMOOTH",
"431 957 OFFCURVE",
"511 883 OFFCURVE",
"511 781 OFFCURVE",
"431 707 OFFCURVE",
"361 707 QCURVE SMOOTH",
"151 707 LINE SMOOTH"
);
}
);
};
components = (
{
name = pixel.6;
transform = "{1, 0, 0, 1, 64, -128}";
},
{
name = pixel.1;
},
{
name = pixel.1;
transform = "{1, 0, 0, 1, 448, 0}";
},
{
name = pixel.1;
transform = "{1, 0, 0, 1, 0, 128}";
},
{
name = pixel.3;
transform = "{1, 0, 0, 1, 192, 128}";
},
{
name = pixel.1;
transform = "{1, 0, 0, 1, 448, 128}";
},
{
name = pixel.1;
transform = "{1, 0, 0, 1, 0, 256}";
},
{
name = pixel.2;
transform = "{1, 0, 0, 1, 128, 256}";
},
{
name = pixel.1;
transform = "{1, 0, 0, 1, 448, 256}";
},
{
name = pixel.1;
transform = "{1, 0, 0, 1, 0, 384}";
},
{
name = pixel.2;
transform = "{1, 0, 0, 1, 128, 384}";
},
{
name = pixel.1;
transform = "{1, 0, 0, 1, 448, 384}";
},
{
name = pixel.1;
transform = "{1, 0, 0, 1, 0, 512}";
},
{
name = pixel.3;
transform = "{1, 0, 0, 1, 192, 512}";
},
{
name = pixel.1;
transform = "{1, 0, 0, 1, 448, 512}";
},
{
name = pixel.1;
transform = "{1, 0, 0, 1, 0, 640}";
},
{
name = pixel.1;
transform = "{1, 0, 0, 1, 448, 640}";
},
{
name = pixel.6;
transform = "{1, 0, 0, 1, 64, 768}";
}
);
layerId = "164C8123-3F0E-4C99-877D-0E85C432A9CE";
width = 512;
},
{
components = (
{
name = pixel.6;
transform = "{1, 0, 0, 1, 64, -128}";
},
{
name = pixel.1;
},
{
name = pixel.1;
transform = "{1, 0, 0, 1, 448, 0}";
},
{
name = pixel.1;
transform = "{1, 0, 0, 1, 0, 128}";
},
{
name = pixel.3;
transform = "{1, 0, 0, 1, 192, 128}";
},
{
name = pixel.1;
transform = "{1, 0, 0, 1, 448, 128}";
},
{
name = pixel.1;
transform = "{1, 0, 0, 1, 0, 256}";
},
{
name = pixel.2;
transform = "{1, 0, 0, 1, 128, 256}";
},
{
name = pixel.1;
transform = "{1, 0, 0, 1, 448, 256}";
},
{
name = pixel.1;
transform = "{1, 0, 0, 1, 0, 384}";
},
{
name = pixel.2;
transform = "{1, 0, 0, 1, 128, 384}";
},
{
name = pixel.1;
transform = "{1, 0, 0, 1, 448, 384}";
},
{
name = pixel.1;
transform = "{1, 0, 0, 1, 0, 512}";
},
{
name = pixel.3;
transform = "{1, 0, 0, 1, 192, 512}";
},
{
name = pixel.1;
transform = "{1, 0, 0, 1, 448, 512}";
},
{
name = pixel.1;
transform = "{1, 0, 0, 1, 0, 640}";
},
{
name = pixel.1;
transform = "{1, 0, 0, 1, 448, 640}";
},
{
name = pixel.6;
transform = "{1, 0, 0, 1, 64, 768}";
}
);
layerId = "EDC3ADDC-530C-4ECE-AAC6-732B149A8D4A";
width = 512;
},
{
components = (
{
name = pixel.6;
transform = "{1, 0, 0, 1, 64, -128}";
},
{
name = pixel.1;
},
{
name = pixel.1;
transform = "{1, 0, 0, 1, 448, 0}";
},
{
name = pixel.1;
transform = "{1, 0, 0, 1, 0, 128}";
},
{
name = pixel.3;
transform = "{1, 0, 0, 1, 192, 128}";
},
{
name = pixel.1;
transform = "{1, 0, 0, 1, 448, 128}";
},
{
name = pixel.1;
transform = "{1, 0, 0, 1, 0, 256}";
},
{
name = pixel.2;
transform = "{1, 0, 0, 1, 128, 256}";
},
{
name = pixel.1;
transform = "{1, 0, 0, 1, 448, 256}";
},
{
name = pixel.1;
transform = "{1, 0, 0, 1, 0, 384}";
},
{
name = pixel.2;
transform = "{1, 0, 0, 1, 128, 384}";
},
{
name = pixel.1;
transform = "{1, 0, 0, 1, 448, 384}";
},
{
name = pixel.1;
transform = "{1, 0, 0, 1, 0, 512}";
},
{
name = pixel.3;
transform = "{1, 0, 0, 1, 192, 512}";
},
{
name = pixel.1;
transform = "{1, 0, 0, 1, 448, 512}";
},
{
name = pixel.1;
transform = "{1, 0, 0, 1, 0, 640}";
},
{
name = pixel.1;
transform = "{1, 0, 0, 1, 448, 640}";
},
{
name = pixel.6;
transform = "{1, 0, 0, 1, 64, 768}";
}
);
layerId = "38088322-78A3-4F4F-B46E-F8355B0BCD96";
width = 512;
}
);
unicode = 00A9;
},
{
glyphname = registered;
layers = (
{
components = (
{
name = pixel.6;
transform = "{1, 0, 0, 1, 64, -128}";
},
{
name = pixel.1;
},
{
name = pixel.1;
transform = "{1, 0, 0, 1, 448, 0}";
},
{
name = pixel.1;
transform = "{1, 0, 0, 1, 0, 128}";
},
{
name = pixel.1;
transform = "{1, 0, 0, 1, 128, 128}";
},
{
name = pixel.1;
transform = "{1, 0, 0, 1, 256, 128}";
},
{
name = pixel.1;
transform = "{1, 0, 0, 1, 448, 128}";
},
{
name = pixel.1;
transform = "{1, 0, 0, 1, 0, 256}";
},
{
name = pixel.2;
transform = "{1, 0, 0, 1, 128, 256}";
},
{
name = pixel.1;
transform = "{1, 0, 0, 1, 448, 256}";
},
{
name = pixel.1;
transform = "{1, 0, 0, 1, 0, 384}";
},
{
name = pixel.3;
transform = "{1, 0, 0, 1, 128, 384}";
},
{
name = pixel.1;
transform = "{1, 0, 0, 1, 448, 384}";
},
{
name = pixel.1;
transform = "{1, 0, 0, 1, 0, 512}";
},
{
name = pixel.3;
transform = "{1, 0, 0, 1, 128, 512}";
},
{
name = pixel.1;
transform = "{1, 0, 0, 1, 448, 512}";
},
{
name = pixel.1;
transform = "{1, 0, 0, 1, 0, 640}";
},
{
name = pixel.1;
transform = "{1, 0, 0, 1, 448, 640}";
},
{
name = pixel.6;
transform = "{1, 0, 0, 1, 64, 768}";
}
);
layerId = "EF047752-ED93-49D3-A4D1-D66A6AAE90C7";
width = 512;
},
{
background = {
paths = (
{
closed = 1;
nodes = (
"81 -189 OFFCURVE",
"1 -115 OFFCURVE",
"1 -13 OFFCURVE",
"81 61 OFFCURVE",
"151 61 QCURVE SMOOTH",
"361 61 LINE SMOOTH",
"431 61 OFFCURVE",
"511 -13 OFFCURVE",
"511 -115 OFFCURVE",
"431 -189 OFFCURVE",
"361 -189 QCURVE SMOOTH",
"151 -189 LINE SMOOTH"
);
},
{
closed = 1;
nodes = (
"9 -61 OFFCURVE",
"-63 13 OFFCURVE",
"-63 115 OFFCURVE",
"9 189 OFFCURVE",
"62 189 QCURVE SMOOTH",
"2 189 LINE SMOOTH",
"55 189 OFFCURVE",
"127 115 OFFCURVE",
"127 13 OFFCURVE",
"55 -61 OFFCURVE",
"2 -61 QCURVE SMOOTH",
"62 -61 LINE SMOOTH"
);
},
{
closed = 1;
nodes = (
"457 -61 OFFCURVE",
"385 13 OFFCURVE",
"385 115 OFFCURVE",
"457 189 OFFCURVE",
"510 189 QCURVE SMOOTH",
"450 189 LINE SMOOTH",
"503 189 OFFCURVE",
"575 115 OFFCURVE",
"575 13 OFFCURVE",
"503 -61 OFFCURVE",
"450 -61 QCURVE SMOOTH",
"510 -61 LINE SMOOTH"
);
},
{
closed = 1;
nodes = (
"9 67 OFFCURVE",
"-63 141 OFFCURVE",
"-63 243 OFFCURVE",
"9 317 OFFCURVE",
"62 317 QCURVE SMOOTH",
"2 317 LINE SMOOTH",
"55 317 OFFCURVE",
"127 243 OFFCURVE",
"127 141 OFFCURVE",
"55 67 OFFCURVE",
"2 67 QCURVE SMOOTH",
"62 67 LINE SMOOTH"
);
},
{
closed = 1;
nodes = (
"137 67 OFFCURVE",
"65 141 OFFCURVE",
"65 243 OFFCURVE",
"137 317 OFFCURVE",
"190 317 QCURVE SMOOTH",
"130 317 LINE SMOOTH",
"183 317 OFFCURVE",
"255 243 OFFCURVE",
"255 141 OFFCURVE",
"183 67 OFFCURVE",
"130 67 QCURVE SMOOTH",
"190 67 LINE SMOOTH"
);
},
{
closed = 1;
nodes = (
"265 67 OFFCURVE",
"193 141 OFFCURVE",
"193 243 OFFCURVE",
"265 317 OFFCURVE",
"318 317 QCURVE SMOOTH",
"258 317 LINE SMOOTH",
"311 317 OFFCURVE",
"383 243 OFFCURVE",
"383 141 OFFCURVE",
"311 67 OFFCURVE",
"258 67 QCURVE SMOOTH",
"318 67 LINE SMOOTH"
);
},
{
closed = 1;
nodes = (
"457 67 OFFCURVE",
"385 141 OFFCURVE",
"385 243 OFFCURVE",
"457 317 OFFCURVE",
"510 317 QCURVE SMOOTH",
"450 317 LINE SMOOTH",
"503 317 OFFCURVE",
"575 243 OFFCURVE",
"575 141 OFFCURVE",
"503 67 OFFCURVE",
"450 67 QCURVE SMOOTH",
"510 67 LINE SMOOTH"
);
},
{
closed = 1;
nodes = (
"9 195 OFFCURVE",
"-63 269 OFFCURVE",
"-63 371 OFFCURVE",
"9 445 OFFCURVE",
"62 445 QCURVE SMOOTH",
"2 445 LINE SMOOTH",
"55 445 OFFCURVE",
"127 371 OFFCURVE",
"127 269 OFFCURVE",
"55 195 OFFCURVE",
"2 195 QCURVE SMOOTH",
"62 195 LINE SMOOTH"
);
},
{
closed = 1;
nodes = (
"137 195 OFFCURVE",
"65 269 OFFCURVE",
"65 371 OFFCURVE",
"137 445 OFFCURVE",
"190 445 QCURVE SMOOTH",
"194 445 LINE SMOOTH",
"247 445 OFFCURVE",
"319 371 OFFCURVE",
"319 269 OFFCURVE",
"247 195 OFFCURVE",
"194 195 QCURVE SMOOTH",
"190 195 LINE SMOOTH"
);
},
{
closed = 1;
nodes = (
"457 195 OFFCURVE",
"385 269 OFFCURVE",
"385 371 OFFCURVE",
"457 445 OFFCURVE",
"510 445 QCURVE SMOOTH",
"450 445 LINE SMOOTH",
"503 445 OFFCURVE",
"575 371 OFFCURVE",
"575 269 OFFCURVE",
"503 195 OFFCURVE",
"450 195 QCURVE SMOOTH",
"510 195 LINE SMOOTH"
);
},
{
closed = 1;
nodes = (
"9 323 OFFCURVE",
"-63 397 OFFCURVE",
"-63 499 OFFCURVE",
"9 573 OFFCURVE",
"62 573 QCURVE SMOOTH",
"2 573 LINE SMOOTH",
"55 573 OFFCURVE",
"127 499 OFFCURVE",
"127 397 OFFCURVE",
"55 323 OFFCURVE",
"2 323 QCURVE SMOOTH",
"62 323 LINE SMOOTH"
);
},
{
closed = 1;
nodes = (
"137 323 OFFCURVE",
"65 397 OFFCURVE",
"65 499 OFFCURVE",
"137 573 OFFCURVE",
"190 573 QCURVE SMOOTH",
"258 573 LINE SMOOTH",
"311 573 OFFCURVE",
"383 499 OFFCURVE",
"383 397 OFFCURVE",
"311 323 OFFCURVE",
"258 323 QCURVE SMOOTH",
"190 323 LINE SMOOTH"
);
},
{
closed = 1;
nodes = (
"457 323 OFFCURVE",
"385 397 OFFCURVE",
"385 499 OFFCURVE",
"457 573 OFFCURVE",
"510 573 QCURVE SMOOTH",
"450 573 LINE SMOOTH",
"503 573 OFFCURVE",
"575 499 OFFCURVE",
"575 397 OFFCURVE",
"503 323 OFFCURVE",
"450 323 QCURVE SMOOTH",
"510 323 LINE SMOOTH"
);
},
{
closed = 1;
nodes = (
"9 451 OFFCURVE",
"-63 525 OFFCURVE",
"-63 627 OFFCURVE",
"9 701 OFFCURVE",
"62 701 QCURVE SMOOTH",
"2 701 LINE SMOOTH",
"55 701 OFFCURVE",
"127 627 OFFCURVE",
"127 525 OFFCURVE",
"55 451 OFFCURVE",
"2 451 QCURVE SMOOTH",
"62 451 LINE SMOOTH"
);
},
{
closed = 1;
nodes = (
"137 451 OFFCURVE",
"65 525 OFFCURVE",
"65 627 OFFCURVE",
"137 701 OFFCURVE",
"190 701 QCURVE SMOOTH",
"258 701 LINE SMOOTH",
"311 701 OFFCURVE",
"383 627 OFFCURVE",
"383 525 OFFCURVE",
"311 451 OFFCURVE",
"258 451 QCURVE SMOOTH",
"190 451 LINE SMOOTH"
);
},
{
closed = 1;
nodes = (
"457 451 OFFCURVE",
"385 525 OFFCURVE",
"385 627 OFFCURVE",
"457 701 OFFCURVE",
"510 701 QCURVE SMOOTH",
"450 701 LINE SMOOTH",
"503 701 OFFCURVE",
"575 627 OFFCURVE",
"575 525 OFFCURVE",
"503 451 OFFCURVE",
"450 451 QCURVE SMOOTH",
"510 451 LINE SMOOTH"
);
},
{
closed = 1;
nodes = (
"9 579 OFFCURVE",
"-63 653 OFFCURVE",
"-63 755 OFFCURVE",
"9 829 OFFCURVE",
"62 829 QCURVE SMOOTH",
"2 829 LINE SMOOTH",
"55 829 OFFCURVE",
"127 755 OFFCURVE",
"127 653 OFFCURVE",
"55 579 OFFCURVE",
"2 579 QCURVE SMOOTH",
"62 579 LINE SMOOTH"
);
},
{
closed = 1;
nodes = (
"457 579 OFFCURVE",
"385 653 OFFCURVE",
"385 755 OFFCURVE",
"457 829 OFFCURVE",
"510 829 QCURVE SMOOTH",
"450 829 LINE SMOOTH",
"503 829 OFFCURVE",
"575 755 OFFCURVE",
"575 653 OFFCURVE",
"503 579 OFFCURVE",
"450 579 QCURVE SMOOTH",
"510 579 LINE SMOOTH"
);
},
{
closed = 1;
nodes = (
"81 707 OFFCURVE",
"1 781 OFFCURVE",
"1 883 OFFCURVE",
"81 957 OFFCURVE",
"151 957 QCURVE SMOOTH",
"361 957 LINE SMOOTH",
"431 957 OFFCURVE",
"511 883 OFFCURVE",
"511 781 OFFCURVE",
"431 707 OFFCURVE",
"361 707 QCURVE SMOOTH",
"151 707 LINE SMOOTH"
);
}
);
};
components = (
{
name = pixel.6;
transform = "{1, 0, 0, 1, 64, -128}";
},
{
name = pixel.1;
},
{
name = pixel.1;
transform = "{1, 0, 0, 1, 448, 0}";
},
{
name = pixel.1;
transform = "{1, 0, 0, 1, 0, 128}";
},
{
name = pixel.1;
transform = "{1, 0, 0, 1, 128, 128}";
},
{
name = pixel.1;
transform = "{1, 0, 0, 1, 256, 128}";
},
{
name = pixel.1;
transform = "{1, 0, 0, 1, 448, 128}";
},
{
name = pixel.1;
transform = "{1, 0, 0, 1, 0, 256}";
},
{
name = pixel.2;
transform = "{1, 0, 0, 1, 128, 256}";
},
{
name = pixel.1;
transform = "{1, 0, 0, 1, 448, 256}";
},
{
name = pixel.1;
transform = "{1, 0, 0, 1, 0, 384}";
},
{
name = pixel.3;
transform = "{1, 0, 0, 1, 128, 384}";
},
{
name = pixel.1;
transform = "{1, 0, 0, 1, 448, 384}";
},
{
name = pixel.1;
transform = "{1, 0, 0, 1, 0, 512}";
},
{
name = pixel.3;
transform = "{1, 0, 0, 1, 128, 512}";
},
{
name = pixel.1;
transform = "{1, 0, 0, 1, 448, 512}";
},
{
name = pixel.1;
transform = "{1, 0, 0, 1, 0, 640}";
},
{
name = pixel.1;
transform = "{1, 0, 0, 1, 448, 640}";
},
{
name = pixel.6;
transform = "{1, 0, 0, 1, 64, 768}";
}
);
layerId = "164C8123-3F0E-4C99-877D-0E85C432A9CE";
width = 512;
},
{
components = (
{
name = pixel.6;
transform = "{1, 0, 0, 1, 64, -128}";
},
{
name = pixel.1;
},
{
name = pixel.1;
transform = "{1, 0, 0, 1, 448, 0}";
},
{
name = pixel.1;
transform = "{1, 0, 0, 1, 0, 128}";
},
{
name = pixel.1;
transform = "{1, 0, 0, 1, 128, 128}";
},
{
name = pixel.1;
transform = "{1, 0, 0, 1, 256, 128}";
},
{
name = pixel.1;
transform = "{1, 0, 0, 1, 448, 128}";
},
{
name = pixel.1;
transform = "{1, 0, 0, 1, 0, 256}";
},
{
name = pixel.2;
transform = "{1, 0, 0, 1, 128, 256}";
},
{
name = pixel.1;
transform = "{1, 0, 0, 1, 448, 256}";
},
{
name = pixel.1;
transform = "{1, 0, 0, 1, 0, 384}";
},
{
name = pixel.3;
transform = "{1, 0, 0, 1, 128, 384}";
},
{
name = pixel.1;
transform = "{1, 0, 0, 1, 448, 384}";
},
{
name = pixel.1;
transform = "{1, 0, 0, 1, 0, 512}";
},
{
name = pixel.3;
transform = "{1, 0, 0, 1, 128, 512}";
},
{
name = pixel.1;
transform = "{1, 0, 0, 1, 448, 512}";
},
{
name = pixel.1;
transform = "{1, 0, 0, 1, 0, 640}";
},
{
name = pixel.1;
transform = "{1, 0, 0, 1, 448, 640}";
},
{
name = pixel.6;
transform = "{1, 0, 0, 1, 64, 768}";
}
);
layerId = "EDC3ADDC-530C-4ECE-AAC6-732B149A8D4A";
width = 512;
},
{
components = (
{
name = pixel.6;
transform = "{1, 0, 0, 1, 64, -128}";
},
{
name = pixel.1;
},
{
name = pixel.1;
transform = "{1, 0, 0, 1, 448, 0}";
},
{
name = pixel.1;
transform = "{1, 0, 0, 1, 0, 128}";
},
{
name = pixel.1;
transform = "{1, 0, 0, 1, 128, 128}";
},
{
name = pixel.1;
transform = "{1, 0, 0, 1, 256, 128}";
},
{
name = pixel.1;
transform = "{1, 0, 0, 1, 448, 128}";
},
{
name = pixel.1;
transform = "{1, 0, 0, 1, 0, 256}";
},
{
name = pixel.2;
transform = "{1, 0, 0, 1, 128, 256}";
},
{
name = pixel.1;
transform = "{1, 0, 0, 1, 448, 256}";
},
{
name = pixel.1;
transform = "{1, 0, 0, 1, 0, 384}";
},
{
name = pixel.3;
transform = "{1, 0, 0, 1, 128, 384}";
},
{
name = pixel.1;
transform = "{1, 0, 0, 1, 448, 384}";
},
{
name = pixel.1;
transform = "{1, 0, 0, 1, 0, 512}";
},
{
name = pixel.3;
transform = "{1, 0, 0, 1, 128, 512}";
},
{
name = pixel.1;
transform = "{1, 0, 0, 1, 448, 512}";
},
{
name = pixel.1;
transform = "{1, 0, 0, 1, 0, 640}";
},
{
name = pixel.1;
transform = "{1, 0, 0, 1, 448, 640}";
},
{
name = pixel.6;
transform = "{1, 0, 0, 1, 64, 768}";
}
);
layerId = "38088322-78A3-4F4F-B46E-F8355B0BCD96";
width = 512;
}
);
unicode = 00AE;
},
{
color = 3;
glyphname = circumflex;
layers = (
{
components = (
{
name = pixel.1;
transform = "{1, 0, 0, 1, 128, 640}";
},
{
name = pixel.1;
transform = "{1, 0, 0, 1, 320, 640}";
},
{
name = pixel.2;
transform = "{1, 0, 0, 1, 192, 768}";
}
);
layerId = "EF047752-ED93-49D3-A4D1-D66A6AAE90C7";
width = 512;
},
{
background = {
paths = (
{
closed = 1;
nodes = (
"137 579 OFFCURVE",
"65 653 OFFCURVE",
"65 755 OFFCURVE",
"137 829 OFFCURVE",
"190 829 QCURVE SMOOTH",
"130 829 LINE SMOOTH",
"183 829 OFFCURVE",
"255 755 OFFCURVE",
"255 653 OFFCURVE",
"183 579 OFFCURVE",
"130 579 QCURVE SMOOTH",
"190 579 LINE SMOOTH"
);
},
{
closed = 1;
nodes = (
"329 579 OFFCURVE",
"257 653 OFFCURVE",
"257 755 OFFCURVE",
"329 829 OFFCURVE",
"382 829 QCURVE SMOOTH",
"322 829 LINE SMOOTH",
"375 829 OFFCURVE",
"447 755 OFFCURVE",
"447 653 OFFCURVE",
"375 579 OFFCURVE",
"322 579 QCURVE SMOOTH",
"382 579 LINE SMOOTH"
);
},
{
closed = 1;
nodes = (
"201 707 OFFCURVE",
"129 781 OFFCURVE",
"129 883 OFFCURVE",
"201 957 OFFCURVE",
"254 957 QCURVE SMOOTH",
"258 957 LINE SMOOTH",
"311 957 OFFCURVE",
"383 883 OFFCURVE",
"383 781 OFFCURVE",
"311 707 OFFCURVE",
"258 707 QCURVE SMOOTH",
"254 707 LINE SMOOTH"
);
}
);
};
components = (
{
name = pixel.1;
transform = "{1, 0, 0, 1, 128, 640}";
},
{
name = pixel.1;
transform = "{1, 0, 0, 1, 319, 640}";
},
{
name = pixel.2;
transform = "{1, 0, 0, 1, 192, 768}";
}
);
layerId = "164C8123-3F0E-4C99-877D-0E85C432A9CE";
width = 512;
},
{
components = (
{
name = pixel.1;
transform = "{1, 0, 0, 1, 128, 640}";
},
{
name = pixel.1;
transform = "{1, 0, 0, 1, 320, 640}";
},
{
name = pixel.2;
transform = "{1, 0, 0, 1, 192, 768}";
}
);
layerId = "EDC3ADDC-530C-4ECE-AAC6-732B149A8D4A";
width = 512;
},
{
components = (
{
name = pixel.1;
transform = "{1, 0, 0, 1, 128, 640}";
},
{
name = pixel.1;
transform = "{1, 0, 0, 1, 320, 640}";
},
{
name = pixel.2;
transform = "{1, 0, 0, 1, 192, 768}";
}
);
layerId = "38088322-78A3-4F4F-B46E-F8355B0BCD96";
width = 512;
}
);
unicode = 02C6;
},
{
color = 3;
glyphname = tilde;
layers = (
{
components = (
{
name = pixel.1;
transform = "{1, 0, 0, 1, 0, 640}";
},
{
name = pixel.3;
transform = "{1, 0, 0, 1, 256, 640}";
},
{
name = pixel.3;
transform = "{1, 0, 0, 1, 64, 768}";
},
{
name = pixel.1;
transform = "{1, 0, 0, 1, 448, 768}";
}
);
layerId = "EF047752-ED93-49D3-A4D1-D66A6AAE90C7";
width = 512;
},
{
background = {
paths = (
{
closed = 1;
nodes = (
"9 579 OFFCURVE",
"-63 653 OFFCURVE",
"-63 755 OFFCURVE",
"9 829 OFFCURVE",
"62 829 QCURVE SMOOTH",
"2 829 LINE SMOOTH",
"55 829 OFFCURVE",
"127 755 OFFCURVE",
"127 653 OFFCURVE",
"55 579 OFFCURVE",
"2 579 QCURVE SMOOTH",
"62 579 LINE SMOOTH"
);
},
{
closed = 1;
nodes = (
"265 579 OFFCURVE",
"193 653 OFFCURVE",
"193 755 OFFCURVE",
"265 829 OFFCURVE",
"318 829 QCURVE SMOOTH",
"386 829 LINE SMOOTH",
"439 829 OFFCURVE",
"511 755 OFFCURVE",
"511 653 OFFCURVE",
"439 579 OFFCURVE",
"386 579 QCURVE SMOOTH",
"318 579 LINE SMOOTH"
);
},
{
closed = 1;
nodes = (
"73 707 OFFCURVE",
"1 781 OFFCURVE",
"1 883 OFFCURVE",
"73 957 OFFCURVE",
"126 957 QCURVE SMOOTH",
"194 957 LINE SMOOTH",
"247 957 OFFCURVE",
"319 883 OFFCURVE",
"319 781 OFFCURVE",
"247 707 OFFCURVE",
"194 707 QCURVE SMOOTH",
"126 707 LINE SMOOTH"
);
},
{
closed = 1;
nodes = (
"457 707 OFFCURVE",
"385 781 OFFCURVE",
"385 883 OFFCURVE",
"457 957 OFFCURVE",
"510 957 QCURVE SMOOTH",
"450 957 LINE SMOOTH",
"503 957 OFFCURVE",
"575 883 OFFCURVE",
"575 781 OFFCURVE",
"503 707 OFFCURVE",
"450 707 QCURVE SMOOTH",
"510 707 LINE SMOOTH"
);
}
);
};
components = (
{
name = pixel.1;
transform = "{1, 0, 0, 1, 0, 640}";
},
{
name = pixel.3;
transform = "{1, 0, 0, 1, 256, 640}";
},
{
name = pixel.3;
transform = "{1, 0, 0, 1, 64, 768}";
},
{
name = pixel.1;
transform = "{1, 0, 0, 1, 448, 768}";
}
);
layerId = "164C8123-3F0E-4C99-877D-0E85C432A9CE";
width = 512;
},
{
components = (
{
name = pixel.1;
transform = "{1, 0, 0, 1, 0, 640}";
},
{
name = pixel.3;
transform = "{1, 0, 0, 1, 256, 640}";
},
{
name = pixel.3;
transform = "{1, 0, 0, 1, 64, 768}";
},
{
name = pixel.1;
transform = "{1, 0, 0, 1, 448, 768}";
}
);
layerId = "EDC3ADDC-530C-4ECE-AAC6-732B149A8D4A";
width = 512;
},
{
components = (
{
name = pixel.1;
transform = "{1, 0, 0, 1, 0, 640}";
},
{
name = pixel.3;
transform = "{1, 0, 0, 1, 256, 640}";
},
{
name = pixel.3;
transform = "{1, 0, 0, 1, 64, 768}";
},
{
name = pixel.1;
transform = "{1, 0, 0, 1, 448, 768}";
}
);
layerId = "38088322-78A3-4F4F-B46E-F8355B0BCD96";
width = 512;
}
);
unicode = 02DC;
},
{
color = 3;
glyphname = cedilla;
layers = (
{
components = (
{
name = pixel.2;
transform = "{1, 0, 0, 1, 128, -128}";
},
{
name = pixel.1;
transform = "{1, 0, 0, 1, 256, 0}";
}
);
layerId = "EF047752-ED93-49D3-A4D1-D66A6AAE90C7";
width = 512;
},
{
background = {
paths = (
{
closed = 1;
nodes = (
"137 -189 OFFCURVE",
"65 -115 OFFCURVE",
"65 -13 OFFCURVE",
"137 61 OFFCURVE",
"190 61 QCURVE SMOOTH",
"194 61 LINE SMOOTH",
"247 61 OFFCURVE",
"319 -13 OFFCURVE",
"319 -115 OFFCURVE",
"247 -189 OFFCURVE",
"194 -189 QCURVE SMOOTH",
"190 -189 LINE SMOOTH"
);
},
{
closed = 1;
nodes = (
"265 -61 OFFCURVE",
"193 13 OFFCURVE",
"193 115 OFFCURVE",
"265 189 OFFCURVE",
"318 189 QCURVE SMOOTH",
"258 189 LINE SMOOTH",
"311 189 OFFCURVE",
"383 115 OFFCURVE",
"383 13 OFFCURVE",
"311 -61 OFFCURVE",
"258 -61 QCURVE SMOOTH",
"318 -61 LINE SMOOTH"
);
}
);
};
components = (
{
name = pixel.2;
transform = "{1, 0, 0, 1, 128, -128}";
},
{
name = pixel.1;
transform = "{1, 0, 0, 1, 256, 0}";
}
);
layerId = "164C8123-3F0E-4C99-877D-0E85C432A9CE";
width = 512;
},
{
components = (
{
name = pixel.2;
transform = "{1, 0, 0, 1, 128, -128}";
},
{
name = pixel.1;
transform = "{1, 0, 0, 1, 256, 0}";
}
);
layerId = "EDC3ADDC-530C-4ECE-AAC6-732B149A8D4A";
width = 512;
},
{
components = (
{
name = pixel.2;
transform = "{1, 0, 0, 1, 128, -128}";
},
{
name = pixel.1;
transform = "{1, 0, 0, 1, 256, 0}";
}
);
layerId = "38088322-78A3-4F4F-B46E-F8355B0BCD96";
width = 512;
}
);
unicode = 00B8;
},
{
color = 5;
glyphname = pixel.1;
layers = (
{
background = {
paths = (
{
closed = 1;
nodes = (
"1 54 OFFCURVE",
"-5 60 OFFCURVE",
"-5 68 OFFCURVE",
"1 74 OFFCURVE",
"7 74 QCURVE SMOOTH",
"57 74 LINE SMOOTH",
"63 74 OFFCURVE",
"69 68 OFFCURVE",
"69 60 OFFCURVE",
"63 54 OFFCURVE",
"57 54 QCURVE SMOOTH",
"7 54 LINE SMOOTH"
);
}
);
};
layerId = "EF047752-ED93-49D3-A4D1-D66A6AAE90C7";
paths = (
{
closed = 1;
nodes = (
"57 54 LINE SMOOTH",
"65 54 OFFCURVE",
"69 59 OFFCURVE",
"69 64 CURVE SMOOTH",
"69 69 OFFCURVE",
"65 74 OFFCURVE",
"57 74 CURVE SMOOTH",
"7 74 LINE SMOOTH",
"-1 74 OFFCURVE",
"-5 69 OFFCURVE",
"-5 64 CURVE SMOOTH",
"-5 59 OFFCURVE",
"-1 54 OFFCURVE",
"7 54 CURVE SMOOTH"
);
}
);
width = 512;
},
{
background = {
paths = (
{
closed = 1;
nodes = (
"-7 -61 OFFCURVE",
"-63 13 OFFCURVE",
"-63 115 OFFCURVE",
"-7 189 OFFCURVE",
"30 189 QCURVE SMOOTH",
"34 189 LINE SMOOTH",
"71 189 OFFCURVE",
"127 115 OFFCURVE",
"127 13 OFFCURVE",
"71 -61 OFFCURVE",
"34 -61 QCURVE SMOOTH",
"30 -61 LINE SMOOTH"
);
}
);
};
layerId = "164C8123-3F0E-4C99-877D-0E85C432A9CE";
paths = (
{
closed = 1;
nodes = (
"34 -61 LINE SMOOTH",
"88 -61 OFFCURVE",
"127 2 OFFCURVE",
"127 64 CURVE SMOOTH",
"127 127 OFFCURVE",
"88 189 OFFCURVE",
"34 189 CURVE SMOOTH",
"30 189 LINE SMOOTH",
"-24 189 OFFCURVE",
"-63 127 OFFCURVE",
"-63 64 CURVE SMOOTH",
"-63 2 OFFCURVE",
"-24 -61 OFFCURVE",
"30 -61 CURVE SMOOTH"
);
}
);
width = 512;
},
{
background = {
paths = (
{
closed = 1;
nodes = (
"-87 54 OFFCURVE",
"-93 60 OFFCURVE",
"-93 68 OFFCURVE",
"-87 74 OFFCURVE",
"-81 74 QCURVE SMOOTH",
"145 74 LINE SMOOTH",
"151 74 OFFCURVE",
"157 68 OFFCURVE",
"157 60 OFFCURVE",
"151 54 OFFCURVE",
"145 54 QCURVE SMOOTH",
"-81 54 LINE SMOOTH"
);
}
);
};
layerId = "EDC3ADDC-530C-4ECE-AAC6-732B149A8D4A";
paths = (
{
closed = 1;
nodes = (
"145 54 LINE SMOOTH",
"153 54 OFFCURVE",
"157 59 OFFCURVE",
"157 64 CURVE SMOOTH",
"157 69 OFFCURVE",
"153 74 OFFCURVE",
"145 74 CURVE SMOOTH",
"-81 74 LINE SMOOTH",
"-89 74 OFFCURVE",
"-93 69 OFFCURVE",
"-93 64 CURVE SMOOTH",
"-93 59 OFFCURVE",
"-89 54 OFFCURVE",
"-81 54 CURVE SMOOTH"
);
}
);
width = 512;
},
{
background = {
paths = (
{
closed = 1;
nodes = (
"-53 -61 OFFCURVE",
"-125 13 OFFCURVE",
"-125 115 OFFCURVE",
"-53 189 OFFCURVE",
"0 189 QCURVE SMOOTH",
"64 189 LINE SMOOTH",
"117 189 OFFCURVE",
"189 115 OFFCURVE",
"189 13 OFFCURVE",
"117 -61 OFFCURVE",
"64 -61 QCURVE SMOOTH",
"0 -61 LINE SMOOTH"
);
}
);
};
layerId = "38088322-78A3-4F4F-B46E-F8355B0BCD96";
paths = (
{
closed = 1;
nodes = (
"64 -61 LINE SMOOTH",
"140 -61 OFFCURVE",
"189 2 OFFCURVE",
"189 64 CURVE SMOOTH",
"189 127 OFFCURVE",
"140 189 OFFCURVE",
"64 189 CURVE SMOOTH",
"0 189 LINE SMOOTH",
"-76 189 OFFCURVE",
"-125 127 OFFCURVE",
"-125 64 CURVE SMOOTH",
"-125 2 OFFCURVE",
"-76 -61 OFFCURVE",
"0 -61 CURVE SMOOTH"
);
}
);
width = 512;
}
);
},
{
color = 5;
glyphname = pixel.2;
layers = (
{
background = {
paths = (
{
closed = 1;
nodes = (
"1 54 OFFCURVE",
"-5 60 OFFCURVE",
"-5 68 OFFCURVE",
"1 74 OFFCURVE",
"7 74 QCURVE SMOOTH",
"121 74 LINE SMOOTH",
"127 74 OFFCURVE",
"133 68 OFFCURVE",
"133 60 OFFCURVE",
"127 54 OFFCURVE",
"121 54 QCURVE SMOOTH",
"7 54 LINE SMOOTH"
);
}
);
};
layerId = "EF047752-ED93-49D3-A4D1-D66A6AAE90C7";
paths = (
{
closed = 1;
nodes = (
"121 54 LINE SMOOTH",
"129 54 OFFCURVE",
"133 59 OFFCURVE",
"133 64 CURVE SMOOTH",
"133 69 OFFCURVE",
"129 74 OFFCURVE",
"121 74 CURVE SMOOTH",
"7 74 LINE SMOOTH",
"-1 74 OFFCURVE",
"-5 69 OFFCURVE",
"-5 64 CURVE SMOOTH",
"-5 59 OFFCURVE",
"-1 54 OFFCURVE",
"7 54 CURVE SMOOTH"
);
}
);
width = 512;
},
{
background = {
paths = (
{
closed = 1;
nodes = (
"9 -61 OFFCURVE",
"-63 13 OFFCURVE",
"-63 115 OFFCURVE",
"9 189 OFFCURVE",
"62 189 QCURVE SMOOTH",
"66 189 LINE SMOOTH",
"119 189 OFFCURVE",
"191 115 OFFCURVE",
"191 13 OFFCURVE",
"119 -61 OFFCURVE",
"66 -61 QCURVE SMOOTH",
"62 -61 LINE SMOOTH"
);
}
);
};
layerId = "164C8123-3F0E-4C99-877D-0E85C432A9CE";
paths = (
{
closed = 1;
nodes = (
"66 -61 LINE SMOOTH",
"142 -61 OFFCURVE",
"191 2 OFFCURVE",
"191 64 CURVE SMOOTH",
"191 127 OFFCURVE",
"142 189 OFFCURVE",
"66 189 CURVE SMOOTH",
"62 189 LINE SMOOTH",
"-14 189 OFFCURVE",
"-63 127 OFFCURVE",
"-63 64 CURVE SMOOTH",
"-63 2 OFFCURVE",
"-14 -61 OFFCURVE",
"62 -61 CURVE SMOOTH"
);
}
);
width = 512;
},
{
background = {
paths = (
{
closed = 1;
nodes = (
"-87 54 OFFCURVE",
"-93 60 OFFCURVE",
"-93 68 OFFCURVE",
"-87 74 OFFCURVE",
"-81 74 QCURVE SMOOTH",
"209 74 LINE SMOOTH",
"215 74 OFFCURVE",
"221 68 OFFCURVE",
"221 60 OFFCURVE",
"215 54 OFFCURVE",
"209 54 QCURVE SMOOTH",
"-81 54 LINE SMOOTH"
);
}
);
};
layerId = "EDC3ADDC-530C-4ECE-AAC6-732B149A8D4A";
paths = (
{
closed = 1;
nodes = (
"209 54 LINE SMOOTH",
"217 54 OFFCURVE",
"221 59 OFFCURVE",
"221 64 CURVE SMOOTH",
"221 69 OFFCURVE",
"217 74 OFFCURVE",
"209 74 CURVE SMOOTH",
"-81 74 LINE SMOOTH",
"-89 74 OFFCURVE",
"-93 69 OFFCURVE",
"-93 64 CURVE SMOOTH",
"-93 59 OFFCURVE",
"-89 54 OFFCURVE",
"-81 54 CURVE SMOOTH"
);
}
);
width = 512;
},
{
background = {
paths = (
{
closed = 1;
nodes = (
"-53 -61 OFFCURVE",
"-125 13 OFFCURVE",
"-125 115 OFFCURVE",
"-53 189 OFFCURVE",
"0 189 QCURVE SMOOTH",
"128 189 LINE SMOOTH",
"181 189 OFFCURVE",
"253 115 OFFCURVE",
"253 13 OFFCURVE",
"181 -61 OFFCURVE",
"128 -61 QCURVE SMOOTH",
"0 -61 LINE SMOOTH"
);
}
);
};
layerId = "38088322-78A3-4F4F-B46E-F8355B0BCD96";
paths = (
{
closed = 1;
nodes = (
"128 -61 LINE SMOOTH",
"204 -61 OFFCURVE",
"253 2 OFFCURVE",
"253 64 CURVE SMOOTH",
"253 127 OFFCURVE",
"204 189 OFFCURVE",
"128 189 CURVE SMOOTH",
"0 189 LINE SMOOTH",
"-76 189 OFFCURVE",
"-125 127 OFFCURVE",
"-125 64 CURVE SMOOTH",
"-125 2 OFFCURVE",
"-76 -61 OFFCURVE",
"0 -61 CURVE SMOOTH"
);
}
);
width = 512;
}
);
},
